<svg width="22" height="20" viewBox="0 0 22 20" fill="none" xmlns="http://www.w3.org/2000/svg">
<path d="M20.8641 8.08333H1.69743M10.3224 16.7083L17.7974 16.7083C18.8709 16.7083 19.4076 16.7083 19.8176 16.4994C20.1782 16.3157 20.4714 16.0225 20.6552 15.6618C20.8641 15.2518 20.8641 14.7151 20.8641 13.6417V6.35833C20.8641 5.2849 20.8641 4.74818 20.6552 4.33819C20.4714 3.97754 20.1782 3.68433 19.8176 3.50057C19.4076 3.29167 18.8709 3.29167 17.7974 3.29167H16.0724M10.3224 16.7083L12.2391 18.625M10.3224 16.7083L12.2391 14.7917M6.48909 16.7083H4.76409C3.69066 16.7083 3.15394 16.7083 2.74394 16.4994C2.3833 16.3157 2.09009 16.0225 1.90633 15.6618C1.69743 15.2518 1.69743 14.7151 1.69743 13.6417V6.35833C1.69743 5.2849 1.69743 4.74818 1.90633 4.33818C2.09009 3.97754 2.3833 3.68433 2.74394 3.50057C3.15394 3.29167 3.69066 3.29167 4.76409 3.29167H12.2391M12.2391 3.29167L10.3224 5.20833M12.2391 3.29167L10.3224 1.375" stroke="#344054" stroke-width="1.8" stroke-linecap="round" stroke-linejoin="round"/>
</svg>
