<svg width="105" height="95" viewBox="0 0 105 95" fill="none" xmlns="http://www.w3.org/2000/svg">
<path d="M40.0412 11.1924H62.0164L39.2057 80.2579C38.9712 80.9682 38.5252 81.5844 37.9284 82.0209C37.3338 82.4574 36.6177 82.6928 35.8848 82.6928H18.7841C18.2293 82.6928 17.6807 82.558 17.1865 82.2991C16.6923 82.0402 16.2652 81.6636 15.9406 81.2036C15.6161 80.7435 15.4046 80.2086 15.3229 79.6481C15.2413 79.0875 15.2894 78.514 15.4674 77.9749L36.7224 13.6295C36.9569 12.9191 37.4029 12.3029 37.9996 11.8664C38.5943 11.4299 39.3104 11.1946 40.0433 11.1946L40.0412 11.1924Z" fill="url(#paint0_linear_142_1882)"/>
<path d="M71.9753 57.5178H37.129C36.8044 57.5178 36.4883 57.6163 36.2203 57.8024C35.9522 57.9886 35.7449 58.2539 35.6277 58.5598C35.5083 58.8679 35.4832 59.206 35.5544 59.527C35.6256 59.85 35.791 60.1432 36.0276 60.3678L58.4195 81.7236C59.0707 82.3462 59.9292 82.6907 60.8212 82.6907H80.5518L71.9753 57.5135V57.5178Z" fill="#0078D4"/>
<path d="M40.0424 11.1925C39.3012 11.1903 38.5788 11.43 37.9799 11.875C37.3811 12.3222 36.9372 12.9512 36.7152 13.6744L15.4959 77.9193C15.3053 78.4585 15.2467 79.0383 15.3221 79.6053C15.3974 80.1744 15.6068 80.7158 15.9293 81.1843C16.2538 81.6529 16.6831 82.0359 17.1814 82.2991C17.6798 82.5623 18.2326 82.6992 18.7937 82.6971H36.3362C36.9895 82.5773 37.6009 82.2841 38.1056 81.8434C38.6123 81.4047 38.9934 80.8356 39.2132 80.1958L43.4449 67.4543L58.5607 81.8605C59.193 82.3954 59.9887 82.6928 60.8116 82.6992H80.4689L71.8463 57.5221L46.7135 57.5285L62.0972 11.1925H40.0424Z" fill="url(#paint1_linear_142_1882)"/>
<path d="M68.1089 13.6252C67.8743 12.917 67.4283 12.3008 66.8337 11.8643C66.239 11.4278 65.525 11.1924 64.7942 11.1924H40.3043C41.0371 11.1924 41.749 11.4278 42.3437 11.8643C42.9384 12.3008 43.3844 12.917 43.6189 13.6252L64.8738 77.977C65.0518 78.5141 65.102 79.0875 65.0183 79.6502C64.9366 80.2108 64.7251 80.7457 64.4006 81.2057C64.076 81.6658 63.651 82.0423 63.1547 82.3012C62.6606 82.5601 62.1141 82.6949 61.5571 82.6949H86.0471C86.602 82.6949 87.1506 82.5601 87.6447 82.3012C88.1389 82.0423 88.566 81.6658 88.8885 81.2057C89.213 80.7457 89.4245 80.2108 89.5062 79.6502C89.5878 79.0896 89.5397 78.5162 89.3617 77.977L68.1089 13.6252Z" fill="url(#paint2_linear_142_1882)"/>
<defs>
<linearGradient id="paint0_linear_142_1882" x1="48.0523" y1="16.4923" x2="24.3284" y2="85.0728" gradientUnits="userSpaceOnUse">
<stop stop-color="#114A8B"/>
<stop offset="1" stop-color="#0669BC"/>
</linearGradient>
<linearGradient id="paint1_linear_142_1882" x1="55.179" y1="48.5976" x2="49.8774" y2="50.3511" gradientUnits="userSpaceOnUse">
<stop stop-opacity="0.3"/>
<stop offset="0.07" stop-opacity="0.2"/>
<stop offset="0.32" stop-opacity="0.1"/>
<stop offset="0.62" stop-opacity="0.05"/>
<stop offset="1" stop-opacity="0"/>
</linearGradient>
<linearGradient id="paint2_linear_142_1882" x1="52.4404" y1="14.419" x2="78.4565" y2="82.2478" gradientUnits="userSpaceOnUse">
<stop stop-color="#3CCBF4"/>
<stop offset="1" stop-color="#2892DF"/>
</linearGradient>
</defs>
</svg>
