<svg width="105" height="95" viewBox="0 0 105 95" fill="none" xmlns="http://www.w3.org/2000/svg">
<path d="M102.014 39.3373C101.744 39.1083 99.3192 37.2276 94.1117 37.2276C92.7654 37.2276 91.3729 37.3645 90.0266 37.5956C89.0382 30.5754 83.3366 27.1798 83.1126 26.998L81.7201 26.1721L80.8219 27.5029C79.6996 29.2917 78.8473 31.3115 78.3532 33.3762C77.4109 37.3688 77.993 41.1303 79.9697 44.3419C77.5889 45.7177 73.7278 46.0386 72.9196 46.0857H9.16103C7.50059 46.0857 6.15213 47.4615 6.15213 49.1604C6.0621 54.8497 7.00434 60.539 8.9349 65.9073C11.1356 71.7806 14.4125 76.1391 18.6337 78.8008C23.3931 81.7835 31.1614 83.4802 39.9159 83.4802C43.867 83.4802 47.8182 83.1122 51.7254 82.3783C57.159 81.3684 62.3664 79.4427 67.1719 76.644C71.123 74.3033 74.6701 71.3228 77.679 67.8351C82.7524 62.0089 85.7613 55.4937 87.962 49.7124H88.8603C94.3839 49.7124 97.7948 47.4636 99.6814 45.5379C100.938 44.344 101.882 42.8762 102.554 41.2244L102.958 40.0305L102.016 39.3415L102.014 39.3373Z" fill="#0091E2"/>
<path d="M15.0862 44.2006H23.6166C24.0207 44.2006 24.3809 43.8797 24.3809 43.4197V35.6207C24.3809 35.2077 24.0668 34.8419 23.6166 34.8419H15.0862C14.682 34.8419 14.3219 35.1628 14.3219 35.6207V43.4197C14.3659 43.8776 14.682 44.2006 15.0862 44.2006Z" fill="#0091E2"/>
<path d="M26.851 44.2006H35.3814C35.7856 44.2006 36.1436 43.8797 36.1436 43.4197V35.6207C36.1436 35.2077 35.8295 34.8419 35.3814 34.8419H26.851C26.4469 34.8419 26.0867 35.1628 26.0867 35.6207V43.4197C26.1307 43.8776 26.4469 44.2006 26.851 44.2006Z" fill="#0091E2"/>
<path d="M38.842 44.2006H47.3724C47.7765 44.2006 48.1367 43.8797 48.1367 43.4197V35.6207C48.1367 35.2077 47.8226 34.8419 47.3724 34.8419H38.842C38.4378 34.8419 38.0777 35.1628 38.0777 35.6207V43.4197C38.0777 43.8776 38.3918 44.2006 38.842 44.2006Z" fill="#0091E2"/>
<path d="M50.6474 44.2006H59.1778C59.582 44.2006 59.9421 43.8797 59.9421 43.4197V35.6207C59.9421 35.2077 59.628 34.8419 59.1778 34.8419H50.6474C50.2433 34.8419 49.8831 35.1628 49.8831 35.6207V43.4197C49.8831 43.8776 50.2433 44.2006 50.6474 44.2006Z" fill="#0091E2"/>
<path d="M26.851 33.0509H35.3814C35.7856 33.0509 36.1436 32.6829 36.1436 32.27V24.471C36.1436 24.058 35.8295 23.69 35.3814 23.69H26.851C26.4469 23.69 26.0867 24.0109 26.0867 24.471V32.27C26.1307 32.6829 26.4469 33.0509 26.851 33.0509Z" fill="#0091E2"/>
<path d="M38.842 33.0509H47.3724C47.7765 33.0509 48.1367 32.6829 48.1367 32.27V24.471C48.1367 24.058 47.8226 23.69 47.3724 23.69H38.842C38.4378 23.69 38.0777 24.0109 38.0777 24.471V32.27C38.0777 32.6829 38.3918 33.0509 38.842 33.0509Z" fill="#0091E2"/>
<path d="M50.6474 33.0509H59.1778C59.582 33.0509 59.9421 32.6829 59.9421 32.27V24.471C59.9421 24.058 59.582 23.69 59.1778 23.69H50.6474C50.2433 23.69 49.8831 24.0109 49.8831 24.471V32.27C49.8831 32.6829 50.2433 33.0509 50.6474 33.0509Z" fill="#0091E2"/>
<path d="M50.6474 21.8563H59.1778C59.582 21.8563 59.9421 21.5354 59.9421 21.0754V13.2764C59.9421 12.8634 59.582 12.4954 59.1778 12.4954H50.6474C50.2433 12.4954 49.8831 12.8164 49.8831 13.2764V21.0754C49.8831 21.4883 50.2433 21.8563 50.6474 21.8563Z" fill="#0091E2"/>
<path d="M62.5514 44.2006H71.0819C71.486 44.2006 71.8461 43.8797 71.8461 43.4197V35.6207C71.8461 35.2077 71.532 34.8419 71.0819 34.8419H62.5514C62.1473 34.8419 61.7871 35.1628 61.7871 35.6207V43.4197C61.8311 43.8776 62.1473 44.2006 62.5514 44.2006Z" fill="#0091E2"/>
</svg>
