<svg width="105" height="95" viewBox="0 0 105 95" fill="none" xmlns="http://www.w3.org/2000/svg">
<path d="M52.9583 88.2672C47.7146 88.2672 42.473 88.2233 37.2336 88.287C34.8511 88.3133 33.0128 87.4681 31.5177 85.5934C24.8882 77.2756 18.2193 68.993 11.5525 60.7038C10.2148 59.042 9.69024 57.2726 10.1995 55.0949C12.6476 44.6236 15.0061 34.1282 17.4018 23.6393C17.8805 21.5385 19.0958 20.0962 21.063 19.1632C30.7527 14.5576 40.4205 9.91685 50.0818 5.25636C52.1037 4.27947 54.0294 4.33875 56.0359 5.30246C65.6382 9.93222 75.247 14.5532 84.8799 19.1237C86.9171 20.0918 88.1564 21.5714 88.6504 23.7403C91.0395 34.2313 93.4155 44.7246 95.8483 55.2025C96.3139 57.2133 95.892 58.9102 94.6351 60.4711C87.9007 68.87 81.1618 77.2668 74.4492 85.6856C73 87.5054 71.177 88.3001 68.8841 88.2804C63.5792 88.2409 58.2698 88.2694 52.9649 88.2694L52.9561 88.265L52.9583 88.2672ZM51.6097 21.2509C51.7037 23.9554 51.3758 24.3703 48.8927 24.8577C44.4861 25.7248 40.5058 27.5359 37.2795 30.7036C36.062 31.9022 35.0369 31.6475 33.9527 30.8748C33.1177 30.2821 32.4445 29.4611 31.6904 28.752C31.1746 28.2691 30.6915 27.7137 30.1013 27.3427C29.2357 26.8048 28.3286 26.8817 27.6947 27.7532C27.1199 28.5369 27.2641 29.3843 27.9133 30.056C28.357 30.5126 28.9232 30.8529 29.4609 31.2085C30.2653 31.7463 31.1287 32.2029 31.9024 32.7847C33.4762 33.9679 33.6205 34.7714 32.6871 36.4617C30.5341 40.3561 29.5702 44.5292 29.7254 48.9834C29.8106 51.4113 29.1002 52.1796 26.663 52.4562C25.5701 52.5814 24.4707 52.6472 23.3865 52.8316C22.1625 53.038 21.2925 53.7185 21.557 55.0883C21.8105 56.4077 22.8816 56.6096 23.9789 56.3418C25.1636 56.0455 26.2958 55.5493 27.4652 55.1893C29.8587 54.4561 30.6674 54.8425 31.6707 57.1321C33.4281 61.156 36.1057 64.4159 39.6795 66.9448C41.214 68.0337 41.4632 68.9666 40.5735 70.6767C40.1582 71.4758 39.6183 72.2178 39.144 72.9905C38.8402 73.4866 38.5254 73.9784 38.2588 74.4943C37.7254 75.5216 37.9527 76.4217 38.9036 77.032C39.9615 77.7103 40.873 77.1834 41.3451 76.2592C41.9834 74.9992 42.3528 73.6052 42.8643 72.2815C43.6839 70.1543 44.5364 69.7284 46.6413 70.3189C50.9124 71.5087 55.1879 71.5241 59.4633 70.3387C61.5464 69.7613 62.3158 70.1082 63.1398 72.1651C63.6207 73.3637 63.9202 74.6391 64.4579 75.8136C64.9387 76.8783 65.7475 77.741 67.0546 77.0473C68.2677 76.4041 68.3136 75.3153 67.6885 74.2133C67.083 73.1442 66.3442 72.1475 65.7366 71.0785C64.5475 68.9754 64.718 68.2576 66.6349 66.8504C70.2218 64.2227 72.8754 60.864 74.5738 56.7413C75.3585 54.8337 76.106 54.4539 78.1214 55.051C79.3563 55.4176 80.5432 55.9598 81.787 56.2738C82.9017 56.5548 84.0493 56.5152 84.4799 55.1191C84.8296 53.9841 84.0646 53.0511 82.528 52.7965C81.3192 52.5945 80.0798 52.566 78.8667 52.3794C76.9323 52.0787 76.2241 51.2269 76.305 49.3083C76.4995 44.7224 75.5246 40.4197 73.2689 36.42C72.4055 34.8899 72.5432 33.9767 73.9596 32.8637C74.7727 32.2271 75.6973 31.7463 76.5585 31.1778C77.094 30.8221 77.6667 30.4863 78.1082 30.0297C78.7618 29.3623 78.8973 28.5303 78.329 27.7268C77.7454 26.9036 76.8755 26.829 76.0754 27.2263C75.4612 27.5315 74.9607 28.0891 74.4426 28.572C73.7344 29.235 73.1027 29.9857 72.3639 30.6092C70.8951 31.8495 70.0055 31.8232 68.6087 30.5828C65.1879 27.5381 61.2207 25.6326 56.731 24.8094C54.9277 24.4779 54.3791 23.8874 54.4534 22.0258C54.5037 20.7328 54.7376 19.4508 54.8534 18.1622C54.9933 16.6562 54.1496 15.4335 53.0108 15.4379C51.872 15.4423 51.0326 16.6606 51.1834 18.171C51.2884 19.2005 51.4632 20.2235 51.6119 21.2509H51.6031H51.6097Z" fill="#326CE4"/>
<path d="M51.6085 21.2509C51.4642 20.2236 51.285 19.2028 51.1801 18.171C51.0292 16.6607 51.8686 15.4423 53.0074 15.4379C54.1462 15.4335 54.9899 16.6563 54.85 18.1622C54.7298 19.4552 54.4959 20.7351 54.45 22.0259C54.3801 23.8874 54.9243 24.4779 56.7276 24.8094C61.2173 25.6326 65.1845 27.5337 68.6053 30.5829C69.9999 31.8232 70.8895 31.8518 72.3605 30.6092C73.0993 29.9858 73.7332 29.235 74.4392 28.5721C74.9551 28.0891 75.4578 27.5293 76.072 27.2264C76.8721 26.829 77.7442 26.9015 78.3256 27.7269C78.8939 28.5304 78.7562 29.358 78.1048 30.0297C77.6611 30.4863 77.0906 30.8178 76.5551 31.1778C75.6961 31.7508 74.7671 32.2315 73.9562 32.8638C72.5376 33.9767 72.4021 34.89 73.2655 36.42C75.519 40.4198 76.4961 44.7224 76.3016 49.3083C76.2207 51.2247 76.9311 52.0765 78.8633 52.3794C80.0764 52.566 81.3114 52.5946 82.5246 52.7965C84.0634 53.0534 84.8284 53.9842 84.4765 55.1191C84.0459 56.5175 82.8983 56.5548 81.7836 56.2738C80.5398 55.9621 79.3508 55.4198 78.118 55.0511C76.1048 54.4539 75.3595 54.8315 74.5704 56.7414C72.872 60.864 70.2185 64.2228 66.6315 66.8505C64.7146 68.2554 64.5397 68.9733 65.7332 71.0785C66.3386 72.1476 67.0731 73.1442 67.6851 74.2133C68.3102 75.3175 68.2643 76.402 67.0512 77.0474C65.7463 77.7411 64.9375 76.8761 64.4545 75.8136C63.9211 74.6436 63.6195 73.3615 63.1364 72.1651C62.308 70.1082 61.543 69.7614 59.4599 70.3387C55.1845 71.5263 50.909 71.5088 46.6379 70.3189C44.5286 69.7328 43.6762 70.1587 42.8609 72.2815C42.3516 73.6096 41.9778 75.0014 41.3417 76.2593C40.8762 77.1835 39.9581 77.7103 38.9002 77.032C37.9515 76.4239 37.7264 75.5217 38.2554 74.4943C38.5242 73.9784 38.8346 73.4867 39.1406 72.9906C39.6149 72.2178 40.1505 71.4802 40.5701 70.6768C41.4598 68.9667 41.2106 68.0315 39.6761 66.9449C36.1045 64.4159 33.4225 61.156 31.6673 57.1321C30.6641 54.8403 29.8553 54.4583 27.4618 55.1894C26.2924 55.5494 25.1602 56.0433 23.9755 56.3419C22.8804 56.6141 21.8115 56.4121 21.5536 55.0884C21.2891 53.7185 22.1591 53.0424 23.3831 52.8317C24.4629 52.6473 25.5668 52.5814 26.6597 52.4563C29.1012 52.1841 29.8072 51.4135 29.722 48.9834C29.5668 44.5293 30.5307 40.3583 32.6837 36.4618C33.6171 34.7714 33.4728 33.968 31.899 32.7847C31.1253 32.203 30.2619 31.7464 29.4575 31.2085C28.922 30.8529 28.3537 30.5148 27.9099 30.056C27.2608 29.3843 27.1165 28.5369 27.6914 27.7532C28.3296 26.8839 29.2345 26.8049 30.0979 27.3427C30.6881 27.7137 31.1712 28.2647 31.687 28.7521C32.4411 29.4633 33.1165 30.2822 33.9493 30.8749C35.0335 31.6476 36.0564 31.9022 37.2761 30.7036C40.498 27.5337 44.4784 25.7226 48.8893 24.8577C51.3724 24.3704 51.6981 23.9555 51.6063 21.2509H51.615H51.6085ZM50.5899 31.8408H50.6948C50.6948 31.3249 50.6686 30.8024 50.7036 30.2865C50.7495 29.5753 50.485 29.4084 49.7943 29.5446C46.4281 30.2031 43.4314 31.6103 40.7975 33.8231C40.0718 34.4312 40.2139 34.7758 40.9177 35.2566C42.9964 36.6857 45.0248 38.185 47.1013 39.6119C48.9789 40.9005 50.1331 40.3298 50.2795 38.0577C50.4107 35.9898 50.4893 33.9131 50.5899 31.8408ZM34.4455 47.4489C34.428 49.0493 35.1231 49.6442 36.533 49.2359C38.6947 48.608 40.8696 48.0131 43.0182 47.3458C44.9855 46.7333 45.2871 45.5105 43.7877 44.0902C41.9603 42.3582 40.0106 40.7535 38.1985 38.9995C37.2346 38.0665 36.8849 38.5319 36.4412 39.4319C35.1625 42.0267 34.557 44.7795 34.4433 47.4445L34.4455 47.4489ZM52.9527 66.4641C54.6424 66.5102 56.2839 66.2095 57.9167 65.8011C58.5812 65.6343 59.0096 65.5289 58.5309 64.6925C57.1517 62.28 55.8927 59.7972 54.4697 57.4131C53.6741 56.0784 52.3363 56.0938 51.5516 57.4329C50.144 59.8301 48.8631 62.2953 47.5057 64.7211C47.1516 65.3533 47.2959 65.5838 47.9953 65.7594C49.6281 66.1699 51.2631 66.4926 52.9549 66.4619V66.4663L52.9527 66.4641ZM71.589 47.506C71.4381 44.9025 70.8808 42.1979 69.637 39.6558C69.1321 38.6263 68.5638 38.275 67.5889 39.1904C65.8447 40.8259 64.0173 42.3757 62.2752 44.0156C60.7124 45.4864 61.0402 46.7135 63.1386 47.348C65.296 48.0043 67.4687 48.608 69.6327 49.2337C71.6196 49.8066 71.6261 49.8044 71.5868 47.5038L71.589 47.506ZM62.0741 52.7878C59.2763 52.9129 58.9309 53.4397 59.8774 55.7777C60.7779 57.9993 61.731 60.1989 62.6009 62.4314C62.896 63.1888 63.1364 63.5598 63.9408 62.9539C66.6884 60.8772 68.7955 58.3022 70.1201 55.1081C70.284 54.713 70.5835 54.1839 69.8359 54.0544C67.1671 53.5978 64.4873 53.1807 62.0719 52.7856L62.0741 52.7878ZM55.3418 31.6103H55.4074C55.5167 33.7375 55.6172 35.8647 55.7375 37.9962C55.8686 40.2903 57.0052 40.8961 58.8632 39.6207C60.8807 38.2355 62.8107 36.7208 64.8676 35.4015C65.9671 34.6946 65.7222 34.3016 64.8982 33.6299C62.3998 31.5993 59.6085 30.269 56.45 29.617C55.3375 29.3865 55.2325 29.7663 55.3309 30.6444C55.3659 30.9649 55.3353 31.2876 55.3353 31.6125H55.344L55.3418 31.6103ZM46.7494 54.3354C46.4456 53.6768 46.4849 52.8097 45.3461 52.8514C42.4827 52.9568 39.6914 53.5802 36.8696 53.971C35.875 54.1071 35.6717 54.5374 36.0608 55.4001C37.4248 58.4098 39.4182 60.9036 42.0652 62.8793C42.745 63.3864 43.0991 63.3952 43.4248 62.4819C44.0106 60.8421 44.7494 59.2571 45.4139 57.6458C45.8576 56.5724 46.2838 55.4923 46.7472 54.3398V54.3354H46.7494ZM53.1123 45.37C51.1298 45.3656 49.9604 46.1537 49.9145 47.528C49.8598 49.1788 51.4642 51.0338 52.9812 51.0645C54.4238 51.0952 56.0741 49.3478 56.0828 47.7782C56.0916 46.3184 54.9287 45.37 53.1101 45.3657L53.1145 45.37H53.1123Z" fill="#FDFDFE"/>
<path d="M50.5936 31.8408C50.4931 33.9131 50.4144 35.9854 50.2833 38.0577C50.1346 40.3342 48.9783 40.9027 47.1051 39.6119C45.0264 38.1828 43.0001 36.6813 40.9214 35.2566C40.2176 34.7736 40.0777 34.4334 40.8012 33.8231C43.4351 31.6103 46.4319 30.2053 49.798 29.5446C50.4931 29.4085 50.7532 29.5797 50.7073 30.2866C50.6723 30.8025 50.6986 31.3249 50.6986 31.843H50.5936V31.8386V31.8408Z" fill="#326CE4"/>
<path d="M34.4479 47.4491C34.5638 44.784 35.1671 42.0312 36.4458 39.4364C36.8895 38.5342 37.2392 38.0666 38.2032 39.0039C40.0108 40.7558 41.9649 42.3561 43.7923 44.0947C45.2917 45.5194 44.9901 46.74 43.0229 47.3503C40.8742 48.0176 38.7015 48.6103 36.5376 49.2404C35.1299 49.6487 34.4348 49.0538 34.4501 47.4534L34.4479 47.4491Z" fill="#326CE4"/>
<path d="M52.9596 66.4597C51.2699 66.4904 49.6328 66.1633 48 65.7528C47.3005 65.5772 47.1606 65.3467 47.5103 64.7145C48.8677 62.2909 50.1486 59.8191 51.5563 57.4263C52.341 56.0872 53.6787 56.0718 54.4743 57.4065C55.8973 59.7906 57.1607 62.2734 58.5356 64.6859C59.0143 65.5201 58.5815 65.6255 57.9213 65.7945C56.2886 66.205 54.6492 66.5058 52.9574 66.4575L52.9596 66.4597Z" fill="#326CE4"/>
<path d="M71.5882 47.5038C71.6276 49.8022 71.6188 49.811 69.6341 49.2337C67.4701 48.6058 65.2974 47.9999 63.1401 47.348C61.0417 46.7113 60.716 45.4908 62.2767 44.0156C64.0187 42.3757 65.8439 40.8259 67.5904 39.1904C68.5652 38.2772 69.1335 38.6241 69.6385 39.6558C70.8822 42.1957 71.4374 44.9025 71.5904 47.506L71.5882 47.5038Z" fill="#326CE4"/>
<path d="M62.0786 52.7834C64.4917 53.1741 67.1693 53.5956 69.8425 54.0522C70.5857 54.1774 70.2885 54.7086 70.1267 55.106C68.7977 58.3022 66.695 60.8794 63.9474 62.9517C63.1431 63.5598 62.9026 63.1866 62.6075 62.4293C61.7376 60.1967 60.7846 57.9949 59.884 55.7755C58.9354 53.4376 59.2851 52.9107 62.0808 52.7856L62.0786 52.7834Z" fill="#326CE4"/>
<path d="M55.3482 31.6059C55.3482 31.281 55.3788 30.9583 55.3439 30.6378C55.2477 29.7597 55.3526 29.3843 56.463 29.6104C59.6237 30.2624 62.4128 31.5927 64.9112 33.6233C65.7352 34.295 65.9844 34.6858 64.8806 35.3948C62.8237 36.7186 60.8936 38.2289 58.8761 39.6141C57.0182 40.8895 55.8794 40.2858 55.7504 37.9896C55.6302 35.8624 55.5297 33.7308 55.4204 31.6037H55.3461L55.3482 31.6059Z" fill="#326CE4"/>
<path d="M46.7487 54.3288C46.2853 55.4813 45.8591 56.5613 45.4154 57.6348C44.7509 59.2461 44.0165 60.8311 43.4263 62.4709C43.1006 63.3842 42.7465 63.3798 42.0667 62.8683C39.4197 60.8926 37.4306 58.3988 36.0623 55.3891C35.6688 54.5264 35.8721 54.0961 36.871 53.96C39.6929 53.5736 42.482 52.9458 45.3476 52.8404C46.4864 52.7965 46.4471 53.668 46.7509 54.3244V54.3288H46.7487Z" fill="#326CE4"/>
<path d="M53.1149 45.3635C54.9291 45.3679 56.0964 46.3119 56.0876 47.7761C56.0767 49.3457 54.4286 51.0931 52.986 51.0624C51.4712 51.0273 49.8646 49.1767 49.9193 47.5258C49.9652 46.1516 51.1368 45.3591 53.1171 45.3679L53.1127 45.3635H53.1149Z" fill="#326CE4"/>
</svg>
