<svg width="190" height="47" viewBox="0 0 190 47" fill="none" xmlns="http://www.w3.org/2000/svg">
<g clip-path="url(#clip0_10456_446354)">
<path fill-rule="evenodd" clip-rule="evenodd" d="M10.8928 10.604H10.1947V14.2623H10.8928V10.604Z" fill="#13BEF9"/>
<path fill-rule="evenodd" clip-rule="evenodd" d="M13.8949 10.604H13.1968V14.2623H13.8949V10.604Z" fill="#13BEF9"/>
<path fill-rule="evenodd" clip-rule="evenodd" d="M17.9967 3.6233L17.2811 2.36853L5.34241 9.3493L6.058 10.6041L17.9967 3.6233Z" fill="#13BEF9"/>
<path fill-rule="evenodd" clip-rule="evenodd" d="M17.9269 3.6233L18.6425 2.36853L30.5812 9.3493L29.8656 10.6041L17.9269 3.6233Z" fill="#13BEF9"/>
<path fill-rule="evenodd" clip-rule="evenodd" d="M32.6932 10.6218V9.17261H-0.0160522V10.6218H32.6932Z" fill="#13BEF9"/>
<path fill-rule="evenodd" clip-rule="evenodd" d="M19.7421 31.087V9.6145H21.1733V32.1297C20.7893 31.6879 20.3006 31.3697 19.7421 31.087Z" fill="#13BEF9"/>
<path fill-rule="evenodd" clip-rule="evenodd" d="M17.2985 30.7158V0.424561H18.7298V30.8926C18.3283 30.6982 17.3509 30.7158 17.2985 30.7158Z" fill="#13BEF9"/>
<path fill-rule="evenodd" clip-rule="evenodd" d="M3.73663 33.7379C1.99121 32.4301 0.839233 30.3447 0.839233 27.9765C0.839233 26.7217 1.17086 25.4846 1.78176 24.4066H13.9997C14.628 25.4846 14.9422 26.7217 14.9422 27.9765C14.9422 29.0722 14.8026 30.0972 14.3662 31.0162C13.4412 30.1149 12.0797 29.7261 10.7008 29.7261C8.2572 29.7261 6.1627 31.2637 5.62173 33.5611C5.42973 33.5435 5.30753 33.5258 5.11553 33.5258C4.64423 33.5435 4.19043 33.6141 3.73663 33.7379Z" fill="#13BEF9"/>
<path fill-rule="evenodd" clip-rule="evenodd" d="M9.74083 15.8883H6.04053V19.6526H9.74083V15.8883Z" fill="#13BEF9"/>
<path fill-rule="evenodd" clip-rule="evenodd" d="M5.56933 15.8883H1.86902V19.6526H5.56933V15.8883Z" fill="#13BEF9"/>
<path fill-rule="evenodd" clip-rule="evenodd" d="M5.56933 20.0768H1.86902V23.8411H5.56933V20.0768Z" fill="#13BEF9"/>
<path fill-rule="evenodd" clip-rule="evenodd" d="M9.74083 20.0768H6.04053V23.8411H9.74083V20.0768Z" fill="#13BEF9"/>
<path fill-rule="evenodd" clip-rule="evenodd" d="M13.895 20.0768H10.1947V23.8411H13.895V20.0768Z" fill="#13BEF9"/>
<path fill-rule="evenodd" clip-rule="evenodd" d="M13.895 13.8735H10.1947V17.6379H13.895V13.8735Z" fill="#13BEF9"/>
<path fill-rule="evenodd" clip-rule="evenodd" d="M6.2325 34.3034C6.7387 32.1296 8.6761 30.5037 10.9801 30.5037C12.4637 30.5037 13.7902 31.1753 14.6978 32.2356C15.4833 31.6878 16.4258 31.3697 17.4556 31.3697C20.1436 31.3697 22.3253 33.5788 22.3253 36.3004C22.3253 36.8659 22.2381 37.3961 22.0635 37.9086C22.657 38.7216 23.0235 39.7466 23.0235 40.8423C23.0235 43.5639 20.8417 45.773 18.1538 45.773C16.9669 45.773 15.8847 45.3489 15.0469 44.642C14.1568 45.8967 12.7081 46.7274 11.0674 46.7274C9.1823 46.7274 7.5416 45.6316 6.7213 44.0411C6.3896 44.1118 6.058 44.1471 5.70895 44.1471C3.02101 44.1471 0.821777 41.938 0.821777 39.2164C0.821777 36.4948 3.00356 34.2857 5.70895 34.2857C5.88355 34.268 6.058 34.268 6.2325 34.3034Z" fill="#13BEF9"/>
<path d="M43.964 17.8839C44.4667 17.2252 45.1513 16.6706 46.018 16.2199C46.8847 15.7692 47.864 15.5439 48.956 15.5439C50.204 15.5439 51.3393 15.8559 52.362 16.4799C53.402 17.0866 54.2167 17.9446 54.806 19.0539C55.3953 20.1632 55.69 21.4372 55.69 22.8759C55.69 24.3146 55.3953 25.6059 54.806 26.7499C54.2167 27.8766 53.402 28.7606 52.362 29.4019C51.3393 30.0259 50.204 30.3379 48.956 30.3379C47.864 30.3379 46.8933 30.1212 46.044 29.6879C45.1947 29.2372 44.5013 28.6826 43.964 28.0239V36.9159H41V15.7779H43.964V17.8839ZM52.674 22.8759C52.674 21.8879 52.466 21.0386 52.05 20.3279C51.6513 19.5999 51.114 19.0539 50.438 18.6899C49.7793 18.3086 49.0687 18.1179 48.306 18.1179C47.5607 18.1179 46.85 18.3086 46.174 18.6899C45.5153 19.0712 44.978 19.6259 44.562 20.3539C44.1633 21.0819 43.964 21.9399 43.964 22.9279C43.964 23.9159 44.1633 24.7826 44.562 25.5279C44.978 26.2559 45.5153 26.8106 46.174 27.1919C46.85 27.5732 47.5607 27.7639 48.306 27.7639C49.0687 27.7639 49.7793 27.5732 50.438 27.1919C51.114 26.7932 51.6513 26.2212 52.05 25.4759C52.466 24.7306 52.674 23.8639 52.674 22.8759Z" fill="white"/>
<path d="M64.8351 30.3379C63.4831 30.3379 62.2611 30.0346 61.1691 29.4279C60.0771 28.8039 59.2191 27.9372 58.5951 26.8279C57.9711 25.7012 57.6591 24.4012 57.6591 22.9279C57.6591 21.4719 57.9798 20.1806 58.6211 19.0539C59.2624 17.9272 60.1378 17.0606 61.2471 16.4539C62.3564 15.8472 63.5958 15.5439 64.9651 15.5439C66.3344 15.5439 67.5738 15.8472 68.6831 16.4539C69.7924 17.0606 70.6678 17.9272 71.3091 19.0539C71.9504 20.1806 72.2711 21.4719 72.2711 22.9279C72.2711 24.3839 71.9418 25.6752 71.2831 26.8019C70.6244 27.9286 69.7231 28.8039 68.5791 29.4279C67.4524 30.0346 66.2044 30.3379 64.8351 30.3379ZM64.8351 27.7639C65.5978 27.7639 66.3084 27.5819 66.9671 27.2179C67.6431 26.8539 68.1891 26.3079 68.6051 25.5799C69.0211 24.8519 69.2291 23.9679 69.2291 22.9279C69.2291 21.8879 69.0298 21.0126 68.6311 20.3019C68.2324 19.5739 67.7038 19.0279 67.0451 18.6639C66.3864 18.2999 65.6758 18.1179 64.9131 18.1179C64.1504 18.1179 63.4398 18.2999 62.7811 18.6639C62.1398 19.0279 61.6284 19.5739 61.2471 20.3019C60.8658 21.0126 60.6751 21.8879 60.6751 22.9279C60.6751 24.4706 61.0651 25.6666 61.8451 26.5159C62.6424 27.3479 63.6391 27.7639 64.8351 27.7639Z" fill="white"/>
<path d="M78.1652 17.8579C78.5985 17.1299 79.1705 16.5666 79.8812 16.1679C80.6092 15.7519 81.4672 15.5439 82.4552 15.5439V18.6119H81.7012C80.5398 18.6119 79.6558 18.9066 79.0492 19.4959C78.4598 20.0852 78.1652 21.1079 78.1652 22.5639V30.1039H75.2012V15.7779H78.1652V17.8579Z" fill="white"/>
<path d="M88.6377 18.1959V26.1259C88.6377 26.6632 88.759 27.0532 89.0017 27.2959C89.2617 27.5212 89.695 27.6339 90.3017 27.6339H92.1217V30.1039H89.7817C88.447 30.1039 87.4244 29.7919 86.7137 29.1679C86.003 28.5439 85.6477 27.5299 85.6477 26.1259V18.1959H83.9577V15.7779H85.6477V12.2159H88.6377V15.7779H92.1217V18.1959H88.6377Z" fill="white"/>
<path d="M93.8655 22.8759C93.8655 21.4372 94.16 20.1632 94.75 19.0539C95.356 17.9446 96.171 17.0866 97.194 16.4799C98.234 15.8559 99.378 15.5439 100.626 15.5439C101.752 15.5439 102.732 15.7692 103.564 16.2199C104.413 16.6532 105.089 17.1992 105.592 17.8579V15.7779H108.582V30.1039H105.592V27.9719C105.089 28.6479 104.404 29.2112 103.538 29.6619C102.671 30.1126 101.683 30.3379 100.574 30.3379C99.343 30.3379 98.216 30.0259 97.194 29.4019C96.171 28.7606 95.356 27.8766 94.75 26.7499C94.16 25.6059 93.8655 24.3146 93.8655 22.8759ZM105.592 22.9279C105.592 21.9399 105.384 21.0819 104.968 20.3539C104.569 19.6259 104.04 19.0712 103.382 18.6899C102.723 18.3086 102.012 18.1179 101.25 18.1179C100.487 18.1179 99.776 18.3086 99.118 18.6899C98.459 19.0539 97.922 19.5999 97.506 20.3279C97.107 21.0386 96.908 21.8879 96.908 22.8759C96.908 23.8639 97.107 24.7306 97.506 25.4759C97.922 26.2212 98.459 26.7932 99.118 27.1919C99.794 27.5732 100.504 27.7639 101.25 27.7639C102.012 27.7639 102.723 27.5732 103.382 27.1919C104.04 26.8106 104.569 26.2559 104.968 25.5279C105.384 24.7826 105.592 23.9159 105.592 22.9279Z" fill="white"/>
<path d="M113.983 13.88C113.445 13.88 112.995 13.698 112.631 13.334C112.267 12.97 112.085 12.5193 112.085 11.982C112.085 11.4447 112.267 10.994 112.631 10.63C112.995 10.266 113.445 10.084 113.983 10.084C114.503 10.084 114.945 10.266 115.309 10.63C115.673 10.994 115.855 11.4447 115.855 11.982C115.855 12.5193 115.673 12.97 115.309 13.334C114.945 13.698 114.503 13.88 113.983 13.88ZM115.439 15.778V30.104H112.475V15.778H115.439Z" fill="white"/>
<path d="M126.558 15.5439C127.685 15.5439 128.69 15.7779 129.574 16.2459C130.475 16.7139 131.177 17.4072 131.68 18.3259C132.183 19.2446 132.434 20.3539 132.434 21.6539V30.1039H129.496V22.0959C129.496 20.8132 129.175 19.8339 128.534 19.1579C127.893 18.4646 127.017 18.1179 125.908 18.1179C124.799 18.1179 123.915 18.4646 123.256 19.1579C122.615 19.8339 122.294 20.8132 122.294 22.0959V30.1039H119.33V15.7779H122.294V17.4159C122.779 16.8266 123.395 16.3672 124.14 16.0379C124.903 15.7086 125.709 15.5439 126.558 15.5439Z" fill="white"/>
<path d="M149.345 22.5899C149.345 23.1272 149.31 23.6126 149.241 24.0459H138.295C138.382 25.1899 138.806 26.1086 139.569 26.8019C140.332 27.4952 141.268 27.8419 142.377 27.8419C143.972 27.8419 145.098 27.1746 145.757 25.8399H148.955C148.522 27.1572 147.733 28.2406 146.589 29.0899C145.462 29.9219 144.058 30.3379 142.377 30.3379C141.008 30.3379 139.777 30.0346 138.685 29.4279C137.61 28.8039 136.761 27.9372 136.137 26.8279C135.53 25.7012 135.227 24.4012 135.227 22.9279C135.227 21.4546 135.522 20.1632 136.111 19.0539C136.718 17.9272 137.558 17.0606 138.633 16.4539C139.725 15.8472 140.973 15.5439 142.377 15.5439C143.729 15.5439 144.934 15.8386 145.991 16.4279C147.048 17.0172 147.872 17.8492 148.461 18.9239C149.05 19.9812 149.345 21.2032 149.345 22.5899ZM146.251 21.6539C146.234 20.5619 145.844 19.6866 145.081 19.0279C144.318 18.3692 143.374 18.0399 142.247 18.0399C141.224 18.0399 140.349 18.3692 139.621 19.0279C138.893 19.6692 138.46 20.5446 138.321 21.6539H146.251Z" fill="white"/>
<path d="M155.226 17.8579C155.659 17.1299 156.231 16.5666 156.942 16.1679C157.67 15.7519 158.528 15.5439 159.516 15.5439V18.6119H158.762C157.6 18.6119 156.716 18.9066 156.11 19.4959C155.52 20.0852 155.226 21.1079 155.226 22.5639V30.1039H152.262V15.7779H155.226V17.8579Z" fill="white"/>
<path d="M163.436 30.286C162.899 30.286 162.448 30.104 162.084 29.74C161.72 29.376 161.538 28.9253 161.538 28.388C161.538 27.8507 161.72 27.4 162.084 27.036C162.448 26.672 162.899 26.49 163.436 26.49C163.956 26.49 164.398 26.672 164.762 27.036C165.126 27.4 165.308 27.8507 165.308 28.388C165.308 28.9253 165.126 29.376 164.762 29.74C164.398 30.104 163.956 30.286 163.436 30.286Z" fill="white"/>
<path d="M170.02 13.88C169.482 13.88 169.032 13.698 168.668 13.334C168.304 12.97 168.122 12.5193 168.122 11.982C168.122 11.4447 168.304 10.994 168.668 10.63C169.032 10.266 169.482 10.084 170.02 10.084C170.54 10.084 170.982 10.266 171.346 10.63C171.71 10.994 171.892 11.4447 171.892 11.982C171.892 12.5193 171.71 12.97 171.346 13.334C170.982 13.698 170.54 13.88 170.02 13.88ZM171.476 15.778V30.104H168.512V15.778H171.476Z" fill="white"/>
<path d="M181.581 30.3379C180.229 30.3379 179.007 30.0346 177.915 29.4279C176.823 28.8039 175.965 27.9372 175.341 26.8279C174.717 25.7012 174.405 24.4012 174.405 22.9279C174.405 21.4719 174.726 20.1806 175.367 19.0539C176.009 17.9272 176.884 17.0606 177.993 16.4539C179.103 15.8472 180.342 15.5439 181.711 15.5439C183.081 15.5439 184.32 15.8472 185.429 16.4539C186.539 17.0606 187.414 17.9272 188.055 19.0539C188.697 20.1806 189.017 21.4719 189.017 22.9279C189.017 24.3839 188.688 25.6752 188.029 26.8019C187.371 27.9286 186.469 28.8039 185.325 29.4279C184.199 30.0346 182.951 30.3379 181.581 30.3379ZM181.581 27.7639C182.344 27.7639 183.055 27.5819 183.713 27.2179C184.389 26.8539 184.935 26.3079 185.351 25.5799C185.767 24.8519 185.975 23.9679 185.975 22.9279C185.975 21.8879 185.776 21.0126 185.377 20.3019C184.979 19.5739 184.45 19.0279 183.791 18.6639C183.133 18.2999 182.422 18.1179 181.659 18.1179C180.897 18.1179 180.186 18.2999 179.527 18.6639C178.886 19.0279 178.375 19.5739 177.993 20.3019C177.612 21.0126 177.421 21.8879 177.421 22.9279C177.421 24.4706 177.811 25.6666 178.591 26.5159C179.389 27.3479 180.385 27.7639 181.581 27.7639Z" fill="white"/>
</g>
<defs>
<clipPath id="clip0_10456_446354">
<rect width="190" height="47" fill="white"/>
</clipPath>
</defs>
</svg>
