<svg width="8" height="12" viewBox="0 0 8 12" fill="none" xmlns="http://www.w3.org/2000/svg">
<path d="M4.4734 0.727041C4.4734 0.399398 4.2078 0.133789 3.88015 0.133789C3.55251 0.133789 3.2869 0.399398 3.2869 0.727041H4.4734ZM3.88015 11.2737L3.47355 11.7057C3.70705 11.9255 4.07293 11.9199 4.29966 11.6931L3.88015 11.2737ZM6.93628 9.0563C7.16795 8.82464 7.16795 8.44901 6.93618 8.21734C6.70452 7.98568 6.32891 7.98568 6.09723 8.21734L6.93628 9.0563ZM1.48521 8.20479C1.24663 7.98024 0.871167 7.99161 0.646611 8.2302C0.422046 8.46878 0.433416 8.84431 0.672003 9.06886L1.48521 8.20479ZM3.2869 0.727041V11.2737H4.4734V0.727041H3.2869ZM6.09723 8.21734L3.46064 10.8542L4.29966 11.6931L6.93628 9.0563L6.09723 8.21734ZM4.28676 10.8417L1.48521 8.20479L0.672003 9.06886L3.47355 11.7057L4.28676 10.8417Z" fill="#D0D5DD"/>
</svg>
