<svg width="8" height="12" viewBox="0 0 8 12" fill="none" xmlns="http://www.w3.org/2000/svg">
<path d="M3.52627 11.2732C3.52627 11.6008 3.79185 11.8664 4.11952 11.8664C4.4472 11.8664 4.71278 11.6008 4.71278 11.2732H3.52627ZM4.11952 0.726556L4.5261 0.29456C4.29265 0.0747795 3.92672 0.0803264 3.7 0.307077L4.11952 0.726556ZM1.06338 2.94393C0.83172 3.17561 0.83172 3.55124 1.06348 3.7829C1.29515 4.01458 1.67078 4.01456 1.90244 3.78286L1.06338 2.94393ZM6.51448 3.79539C6.75307 4.01996 7.1285 4.00859 7.35304 3.77C7.57759 3.53141 7.56622 3.15595 7.32763 2.9314L6.51448 3.79539ZM4.71278 11.2732V0.726556H3.52627V11.2732H4.71278ZM1.90244 3.78286L4.53905 1.14602L3.7 0.307077L1.06338 2.94393L1.90244 3.78286ZM3.71295 1.15855L6.51448 3.79539L7.32763 2.9314L4.5261 0.29456L3.71295 1.15855Z" fill="#D0D5DD"/>
</svg>
