<svg width="46" height="46" viewBox="0 0 46 46" fill="none" xmlns="http://www.w3.org/2000/svg">
<rect x="3" y="3" width="40" height="40" rx="20" fill="#D1FADF"/>
<path d="M31.3333 22.2333V23C31.3323 24.797 30.7504 26.5456 29.6744 27.9849C28.5985 29.4241 27.0861 30.4771 25.3628 30.9866C23.6395 31.4961 21.7977 31.4349 20.112 30.8122C18.4264 30.1894 16.9872 29.0384 16.0091 27.5309C15.031 26.0234 14.5665 24.2401 14.6847 22.4469C14.803 20.6538 15.4977 18.9469 16.6652 17.5809C17.8328 16.2148 19.4106 15.2628 21.1635 14.8668C22.9163 14.4708 24.7502 14.6519 26.3917 15.3833M31.3333 16.3333L23 24.675L20.5 22.175" stroke="#039855" stroke-width="1.66667" stroke-linecap="round" stroke-linejoin="round"/>
<rect x="3" y="3" width="40" height="40" rx="20" stroke="#ECFDF3" stroke-width="6"/>
</svg>
