<?xml version="1.0" encoding="utf-8"?>
<!-- Generator: Adobe Illustrator 25.0.0, SVG Export Plug-In . SVG Version: 6.00 Build 0)  -->
<svg version="1.1" id="Layer_1" xmlns="http://www.w3.org/2000/svg" xmlns:xlink="http://www.w3.org/1999/xlink" x="0px" y="0px"
	 viewBox="0 0 940 300" style="enable-background:new 0 0 940 300;" xml:space="preserve">
<style type="text/css">
	.st0{fill-rule:evenodd;clip-rule:evenodd;fill:#13BEF9;}
	.st1{fill:#13BEF9;}
</style>
<g>
	<polygon class="st0" points="84.3,76.6 80.3,76.6 80.3,97.3 84.3,97.3 84.3,76.6 	"/>
	<polygon class="st0" points="101.5,76.6 97.5,76.6 97.5,97.3 101.5,97.3 101.5,76.6 	"/>
	<polygon class="st0" points="125,37.1 120.9,30 52.5,69.5 56.6,76.6 125,37.1 	"/>
	<polygon class="st0" points="124.6,37.1 128.7,30 197.1,69.5 193,76.6 124.6,37.1 	"/>
	<polygon class="st0" points="209.2,76.7 209.2,68.5 21.8,68.5 21.8,76.7 209.2,76.7 	"/>
	<path class="st0" d="M135,192.5V71h8.2v127.4C141,195.9,138.2,194.1,135,192.5L135,192.5z"/>
	<path class="st0" d="M121,190.4V19h8.2v172.4C126.9,190.3,121.3,190.4,121,190.4L121,190.4z"/>
	<path class="st0" d="M43.3,207.5c-10-7.4-16.6-19.2-16.6-32.6c0-7.1,1.9-14.1,5.4-20.2h70c3.6,6.1,5.4,13.1,5.4,20.2
		c0,6.2-0.8,12-3.3,17.2c-5.3-5.1-13.1-7.3-21-7.3c-14,0-26,8.7-29.1,21.7c-1.1-0.1-1.8-0.2-2.9-0.2
		C48.5,206.4,45.9,206.8,43.3,207.5L43.3,207.5z"/>
	<path class="st1" d="M219.8,115.5c-10.6,0-19.9,4.9-26.3,12.5v-11.4h-10.6v101.3h10.6v-42.7c6.3,7.8,15.7,12.8,26.3,12.8
		c19.8,0,36.1-16.9,36.1-36.4C255.9,131.8,239.6,115.5,219.8,115.5L219.8,115.5z M220.1,177.5c-13.8,0-26-12.2-26-26
		c0-14.1,12.2-25.6,26-25.6c14.1,0,24.7,11.5,24.7,25.6C244.8,165.3,234.2,177.5,220.1,177.5L220.1,177.5z"/>
	<path class="st1" d="M302.3,187.9c19.8,0,36.1-16.9,36.1-36.4c0-19.8-16.3-36.1-36.1-36.1c-19.8,0-36.1,16.3-36.1,36.1
		C266.2,171,282.5,187.9,302.3,187.9L302.3,187.9z M302.3,125.9c14.1,0,25,11.5,25,25.6c0,13.8-10.9,26-25,26c-14.1,0-25-12.2-25-26
		C277.3,137.5,288.2,125.9,302.3,125.9L302.3,125.9z"/>
	<path class="st1" d="M365.6,116.6H355v69.6h10.6v-38.5c0-14.2,11.2-21.8,23.6-21.8v-10.4c-9.6,0-17.9,4.1-23.6,10.6V116.6
		L365.6,116.6z"/>
	<polygon class="st1" points="433.8,126.2 433.8,116.6 418.1,116.6 418.1,89.2 407.5,89.2 407.5,116.6 397.1,116.6 397.1,126.2 
		407.5,126.2 407.5,186.2 418.1,186.2 418.1,126.2 433.8,126.2 	"/>
	<path class="st1" d="M478.6,187.9c10.6,0,19.9-5.1,26.3-12.8v11.4h10.6v-69.9h-10.6V128c-6.3-7.6-15.7-12.5-26.3-12.5
		c-19.8,0-36.1,16.3-36.1,36.1C442.5,171,458.8,187.9,478.6,187.9L478.6,187.9z M478.2,177.5c-14.1,0-24.7-12.2-24.7-26
		c0-14.1,10.6-25.6,24.7-25.6c13.8,0,26,11.5,26,25.6C504.2,165.3,492,177.5,478.2,177.5L478.2,177.5z"/>
	<path class="st1" d="M543.6,102.5c4,0,7.4-3.3,7.4-7.6c0-3.8-3.5-7.3-7.4-7.3c-4.3,0-7.6,3.5-7.6,7.3
		C536,99.2,539.3,102.5,543.6,102.5L543.6,102.5z M538.2,186.2h11.1v-69.6h-11.1V186.2L538.2,186.2z"/>
	<path class="st1" d="M571.6,186.2h10.6v-37c0-15.7,8.7-23.6,22.8-23.3c11.6,0,17.9,6.8,17.9,20.6v39.7h10.6v-39.7
		c0-22.2-8.5-31-28.5-31c-9.5,0-17.2,3.5-22.8,9.5v-8.4h-10.6V186.2L571.6,186.2z"/>
	<path class="st1" d="M720.7,151.5c0-19.8-16.3-36.1-36.1-36.1c-19.8,0-36.1,16.3-36.1,36.1c0,19.5,16.3,36.4,36.1,36.4
		c14.1,0,26.6-8.1,32.4-20.1h-13.1c-4.4,5.7-11.2,9.7-19.3,9.7c-12.3,0-22.3-9.5-24.5-21h60.6L720.7,151.5L720.7,151.5z
		 M684.6,125.9c12.2,0,22.2,8.9,24.5,20.4h-49.1C662.4,134.8,672.3,125.9,684.6,125.9L684.6,125.9z"/>
	<path class="st1" d="M747.9,116.6h-10.6v69.6h10.6v-38.5c0-14.2,11.2-21.8,23.6-21.8v-10.4c-9.7,0-17.9,4.1-23.6,10.6V116.6
		L747.9,116.6z"/>
	<path class="st1" d="M787.5,187c4.7,0,8.7-4,8.7-8.9c0-4.7-4-8.7-8.7-8.7c-4.9,0-8.9,4-8.9,8.7C778.6,183,782.6,187,787.5,187
		L787.5,187z"/>
	<path class="st1" d="M823.5,102.5c4,0,7.4-3.3,7.4-7.6c0-3.8-3.5-7.3-7.4-7.3c-4.3,0-7.6,3.5-7.6,7.3
		C816,99.2,819.3,102.5,823.5,102.5L823.5,102.5z M818.2,186.2h11.1v-69.6h-11.1V186.2L818.2,186.2z"/>
	<path class="st1" d="M882.1,187.9c19.8,0,36.1-16.9,36.1-36.4c0-19.8-16.3-36.1-36.1-36.1c-19.8,0-36.1,16.3-36.1,36.1
		C846,171,862.3,187.9,882.1,187.9L882.1,187.9z M882.1,125.9c14.1,0,25,11.5,25,25.6c0,13.8-10.9,26-25,26c-14.1,0-25-12.2-25-26
		C857.1,137.5,868,125.9,882.1,125.9L882.1,125.9z"/>
	<polygon class="st0" points="77.7,106.5 56.5,106.5 56.5,127.8 77.7,127.8 77.7,106.5 	"/>
	<polygon class="st0" points="53.8,106.5 32.6,106.5 32.6,127.8 53.8,127.8 53.8,106.5 	"/>
	<polygon class="st0" points="53.8,130.2 32.6,130.2 32.6,151.5 53.8,151.5 53.8,130.2 	"/>
	<polygon class="st0" points="77.7,130.2 56.5,130.2 56.5,151.5 77.7,151.5 77.7,130.2 	"/>
	<polygon class="st0" points="101.5,130.2 80.3,130.2 80.3,151.5 101.5,151.5 101.5,130.2 	"/>
	<polygon class="st0" points="101.5,95.1 80.3,95.1 80.3,116.4 101.5,116.4 101.5,95.1 	"/>
	<path class="st0" d="M57.6,210.7c2.9-12.3,14-21.5,27.2-21.5c8.5,0,16.1,3.8,21.3,9.8c4.5-3.1,9.9-4.9,15.8-4.9
		c15.4,0,27.9,12.5,27.9,27.9c0,3.2-0.5,6.2-1.5,9.1c3.4,4.6,5.5,10.4,5.5,16.6c0,15.4-12.5,27.9-27.9,27.9c-6.8,0-13-2.4-17.8-6.4
		c-5.1,7.1-13.4,11.8-22.8,11.8c-10.8,0-20.2-6.2-24.9-15.2c-1.9,0.4-3.8,0.6-5.8,0.6c-15.4,0-28-12.5-28-27.9s12.5-27.9,28-27.9
		C55.6,210.5,56.6,210.5,57.6,210.7L57.6,210.7z"/>
</g>
</svg>
