<svg width="36" height="40" viewBox="0 0 36 40" fill="none" xmlns="http://www.w3.org/2000/svg">
<path d="M14.3817 5.28003C22.1592 5.28003 28.4649 11.5865 28.4649 19.365C28.4649 27.1435 22.1592 33.45 14.3817 33.45C6.60065 33.4535 0.294922 27.1435 0.294922 19.365C0.294922 11.5865 6.60065 5.28003 14.3817 5.28003Z" fill="#E0F2FE"/>
<path d="M9.32758 23.1544V23.0281C9.32758 21.9669 9.32758 21.4364 9.53409 21.0311C9.71574 20.6746 10.0056 20.3847 10.3621 20.2031C10.7674 19.9966 11.298 19.9966 12.3591 19.9966H16.4011C17.4622 19.9966 17.9928 19.9966 18.3981 20.2031C18.7546 20.3847 19.0444 20.6746 19.2261 21.0311C19.4326 21.4364 19.4326 21.9669 19.4326 23.0281V23.1544M9.32758 23.1544C8.62997 23.1544 8.06445 23.7199 8.06445 24.4175C8.06445 25.1151 8.62997 25.6806 9.32758 25.6806C10.0252 25.6806 10.5907 25.1151 10.5907 24.4175C10.5907 23.7199 10.0252 23.1544 9.32758 23.1544ZM19.4326 23.1544C18.735 23.1544 18.1695 23.7199 18.1695 24.4175C18.1695 25.1151 18.735 25.6806 19.4326 25.6806C20.1302 25.6806 20.6957 25.1151 20.6957 24.4175C20.6957 23.7199 20.1302 23.1544 19.4326 23.1544ZM14.3801 23.1544C13.6825 23.1544 13.117 23.7199 13.117 24.4175C13.117 25.1151 13.6825 25.6806 14.3801 25.6806C15.0777 25.6806 15.6432 25.1151 15.6432 24.4175C15.6432 23.7199 15.0777 23.1544 14.3801 23.1544ZM14.3801 23.1544V16.8388M10.5907 16.8388H18.1695C18.758 16.8388 19.0523 16.8388 19.2844 16.7426C19.5939 16.6144 19.8398 16.3685 19.968 16.059C20.0641 15.8269 20.0641 15.5326 20.0641 14.9441C20.0641 14.3555 20.0641 14.0613 19.968 13.8291C19.8398 13.5196 19.5939 13.2737 19.2844 13.1455C19.0523 13.0494 18.758 13.0494 18.1695 13.0494H10.5907C10.0022 13.0494 9.70789 13.0494 9.47576 13.1455C9.16626 13.2737 8.92036 13.5196 8.79217 13.8291C8.69602 14.0613 8.69602 14.3555 8.69602 14.9441C8.69602 15.5326 8.69602 15.8269 8.79217 16.059C8.92036 16.3685 9.16626 16.6144 9.47576 16.7426C9.70789 16.8388 10.0022 16.8388 10.5907 16.8388Z" stroke="#0086C9" stroke-width="1.15" stroke-linecap="round" stroke-linejoin="round"/>
</svg>
