<svg width="auto" height="auto" viewBox="0 0 24 24" fill="none" xmlns="http://www.w3.org/2000/svg"> <path d="M11.6992 13.533L6.96646 16.1623M6.96646 16.1623L2.2337 13.533M6.96646 16.1623L6.96647 21.4519M11.9776 18.4221V13.9026M11.9776 18.4221C11.9776 18.6129 11.9776 18.7083 11.9495 18.7934C11.9246 18.8686 11.884 18.9377 11.8303 18.996C11.7696 19.0619 11.6862 19.1082 11.5194 19.2009L7.39912 21.4899C7.24121 21.5777 7.16226 21.6215 7.07864 21.6387C7.00464 21.6539 6.92831 21.6539 6.85431 21.6387C6.77069 21.6215 6.69174 21.5777 6.53383 21.4899L2.41355 19.2009C2.24678 19.1082 2.16339 19.0619 2.10267 18.996C2.04895 18.9377 2.0083 18.8686 1.98343 18.7934C1.95532 18.7083 1.95532 18.6129 1.95532 18.4221V13.9026C1.95532 13.7118 1.95532 13.6164 1.98343 13.5313C2.0083 13.4561 2.04895 13.387 2.10267 13.3287C2.16339 13.2628 2.24677 13.2165 2.41355 13.1238L6.53383 10.8348C6.69174 10.747 6.77069 10.7032 6.85431 10.686C6.92831 10.6708 7.00464 10.6708 7.07864 10.686C7.16226 10.7032 7.24121 10.747 7.39912 10.8348L11.5194 13.1238C11.6862 13.2165 11.7696 13.2628 11.8303 13.3287C11.884 13.387 11.9246 13.4561 11.9495 13.5313C11.9776 13.6164 11.9776 13.7118 11.9776 13.9026M11.9776 18.4221C11.9776 18.6129 11.9777 18.7083 12.0058 18.7934C12.0306 18.8686 12.0713 18.9377 12.125 18.996C12.1857 19.0619 12.2691 19.1082 12.4359 19.2009L16.5562 21.4899C16.7141 21.5777 16.793 21.6215 16.8766 21.6387C16.9506 21.6539 17.027 21.6539 17.101 21.6387C17.1846 21.6215 17.2635 21.5777 17.4215 21.4899L21.5417 19.2009C21.7085 19.1082 21.7919 19.0619 21.8526 18.996C21.9063 18.9377 21.947 18.8686 21.9719 18.7934C22 18.7083 22 18.6129 22 18.4221V13.9026C22 13.7118 22 13.6164 21.9719 13.5313C21.947 13.4561 21.9063 13.387 21.8526 13.3287C21.7919 13.2628 21.7085 13.2165 21.5417 13.1238L17.4215 10.8348C17.2635 10.747 17.1846 10.7032 17.101 10.686C17.027 10.6708 16.9506 10.6708 16.8766 10.686C16.793 10.7032 16.7141 10.747 16.5562 10.8348L12.4359 13.1238C12.2691 13.2165 12.1857 13.2628 12.125 13.3287C12.0713 13.387 12.0306 13.4561 12.0058 13.5313C11.9777 13.6164 11.9776 13.7118 11.9776 13.9026M16.7328 5.20832L12 7.83763M12 7.83763L7.26727 5.20832M12 7.83763L12 13.1272M21.7215 13.533L16.9888 16.1623M16.9888 16.1623L12.256 13.533M16.9888 16.1623L16.9888 21.4519M17.0112 10.0974V5.57786C17.0112 5.38708 17.0112 5.29169 16.9831 5.20661C16.9582 5.13135 16.9176 5.06226 16.8638 5.00397C16.8031 4.93808 16.7197 4.89175 16.553 4.7991L12.4327 2.51006C12.2748 2.42233 12.1958 2.37847 12.1122 2.36127C12.0382 2.34605 11.9619 2.34605 11.8879 2.36127C11.8043 2.37847 11.7253 2.42233 11.5674 2.51006L7.44712 4.7991C7.28034 4.89175 7.19696 4.93808 7.13624 5.00397C7.08252 5.06226 7.04187 5.13135 7.017 5.20661C6.98889 5.29169 6.98889 5.38708 6.98889 5.57786V10.0974C6.98889 10.2882 6.98889 10.3836 7.017 10.4687C7.04187 10.5439 7.08252 10.613 7.13624 10.6713C7.19696 10.7372 7.28034 10.7835 7.44712 10.8762L11.5674 13.1652C11.7253 13.253 11.8043 13.2968 11.8879 13.314C11.9619 13.3292 12.0382 13.3292 12.1122 13.314C12.1958 13.2968 12.2748 13.253 12.4327 13.1652L16.553 10.8762C16.7197 10.7835 16.8031 10.7372 16.8638 10.6713C16.9176 10.613 16.9582 10.5439 16.9831 10.4687C17.0112 10.3836 17.0112 10.2882 17.0112 10.0974Z" stroke="currentColor" stroke-width="2" stroke-linecap="round" stroke-linejoin="round"/> </svg>