<svg width="36" height="40" viewBox="0 0 36 40" fill="none" xmlns="http://www.w3.org/2000/svg">
<path d="M14.3817 5.28009C22.1592 5.28009 28.4649 11.5864 28.4649 19.3646C28.4649 27.1428 22.1592 33.4491 14.3817 33.4491C6.60065 33.4526 0.294922 27.1428 0.294922 19.3646C0.294922 11.5864 6.60065 5.28009 14.3817 5.28009Z" fill="#E0F2FE"/>
<path d="M18.059 25.043H10.414C9.9746 25.043 9.56654 24.8721 9.25613 24.5617C8.94573 24.2513 8.77832 23.8397 8.77832 23.4037V15.7615C8.77832 15.3255 8.94922 14.9139 9.25962 14.6035C9.57002 14.293 9.98157 14.1221 10.4175 14.1221H14.24C14.54 14.1221 14.7876 14.3663 14.7876 14.6697C14.7876 14.9732 14.5435 15.2174 14.24 15.2174H10.4175C10.271 15.2174 10.135 15.2732 10.0304 15.3778C9.92577 15.4824 9.86996 15.6185 9.86996 15.765V23.4072C9.86996 23.5537 9.92577 23.6897 10.0304 23.7943C10.135 23.899 10.271 23.9548 10.4175 23.9548H18.059C18.2055 23.9548 18.3415 23.899 18.4462 23.7943C18.5508 23.6897 18.6066 23.5537 18.6066 23.4072V19.5843C18.6066 19.2844 18.8507 19.0367 19.1542 19.0367C19.4576 19.0367 19.7017 19.2809 19.7017 19.5843V23.4072C19.7017 23.8432 19.5308 24.2547 19.2204 24.5652C18.91 24.8756 18.4985 25.0465 18.0625 25.0465L18.059 25.043ZM12.6008 21.7678C12.4578 21.7678 12.3183 21.712 12.2137 21.6074C12.0777 21.4713 12.0254 21.276 12.0707 21.0876L12.6148 18.9042C12.6392 18.8065 12.688 18.7193 12.7578 18.6495L17.9439 13.4629C18.5892 12.8176 19.7087 12.8176 20.3539 13.4629C20.6748 13.7838 20.8527 14.2128 20.8527 14.6663C20.8527 15.1197 20.6748 15.5487 20.3539 15.8696L15.1678 21.0563C15.098 21.126 15.0108 21.1748 14.9132 21.1993L12.7299 21.7469C12.6845 21.7573 12.6427 21.7643 12.5973 21.7643L12.6008 21.7678ZM13.6401 19.3157L13.3507 20.4703L14.5051 20.1808L19.5832 15.1023C19.6983 14.9872 19.761 14.8337 19.761 14.6697C19.761 14.5058 19.6983 14.3523 19.5832 14.2372C19.353 14.007 18.9484 14.007 18.7182 14.2372L13.6401 19.3157Z" fill="#0086C9"/>
</svg>
