<svg width="auto" height="auto" viewBox="0 0 24 24" fill="none" xmlns="http://www.w3.org/2000/svg"> <path d="M17 20H16.8C15.1198 20 14.2798 20 13.638 19.673C13.0735 19.3854 12.6146 18.9265 12.327 18.362C12 17.7202 12 16.8802 12 15.2V8.8C12 7.11984 12 6.27976 12.327 5.63803C12.6146 5.07354 13.0735 4.6146 13.638 4.32698C14.2798 4 15.1198 4 16.8 4H17M17 20C17 21.1046 17.8954 22 19 22C20.1046 22 21 21.1046 21 20C21 18.8954 20.1046 18 19 18C17.8954 18 17 18.8954 17 20ZM17 4C17 5.10457 17.8954 6 19 6C20.1046 6 21 5.10457 21 4C21 2.89543 20.1046 2 19 2C17.8954 2 17 2.89543 17 4ZM7 12L17 12M7 12C7 13.1046 6.10457 14 5 14C3.89543 14 3 13.1046 3 12C3 10.8954 3.89543 10 5 10C6.10457 10 7 10.8954 7 12ZM17 12C17 13.1046 17.8954 14 19 14C20.1046 14 21 13.1046 21 12C21 10.8954 20.1046 10 19 10C17.8954 10 17 10.8954 17 12Z" stroke="currentColor" stroke-width="2" stroke-linecap="round" stroke-linejoin="round"/> </svg>