<svg width="100" height="100" viewBox="0 0 100 100" fill="none" xmlns="http://www.w3.org/2000/svg">
<path d="M16.6667 75.0002V74.1668C16.6667 67.1662 16.6667 63.6658 18.0291 60.992C19.2275 58.6399 21.1398 56.7277 23.4918 55.5293C26.1657 54.1668 29.666 54.1668 36.6667 54.1668H63.3333C70.334 54.1668 73.8343 54.1668 76.5082 55.5293C78.8602 56.7277 80.7725 58.6399 81.9709 60.992C83.3333 63.6658 83.3333 67.1662 83.3333 74.1668V75.0002M16.6667 75.0002C12.0643 75.0002 8.33333 78.7311 8.33333 83.3335C8.33333 87.9359 12.0643 91.6668 16.6667 91.6668C21.269 91.6668 25 87.9359 25 83.3335C25 78.7311 21.269 75.0002 16.6667 75.0002ZM83.3333 75.0002C78.731 75.0002 75 78.7311 75 83.3335C75 87.9359 78.731 91.6668 83.3333 91.6668C87.9357 91.6668 91.6667 87.9359 91.6667 83.3335C91.6667 78.7311 87.9357 75.0002 83.3333 75.0002ZM50 75.0002C45.3976 75.0002 41.6667 78.7311 41.6667 83.3335C41.6667 87.9359 45.3976 91.6668 50 91.6668C54.6024 91.6668 58.3333 87.9359 58.3333 83.3335C58.3333 78.7311 54.6024 75.0002 50 75.0002ZM50 75.0002V33.3335M25 33.3335H75C78.8828 33.3335 80.8243 33.3335 82.3557 32.6992C84.3976 31.8534 86.0199 30.2311 86.8657 28.1892C87.5 26.6578 87.5 24.7163 87.5 20.8335C87.5 16.9507 87.5 15.0092 86.8657 13.4778C86.0199 11.4359 84.3976 9.81362 82.3557 8.96783C80.8243 8.3335 78.8828 8.3335 75 8.3335H25C21.1171 8.3335 19.1757 8.3335 17.6443 8.96783C15.6024 9.81362 13.9801 11.4359 13.1343 13.4778C12.5 15.0092 12.5 16.9507 12.5 20.8335C12.5 24.7163 12.5 26.6578 13.1343 28.1892C13.9801 30.2311 15.6024 31.8534 17.6443 32.6992C19.1757 33.3335 21.1172 33.3335 25 33.3335Z" stroke="black" stroke-width="8.2" stroke-linecap="round" stroke-linejoin="round"/>
</svg>
