<svg width="100" height="100" viewBox="0 0 100 100" fill="none" xmlns="http://www.w3.org/2000/svg">
<path d="M70.8333 83.3335H70C62.9993 83.3335 59.499 83.3335 56.8251 81.9711C54.4731 80.7727 52.5608 78.8604 51.3624 76.5084C50 73.8345 50 70.3342 50 63.3335V36.6668C50 29.6662 50 26.1658 51.3624 23.492C52.5608 21.1399 54.4731 19.2277 56.8251 18.0292C59.499 16.6668 62.9993 16.6668 70 16.6668H70.8333M70.8333 83.3335C70.8333 87.9359 74.5643 91.6668 79.1667 91.6668C83.769 91.6668 87.5 87.9359 87.5 83.3335C87.5 78.7311 83.769 75.0002 79.1667 75.0002C74.5643 75.0002 70.8333 78.7311 70.8333 83.3335ZM70.8333 16.6668C70.8333 21.2692 74.5643 25.0002 79.1667 25.0002C83.769 25.0002 87.5 21.2692 87.5 16.6668C87.5 12.0645 83.769 8.3335 79.1667 8.3335C74.5643 8.3335 70.8333 12.0645 70.8333 16.6668ZM29.1667 50.0002L70.8333 50.0002M29.1667 50.0002C29.1667 54.6025 25.4357 58.3335 20.8333 58.3335C16.231 58.3335 12.5 54.6025 12.5 50.0002C12.5 45.3978 16.231 41.6668 20.8333 41.6668C25.4357 41.6668 29.1667 45.3978 29.1667 50.0002ZM70.8333 50.0002C70.8333 54.6025 74.5643 58.3335 79.1667 58.3335C83.769 58.3335 87.5 54.6025 87.5 50.0002C87.5 45.3978 83.769 41.6668 79.1667 41.6668C74.5643 41.6668 70.8333 45.3978 70.8333 50.0002Z" stroke="black" stroke-width="8.2" stroke-linecap="round" stroke-linejoin="round"/>
</svg>
