<svg width="60" height="60" viewBox="0 0 60 60" fill="none" xmlns="http://www.w3.org/2000/svg">
<g clip-path="url(#clip0_3_63)">
<path d="M10.0931 24.7167C10.0916 24.6319 10.0898 24.5473 10.0898 24.4624C10.0898 16.3646 16.6544 9.80001 24.7522 9.80001C31.7306 9.80001 37.5698 14.6753 39.051 21.2057C40.4323 20.4325 42.0233 19.9898 43.7187 19.9898C49.0089 19.9898 53.2975 24.2783 53.2975 29.5686C53.2975 29.7848 53.2878 29.9987 53.2736 30.2113C57.201 31.6693 60 35.4496 60 39.8843C60 45.5814 55.3816 50.2 49.6843 50.2H12.8946C5.77316 50.1998 0 44.4267 0 37.3052C0 31.1458 4.31877 25.9961 10.0931 24.7167Z" fill="#0077BB"/>
<g clip-path="url(#clip1_3_63)">
<path d="M45.5486 31.3321C45.4597 31.2558 44.6618 30.6292 42.9481 30.6292C42.505 30.6292 42.0468 30.6748 41.6037 30.7518C41.2785 28.4127 39.4021 27.2812 39.3284 27.2207L38.8702 26.9454L38.5746 27.3889C38.2052 27.9849 37.9248 28.658 37.7622 29.3459C37.4521 30.6762 37.6436 31.9296 38.2941 32.9997C37.5107 33.458 36.2401 33.565 35.974 33.5807H14.9921C14.4457 33.5807 14.0019 34.0391 14.0019 34.6052C13.9723 36.5008 14.2824 38.3965 14.9177 40.1852C15.6419 42.1422 16.7203 43.5945 18.1094 44.4813C19.6757 45.4751 22.2321 46.0405 25.1131 46.0405C26.4133 46.0405 27.7136 45.9178 28.9994 45.6733C30.7875 45.3368 32.5012 44.6952 34.0826 43.7627C35.3828 42.9827 36.5501 41.9897 37.5404 40.8276C39.21 38.8863 40.2001 36.7154 40.9243 34.789H41.2199C43.0377 34.789 44.1602 34.0398 44.781 33.3982C45.1944 33.0004 45.5052 32.5113 45.7264 31.9609L45.8594 31.5631L45.5493 31.3336L45.5486 31.3321Z" fill="white"/>
<path d="M16.9416 32.9526H19.7489C19.8818 32.9526 20.0004 32.8456 20.0004 32.6923V30.0937C20.0004 29.9561 19.897 29.8343 19.7489 29.8343H16.9416C16.8086 29.8343 16.6901 29.9412 16.6901 30.0937V32.6923C16.7046 32.8449 16.8086 32.9526 16.9416 32.9526Z" fill="white"/>
<path d="M20.814 32.9526H23.6212C23.7542 32.9526 23.8721 32.8456 23.8721 32.6923V30.0937C23.8721 29.9561 23.7687 29.8343 23.6212 29.8343H20.814C20.681 29.8343 20.5625 29.9412 20.5625 30.0937V32.6923C20.577 32.8449 20.681 32.9526 20.814 32.9526Z" fill="white"/>
<path d="M24.7593 32.9526H27.5666C27.6996 32.9526 27.818 32.8456 27.818 32.6923V30.0937C27.818 29.9561 27.7147 29.8343 27.5666 29.8343H24.7593C24.6263 29.8343 24.5078 29.9412 24.5078 30.0937V32.6923C24.5078 32.8449 24.6112 32.9526 24.7593 32.9526Z" fill="white"/>
<path d="M28.6447 32.9526H31.452C31.585 32.9526 31.7035 32.8456 31.7035 32.6923V30.0937C31.7035 29.9561 31.6001 29.8343 31.452 29.8343H28.6447C28.5117 29.8343 28.3932 29.9412 28.3932 30.0937V32.6923C28.3932 32.8449 28.5117 32.9526 28.6447 32.9526Z" fill="white"/>
<path d="M20.814 29.2375H23.6212C23.7542 29.2375 23.8721 29.1148 23.8721 28.9773V26.3786C23.8721 26.241 23.7687 26.1184 23.6212 26.1184H20.814C20.681 26.1184 20.5625 26.2254 20.5625 26.3786V28.9773C20.577 29.1148 20.681 29.2375 20.814 29.2375Z" fill="white"/>
<path d="M24.7593 29.2375H27.5666C27.6996 29.2375 27.818 29.1148 27.818 28.9773V26.3786C27.818 26.241 27.7147 26.1184 27.5666 26.1184H24.7593C24.6263 26.1184 24.5078 26.2254 24.5078 26.3786V28.9773C24.5078 29.1148 24.6112 29.2375 24.7593 29.2375Z" fill="white"/>
<path d="M28.6447 29.2375H31.452C31.585 29.2375 31.7035 29.1148 31.7035 28.9773V26.3786C31.7035 26.241 31.585 26.1184 31.452 26.1184H28.6447C28.5117 26.1184 28.3932 26.2254 28.3932 26.3786V28.9773C28.3932 29.1148 28.5117 29.2375 28.6447 29.2375Z" fill="white"/>
<path d="M28.6447 25.5075H31.452C31.585 25.5075 31.7035 25.4006 31.7035 25.2473V22.6487C31.7035 22.5111 31.585 22.3885 31.452 22.3885H28.6447C28.5117 22.3885 28.3932 22.4954 28.3932 22.6487V25.2473C28.3932 25.3849 28.5117 25.5075 28.6447 25.5075Z" fill="white"/>
<path d="M32.5623 32.9526H35.3695C35.5025 32.9526 35.6211 32.8456 35.6211 32.6923V30.0937C35.6211 29.9561 35.5177 29.8343 35.3695 29.8343H32.5623C32.4293 29.8343 32.3108 29.9412 32.3108 30.0937V32.6923C32.3252 32.8449 32.4293 32.9526 32.5623 32.9526Z" fill="white"/>
</g>
</g>
<defs>
<clipPath id="clip0_3_63">
<rect width="60" height="60" fill="white"/>
</clipPath>
<clipPath id="clip1_3_63">
<rect width="32" height="36" fill="white" transform="translate(14 17)"/>
</clipPath>
</defs>
</svg>
