<svg width="auto" height="auto" viewBox="0 0 100 100" fill="none" xmlns="http://www.w3.org/2000/svg"> <path d="M58.3333 9.45654V26.6671C58.3333 29.0007 58.3333 30.1675 58.7875 31.0588C59.1869 31.8428 59.8244 32.4802 60.6084 32.8797C61.4997 33.3338 62.6664 33.3338 65 33.3338H82.2106M37.5 66.6668L45.8333 75.0002L64.5833 56.2502M58.3333 8.3335H36.6667C29.666 8.3335 26.1657 8.3335 23.4918 9.69591C21.1397 10.8943 19.2275 12.8066 18.0291 15.1586C16.6667 17.8325 16.6667 21.3328 16.6667 28.3335V71.6668C16.6667 78.6675 16.6667 82.1678 18.0291 84.8417C19.2275 87.1937 21.1397 89.106 23.4918 90.3044C26.1657 91.6668 29.666 91.6668 36.6667 91.6668H63.3333C70.334 91.6668 73.8343 91.6668 76.5082 90.3044C78.8602 89.106 80.7725 87.1937 81.9709 84.8417C83.3333 82.1678 83.3333 78.6675 83.3333 71.6668V33.3335L58.3333 8.3335Z" stroke="currentColor" stroke-width="8.2" stroke-linecap="round" stroke-linejoin="round"/> </svg>