<svg xmlns="http://www.w3.org/2000/svg" width="auto" height="auto" viewBox="0 0 24 24" fill="none" stroke="currentColor" stroke-width="2" stroke-linecap="round" stroke-linejoin="round" class="feather feather-book"><path d="M4 19.5A2.5 2.5 0 0 1 6.5 17H20"></path><path d="M6.5 2H20v20H6.5A2.5 2.5 0 0 1 4 19.5v-15A2.5 2.5 0 0 1 6.5 2z"></path></svg><svg width="auto" height="auto" viewBox="0 0 100 100" fill="none" xmlns="http://www.w3.org/2000/svg"> <path d="M58.3333 9.45654V26.6671C58.3333 29.0007 58.3333 30.1675 58.7875 31.0588C59.1869 31.8428 59.8244 32.4802 60.6084 32.8797C61.4997 33.3338 62.6665 33.3338 65 33.3338H82.2106M58.3333 72.9168L68.75 62.5002L58.3333 52.0835M41.6667 52.0835L31.25 62.5002L41.6667 72.9168M83.3333 41.6178V71.6668C83.3333 78.6675 83.3333 82.1678 81.9709 84.8417C80.7725 87.1937 78.8602 89.106 76.5082 90.3044C73.8343 91.6668 70.334 91.6668 63.3333 91.6668H36.6667C29.666 91.6668 26.1657 91.6668 23.4918 90.3044C21.1398 89.106 19.2275 87.1937 18.0291 84.8417C16.6667 82.1678 16.6667 78.6675 16.6667 71.6668V28.3335C16.6667 21.3328 16.6667 17.8325 18.0291 15.1586C19.2275 12.8066 21.1398 10.8943 23.4918 9.69591C26.1657 8.3335 29.666 8.3335 36.6667 8.3335H50.0491C53.1064 8.3335 54.6351 8.3335 56.0737 8.67887C57.3492 8.98508 58.5685 9.49014 59.6869 10.1755C60.9484 10.9485 62.0293 12.0295 64.1912 14.1914L77.4755 27.4756C79.6374 29.6375 80.7183 30.7185 81.4913 31.9799C82.1767 33.0983 82.6818 34.3176 82.988 35.5931C83.3333 37.0317 83.3333 38.5604 83.3333 41.6178Z" stroke="currentColor" stroke-width="8.2" stroke-linecap="round" stroke-linejoin="round"/> </svg>