<svg width="auto" height="auto" viewBox="0 0 100 100" fill="none" xmlns="http://www.w3.org/2000/svg">
<path d="M37.5 25.0002V43.7552C37.5 46.0507 37.5 47.1985 37.2138 48.2621C36.9603 49.2044 36.5432 50.095 35.9816 50.893C35.3477 51.7938 34.4659 52.5286 32.7025 53.9981L17.2975 66.8356C15.5341 68.3051 14.6523 69.0399 14.0184 69.9406C13.4568 70.7387 13.0397 71.6292 12.7862 72.5716C12.5 73.6352 12.5 74.783 12.5 77.0785V78.3335C12.5 83.0006 12.5 85.3342 13.4083 87.1168C14.2072 88.6848 15.4821 89.9596 17.0501 90.7586C18.8327 91.6668 21.1662 91.6668 25.8333 91.6668H74.1667C78.8338 91.6668 81.1673 91.6668 82.9499 90.7586C84.5179 89.9596 85.7928 88.6848 86.5917 87.1168C87.5 85.3342 87.5 83.0006 87.5 78.3335V77.0785C87.5 74.783 87.5 73.6352 87.2138 72.5716C86.9603 71.6292 86.5432 70.7387 85.9816 69.9406C85.3477 69.0399 84.4659 68.3051 82.7025 66.8356L67.2975 53.9981C65.5341 52.5286 64.6523 51.7938 64.0184 50.893C63.4568 50.095 63.0397 49.2044 62.7861 48.2621C62.5 47.1985 62.5 46.0507 62.5 43.7552V25.0002M34.5833 25.0002H65.4167C66.5834 25.0002 67.1668 25.0002 67.6125 24.7731C68.0045 24.5734 68.3232 24.2546 68.5229 23.8626C68.75 23.417 68.75 22.8336 68.75 21.6668V11.6668C68.75 10.5001 68.75 9.91667 68.5229 9.47102C68.3232 9.07901 68.0045 8.7603 67.6125 8.56057C67.1668 8.3335 66.5834 8.3335 65.4167 8.3335H34.5833C33.4166 8.3335 32.8332 8.3335 32.3875 8.56057C31.9955 8.7603 31.6768 9.07901 31.4771 9.47102C31.25 9.91667 31.25 10.5001 31.25 11.6668V21.6668C31.25 22.8336 31.25 23.417 31.4771 23.8626C31.6768 24.2546 31.9955 24.5734 32.3875 24.7731C32.8332 25.0002 33.4166 25.0002 34.5833 25.0002ZM22.9167 70.8335H77.0833C79.0194 70.8335 79.9874 70.8335 80.7924 70.9936C84.0982 71.6512 86.6823 74.2353 87.3399 77.5411C87.5 78.3461 87.5 79.3141 87.5 81.2502C87.5 83.1862 87.5 84.1543 87.3399 84.9593C86.6823 88.265 84.0982 90.8492 80.7924 91.5067C79.9874 91.6668 79.0194 91.6668 77.0833 91.6668H22.9167C20.9806 91.6668 20.0126 91.6668 19.2076 91.5067C15.9018 90.8492 13.3177 88.265 12.6601 84.9593C12.5 84.1543 12.5 83.1862 12.5 81.2502C12.5 79.3141 12.5 78.3461 12.6601 77.5411C13.3177 74.2353 15.9018 71.6512 19.2076 70.9936C20.0126 70.8335 20.9806 70.8335 22.9167 70.8335Z" stroke="currentColor" stroke-width="8.2" stroke-linecap="round" stroke-linejoin="round"/>
</svg>
