<svg width="36" height="40" viewBox="0 0 36 40" fill="none" xmlns="http://www.w3.org/2000/svg">
<path d="M27.3629 17.9077L15.5368 5.65985C14.6877 4.78038 13.3115 4.78038 12.4624 5.65985L10.0975 8.10918L13.3098 11.4363C13.5655 11.327 13.8452 11.2663 14.1389 11.2663C15.3414 11.2663 16.3162 12.2758 16.3162 13.5213C16.3162 13.8255 16.2575 14.1151 16.152 14.38L19.227 17.5648C19.4827 17.4555 19.7624 17.3948 20.0561 17.3948C21.2586 17.3948 22.2334 18.4044 22.2334 19.6499C22.2334 20.8953 21.2586 21.9049 20.0561 21.9049C18.8536 21.9049 17.8788 20.8953 17.8788 19.6499C17.8788 19.3457 17.9374 19.056 18.0429 18.7912L14.9757 15.6145V23.639C15.7624 23.979 16.3156 24.7827 16.3156 25.7212C16.3156 26.9666 15.3408 27.9762 14.1383 27.9762C12.9358 27.9762 11.961 26.9666 11.961 25.7212C11.961 24.7833 12.5143 23.979 13.3009 23.639V15.6035C12.5143 15.2635 11.961 14.4598 11.961 13.5213C11.961 13.2172 12.0196 12.9275 12.1252 12.6627L8.91281 9.33559L0.636858 17.9077C-0.212286 18.7872 -0.212286 20.2125 0.636858 21.0919L12.4629 33.3404C13.3121 34.2198 14.6882 34.2198 15.5374 33.3404L27.3634 21.0919C28.2126 20.2125 28.2126 18.7872 27.3634 17.9077H27.3629Z" fill="#E15B39"/>
</svg>
