<svg width="100" height="100" viewBox="0 0 100 100" fill="none" xmlns="http://www.w3.org/2000/svg">
<path d="M43.542 76.0248C47.5986 74.1886 52.6393 74.1886 56.6959 76.0248M39.6892 69.9387C44.8263 73.9617 44.8263 80.4844 39.6892 84.5075C34.5521 88.5305 26.2232 88.5305 21.0861 84.5075C15.9491 80.4844 15.9491 73.9618 21.0861 69.9387C26.2232 65.9156 34.5521 65.9156 39.6892 69.9387ZM79.1522 69.9387C84.2892 73.9617 84.2892 80.4844 79.1522 84.5075C74.0151 88.5305 65.6862 88.5305 60.5491 84.5075C55.412 80.4844 55.412 73.9618 60.5491 69.9387C65.6862 65.9156 74.0151 65.9156 79.1522 69.9387Z" stroke="black" stroke-width="8.2" stroke-linecap="round" stroke-linejoin="round"/>
<path d="M28.7138 40.7474C15.866 42.0672 8.27072 45.0645 8.27072 47.9823C8.27072 52.2584 26.9536 55.7248 50 55.7248C73.0465 55.7248 91.7294 52.2584 91.7294 47.9823C91.7294 45.4722 85.0332 42.5759 75.0544 41.1611" stroke="black" stroke-width="8.2" stroke-linecap="round" stroke-linejoin="round"/>
<path d="M28.8541 40.2396L37.3725 14.6046L45.8429 20.592C45.8429 20.592 51.7915 18.0993 55.1599 16.6418C59.9267 14.5791 66.8807 12.4751 66.8807 12.4751L70.8711 26.3574L74.8616 40.2396" stroke="black" stroke-width="8.2" stroke-linecap="round" stroke-linejoin="round"/>
</svg>
