<svg width="100" height="100" viewBox="0 0 100 100" fill="none" xmlns="http://www.w3.org/2000/svg">
<path d="M64.5833 47.9167H60.4167L54.1666 60.4167L45.8333 35.4167L39.5833 47.9167H35.4166M49.9714 21.3992C41.6408 11.66 27.7489 9.04018 17.3112 17.9584C6.8735 26.8766 5.40401 41.7874 13.6008 52.335C19.792 60.3018 37.3804 76.2956 45.6167 83.6454C47.1308 84.9964 47.8878 85.672 48.7743 85.9379C49.5439 86.1688 50.399 86.1688 51.1686 85.9379C52.0551 85.672 52.8121 84.9964 54.3262 83.6454C62.5625 76.2956 80.1509 60.3018 86.3421 52.335C94.5389 41.7874 93.2488 26.7828 82.6317 17.9584C72.0146 9.13399 58.3021 11.66 49.9714 21.3992Z" stroke="black" stroke-width="8.2" stroke-linecap="round" stroke-linejoin="round"/>
</svg>
