<svg width="16" height="15" viewBox="0 0 16 15" fill="none" xmlns="http://www.w3.org/2000/svg">
<path d="M7.91895 2.19267C6.33456 0.34043 3.69255 -0.157821 1.70745 1.53828C-0.277637 3.23438 -0.557105 6.0702 1.0018 8.07617C2.17927 9.59131 5.52429 12.6331 7.0907 14.0309C7.37867 14.2878 7.52266 14.4164 7.69121 14.4669C7.83757 14.5108 8.00026 14.5108 8.14662 14.4669C8.31517 14.4164 8.45916 14.2878 8.74713 14.0309C10.3135 12.6331 13.6586 9.59131 14.836 8.07617C16.3949 6.0702 16.1496 3.21655 14.1304 1.53828C12.1112 -0.139975 9.50327 0.34043 7.91895 2.19267Z" fill="#D92D20"/>
<path d="M8.03754 9.71338L8.03754 4.94044M8.03754 9.71338L5.90125 7.57709M8.03754 9.71338L10.1738 7.57709" stroke="white" stroke-linecap="round" stroke-linejoin="round"/>
</svg>
