<svg width="auto" height="auto" viewBox="0 0 256 297" version="1.1" xmlns="http://www.w3.org/2000/svg" xmlns:xlink="http://www.w3.org/1999/xlink" preserveAspectRatio="xMidYMid">
    <title>Helm</title>
    <g fill="#0F1689">
        <path d="M60.3487518,70.5371632 L59.5379208,69.7695921 C59.4453822,69.6815585 59.352572,69.5929276 59.260034,69.5040181 C51.6710274,62.2131277 45.7978762,53.7829513 42.250172,43.8186993 C41.2986269,41.146115 40.570558,38.4224814 40.6285622,35.5565454 L40.640632,35.1819132 C40.6532636,34.8968616 40.6524155,34.610998 40.6720665,34.3264938 C40.9397347,30.4492509 43.5346845,28.489992 47.3237051,29.4082021 C48.5188455,29.7177324 49.6753064,30.1609332 50.7712052,30.7294183 C54.7775339,32.7385542 58.0676508,35.6766958 61.0884862,38.9141624 L61.4000442,39.2501147 C66.9174117,45.1216858 71.3421129,51.9311974 74.4658606,59.3581007 C74.5340445,59.5350422 74.6122583,59.7079536 74.7001214,59.8759935 C74.714389,59.9017678 74.7340033,59.9245828 74.7613211,59.9503647 L74.9730163,60.1314358 C74.9928638,60.1488137 75.0140036,60.1676188 75.0365232,60.1880705 C89.8241377,51.3163881 106.551675,46.1836076 123.770244,45.2343152 L123.727129,45.0157376 L123.727129,45.0157376 L123.615365,44.4311422 C123.591616,44.3104064 123.567669,44.1944457 123.541682,44.0805783 L123.50094,43.9110118 C121.744045,36.6403699 121.204821,29.1287364 121.905204,21.6816983 C122.21341,17.2190186 123.112366,12.8169585 124.578542,8.59075111 C125.287806,6.36480185 126.404839,4.2901631 127.872671,2.47264435 C128.427222,1.82345299 129.06732,1.25253197 129.775437,0.775513771 C131.220121,-0.246032261 133.148242,-0.25947442 134.607028,0.741829685 C136.111926,1.76116584 137.323181,3.1573486 138.119918,4.79104783 C139.603971,7.56176963 140.670549,10.5365381 141.285109,13.6190093 C142.686281,20.1372165 143.116516,26.8267057 142.561874,33.4707014 C142.287249,37.5258108 141.583464,41.5403761 140.462321,45.4470843 C141.176274,45.5786056 141.889662,45.7051951 142.602159,45.8294339 L145.801303,46.3813513 C148.283156,46.8118292 150.748165,47.2609363 153.182454,47.8393341 C157.34632,48.8075912 161.451393,50.0132249 165.477561,51.4503283 C169.536631,52.940103 173.50707,54.6610685 177.369385,56.6047755 C179.595826,57.7150626 181.759793,58.9506125 183.93258,60.2170191 L185.798791,61.3078655 C186.734639,61.8548651 187.675849,62.4025782 188.628032,62.9435732 L188.708069,62.7814855 L188.708069,62.7814855 L188.886459,62.4265921 C188.946335,62.3023985 189.004185,62.1729294 189.052692,62.0400457 C193.020011,51.0656157 199.853216,41.3535082 208.84258,33.9124682 C210.941044,32.1109679 213.350904,30.7079 215.953531,29.7723331 C216.670208,29.5224548 217.412145,29.3519873 218.166016,29.2639921 C221.933822,28.8325411 223.515476,31.2034737 223.793983,34.0350001 C224.00273,36.1223783 223.845213,38.2301772 223.328536,40.263344 C222.00145,45.3276568 219.929879,50.1657498 217.182464,54.6196973 L216.874418,55.1129915 C212.892234,61.5475455 208.183957,67.359624 202.240529,72.092595 L201.780898,72.4545336 C201.740485,72.4859988 201.701166,72.5188702 201.661071,72.5540855 L201.469092,72.7315413 L201.469092,72.7315413 L201.228754,72.9596306 C201.19796,72.9884902 201.16557,73.0186391 201.131348,73.0501945 C207.157683,78.6085057 212.524836,84.8413942 217.127037,91.6260298 C216.793586,91.7121419 216.453901,91.771998 216.111101,91.8050486 C209.737915,91.8140712 203.364621,91.7940472 196.99164,91.8327598 C196.230659,91.8145118 195.523096,91.4375865 195.083401,90.8162222 C181.178293,75.6243617 162.432314,65.7284823 142.044342,62.8172518 C136.266386,61.9765982 130.418641,61.7250595 124.591134,62.0661121 L123.831146,62.1139582 C105.892266,63.209308 88.722615,69.7666475 74.6244116,80.8986827 L74.1848451,81.248047 C70.5232516,84.1362589 67.1077899,87.3235089 63.9736587,90.7769502 C63.4096067,91.4766826 62.5480019,91.8686318 61.6499019,91.834041 C57.9973824,91.8086769 54.3446984,91.8061708 50.6919836,91.8082307 L42.0920492,91.8130185 C42.1206437,91.701602 42.1691847,91.5683966 42.2363628,91.4153289 L42.3258383,91.2222371 C42.3585896,91.1547774 42.3942389,91.0842631 42.4327026,91.0108174 L42.5564526,90.7818095 L42.5564526,90.7818095 L42.6965854,90.5359532 L42.6965854,90.5359532 L42.8525983,90.2739883 L42.8525983,90.2739883 L43.0239883,89.9966546 L43.0239883,89.9966546 L43.2102526,89.7046919 L43.2102526,89.7046919 L43.5164382,89.2409368 L43.5164382,89.2409368 L43.8532622,88.7484278 L43.8532622,88.7484278 L44.0939947,88.4053471 L44.0939947,88.4053471 L44.4781111,87.8704634 C44.5222728,87.8097581 44.5669181,87.7486436 44.6120365,87.6871354 L45.0305924,87.1233455 L45.0305924,87.1233455 L45.3229841,86.7369056 L45.3229841,86.7369056 L45.6254728,86.3428647 L45.6254728,86.3428647 L46.0970376,85.7391698 L46.0970376,85.7391698 L46.5884917,85.1225342 L46.5884917,85.1225342 L46.9263393,84.7054875 L46.9263393,84.7054875 L47.2717695,84.2845388 L47.2717695,84.2845388 L47.6242793,83.8604279 L47.6242793,83.8604279 L47.9833659,83.4338946 L47.9833659,83.4338946 L48.3485264,83.0056787 L48.3485264,83.0056787 L48.9065557,82.3618184 L48.9065557,82.3618184 L49.2847009,81.9326326 L49.2847009,81.9326326 L49.6671599,81.5043536 L49.6671599,81.5043536 L50.0534299,81.077721 L50.0534299,81.077721 L50.4430079,80.6534747 L50.4430079,80.6534747 C52.3386292,78.603987 54.3017505,76.61693 56.3032415,74.6082519 L58.3164435,72.5892537 C58.9910548,71.9117766 59.6688506,71.2287841 60.3487518,70.5371632 Z M215.536125,206.944191 C211.302151,212.870308 206.470056,218.34537 201.11607,223.283006 L202.236138,224.215676 L202.236138,224.215676 C211.529016,231.817704 218.540546,241.83975 222.496683,253.175419 C223.549248,255.939794 224.000773,258.896701 223.821189,261.849227 C223.772806,262.51101 223.651029,263.165068 223.45829,263.799396 L223.37135,264.070007 C222.738527,266.175767 220.629533,267.474337 218.464343,267.091398 C217.052825,266.908172 215.679609,266.500784 214.396532,265.884611 C212.436826,264.917788 210.585514,263.745262 208.87384,262.386819 C199.996873,255.093196 193.224108,245.570065 189.247155,234.798208 L188.985361,234.084728 L188.985361,234.084728 L188.628243,233.163402 L188.628243,233.163402 C183.827194,236.337941 178.798595,239.154136 173.583348,241.58908 C168.393463,243.95477 163.026326,245.910497 157.531136,247.438333 C151.947567,248.953594 146.255709,250.037097 140.505936,250.679254 L140.584109,251.089402 L140.584109,251.089402 L140.653647,251.461956 C140.676773,251.581279 140.700541,251.696442 140.727029,251.809551 L140.769063,251.977937 C142.592786,259.132385 143.196904,266.543163 142.556003,273.898524 C142.315796,278.508707 141.42001,283.061156 139.895646,287.418655 C139.170031,289.222026 138.333394,290.978713 137.390543,292.678623 C137.008522,293.337812 136.534901,293.939462 135.983841,294.465582 C133.589811,296.937152 130.731379,296.958205 128.397962,294.421276 C127.475886,293.398012 126.686321,292.262719 126.047896,291.042184 C124.197166,287.568098 123.244658,283.790482 122.564601,279.93834 C121.689449,274.680249 121.41522,269.339676 121.747202,264.019601 C121.91742,260.352799 122.44248,256.711656 123.314718,253.14715 L123.482329,252.479716 C123.566594,252.159302 123.643532,251.83635 123.705691,251.511094 C123.712719,251.474325 123.705965,251.434916 123.690627,251.379191 L123.624062,251.149396 C123.617235,251.123888 123.610197,251.096506 123.603029,251.067036 C106.387209,250.094086 89.6691027,244.93344 74.9003252,236.03319 L74.3405576,237.272302 C74.3059662,237.349831 74.27171,237.427038 74.237663,237.504337 C70.171367,246.992369 63.9516312,255.400247 56.074181,262.06349 L55.6505917,262.418777 C53.5120542,264.24632 51.0557996,265.665197 48.4042666,266.604681 C47.1616533,267.103154 45.8055465,267.248904 44.4853878,267.02587 C43.055386,266.769722 41.8566541,265.807067 41.2950576,264.475107 L41.2353005,264.325609 C40.451635,262.430831 40.5166675,260.466305 40.7573237,258.509824 L40.8236449,257.999672 L40.8236449,257.999672 C41.2981345,255.03899 42.1696788,252.155807 43.4147211,249.428052 C47.1037996,240.836137 52.5334785,233.102003 59.3612246,226.713562 L59.91725,226.194756 C60.0096246,226.107998 60.1013823,226.020616 60.1918201,225.931886 C60.2780276,225.808155 60.3516448,225.676111 60.4115726,225.537728 C53.9783114,219.958371 48.23005,213.635118 43.2874253,206.700673 L43.4778429,206.684257 L43.4778429,206.684257 L44.1265871,206.621613 C44.319894,206.604151 44.4959976,206.592202 44.6721119,206.592042 C49.7316349,206.587345 54.7912657,206.600696 59.8506716,206.584376 L63.6451788,206.565828 C64.4971198,206.53983 65.3154152,206.899136 65.8728036,207.54396 C72.591965,214.456599 80.3956471,220.222396 88.9738896,224.614128 L89.5736245,224.918296 C98.8987278,229.716923 109.038412,232.730775 119.470627,233.804681 C147.813572,236.559827 172.194376,227.967474 192.61304,208.027621 C193.537758,207.028281 194.857756,206.490055 196.217604,206.55787 C199.16538,206.594324 202.113507,206.601822 205.061747,206.600206 L210.958304,206.590703 C211.941065,206.589053 212.92382,206.587861 213.906561,206.587861 L215.430483,206.587861 L215.536125,206.944191 Z"></path>
        <path d="M189.194219,116.628356 C189.566764,116.628356 189.936224,116.633975 190.303029,116.641137 L191.395908,116.663174 C192.119756,116.675514 192.834703,116.677716 193.544185,116.637162 L194.075326,116.59822 C195.876883,116.435213 197.166443,117.079482 198.480447,118.290292 C204.802604,124.115905 211.179823,129.881789 217.551162,135.654027 L221.517361,139.249163 L221.517361,139.249163 L221.966523,139.648095 L221.966523,139.648095 L222.642,140.243529 L222.642,140.243529 L223.440577,139.564271 C223.611994,139.417393 223.779664,139.271158 223.944148,139.121427 C231.819259,131.952572 239.688557,124.777352 247.552043,117.595769 C248.173234,116.955691 249.026609,116.598237 249.913806,116.601069 L250.080503,116.605841 C251.290604,116.654856 252.502812,116.651404 253.740279,116.641922 L255.238846,116.630622 C255.491121,116.629247 255.744778,116.628374 256,116.628374 L256,180.007785 C255.975026,180.015085 255.942567,180.022245 255.902976,180.029261 L255.763157,180.049879 L255.763157,180.049879 L255.582656,180.069627 L255.582656,180.069627 L255.363584,180.088493 L255.363584,180.088493 L255.108052,180.106464 L255.108052,180.106464 L254.661013,180.131719 L254.661013,180.131719 L253.763564,180.169167 L253.763564,180.169167 L252.704232,180.200651 L252.704232,180.200651 L251.51601,180.22598 L251.51601,180.22598 L249.698783,180.250743 L249.698783,180.250743 L248.06019,180.261682 L248.06019,180.261682 L246.407034,180.262782 L246.407034,180.262782 L245.324995,180.257889 L245.324995,180.257889 L244.024713,180.245273 L244.024713,180.245273 L243.046889,180.229863 L243.046889,180.229863 L242.361008,180.21514 L242.361008,180.21514 L241.723749,180.197659 L241.723749,180.197659 L240.96202,180.16999 L240.96202,180.16999 L240.465926,180.145915 L240.465926,180.145915 L240.042208,180.118946 L240.042208,180.118946 L239.803459,180.099339 L239.803459,180.099339 L239.602156,180.078416 C239.571843,180.074819 239.543179,180.071166 239.516207,180.067457 L239.375033,180.044537 L239.375033,180.044537 L239.375033,147.947211 L239.052291,147.794268 L222.668676,162.736047 L222.668676,162.736047 L206.152647,147.857443 L206.152647,147.857443 L205.837165,147.972884 L205.829749,150.651907 L205.829749,150.651907 L205.830874,156.010346 L205.830874,156.010346 L205.82956,160.003964 L205.82956,160.003964 L205.830525,180.161192 L189.332541,180.161192 C189.317079,180.10787 189.302031,179.910013 189.287434,179.581759 L189.270136,179.12617 L189.270136,179.12617 L189.253285,178.550829 L189.253285,178.550829 L189.228876,177.475161 L189.228876,177.475161 L189.205552,176.160591 L189.205552,176.160591 L189.176221,174.067878 L189.176221,174.067878 L189.142556,170.966712 L189.142556,170.966712 L189.096142,165.083295 L189.096142,165.083295 L189.063665,159.242422 L189.063665,159.242422 L189.036653,152.08745 L189.036653,152.08745 L189.020221,143.841838 L189.020221,143.841838 L189.018082,138.463446 L189.018082,138.463446 L189.026953,131.731317 L189.026953,131.731317 L189.039663,127.918237 L189.039663,127.918237 L189.062556,123.884949 L189.062556,123.884949 L189.08826,121.075417 L189.08826,121.075417 L189.113318,119.249879 L189.113318,119.249879 L189.134807,118.155447 L189.134807,118.155447 L189.150442,117.566825 L189.150442,117.566825 L189.167143,117.097337 L189.167143,117.097337 L189.184921,116.752411 C189.187975,116.705605 189.191074,116.664216 189.194219,116.628356 Z M36.9533374,116.700909 L53.3522242,116.700909 C53.3654703,116.743074 53.3782901,116.880966 53.3906749,117.106958 L53.4089247,117.511066 L53.4089247,117.511066 L53.4265155,118.041603 L53.4265155,118.041603 L53.4434405,118.692849 L53.4434405,118.692849 L53.4675655,119.883531 L53.4675655,119.883531 L53.5043518,122.390501 L53.5043518,122.390501 L53.5306419,124.814844 L53.5306419,124.814844 L53.5594943,128.29365 L53.5594943,128.29365 L53.596147,134.685283 L53.596147,134.685283 L53.6129498,139.056582 L53.6129498,139.056582 L53.6309799,147.324451 L53.6309799,147.324451 L53.6340276,152.907224 L53.6340276,152.907224 L53.6282363,159.253515 L53.6282363,159.253515 L53.6177885,163.547797 L53.6177885,163.547797 L53.5981457,168.296692 L53.5981457,168.296692 L53.5757347,171.81236 L53.5757347,171.81236 L53.541437,175.367352 L53.541437,175.367352 L53.5212071,176.828241 L53.5212071,176.828241 L53.5065643,177.671795 L53.5065643,177.671795 L53.4909888,178.404379 L53.4909888,178.404379 L53.474474,179.020271 L53.474474,179.020271 L53.4570134,179.513751 L53.4570134,179.513751 L53.4386003,179.879099 C53.4291546,180.028786 53.4193492,180.128279 53.4091804,180.174359 L36.995635,180.174359 C36.9440055,177.870285 36.9420792,175.570716 36.9477944,173.27343 L36.9568404,169.828935 C36.9575507,169.255045 36.9574241,168.681228 36.9558035,168.10745 L36.9521234,166.399927 L36.9521234,166.399927 L36.9501081,162.977645 L36.9501081,162.977645 L36.9533374,156.053612 L36.9533374,156.053612 L16.630062,156.053612 L16.630062,179.957644 C16.5990928,179.966895 16.5601481,179.975936 16.5136243,179.984768 L16.3517122,180.010635 L16.3517122,180.010635 L16.1467038,180.035242 L16.1467038,180.035242 L15.7635884,180.069781 L15.7635884,180.069781 L15.4612445,180.091222 L15.4612445,180.091222 L14.7546186,180.130288 L14.7546186,180.130288 L14.1448178,180.156236 L14.1448178,180.156236 L13.2405688,180.186344 L13.2405688,180.186344 L12.5044012,180.205545 L12.5044012,180.205545 L11.4607975,180.226621 L11.4607975,180.226621 L9.80108113,180.248488 L9.80108113,180.248488 L8.08527112,180.258583 L8.08527112,180.258583 L6.6589073,180.257946 L6.6589073,180.257946 L5.27534345,180.24903 L5.27534345,180.24903 L3.72388525,180.227337 L3.72388525,180.227337 L2.78525905,180.206173 L2.78525905,180.206173 L1.94537367,180.17962 L1.94537367,180.17962 L1.39170386,180.156153 L1.39170386,180.156153 L1.06335672,180.138812 L1.06335672,180.138812 L0.770397122,180.120109 L0.770397122,180.120109 L0.402511876,180.089497 C0.366653753,180.085925 0.33251785,180.082296 0.300153715,180.078609 L0.127626499,180.055806 C0.0774687518,180.047976 0.0347944581,180.039917 0,180.031628 L0,116.708169 L16.5642757,116.708169 L16.5642757,139.077265 C16.589196,139.084464 16.6213109,139.091538 16.6603231,139.098488 L16.7977537,139.118964 L16.7977537,139.118964 L16.9747831,139.138685 L16.9747831,139.138685 L17.3106711,139.16684 L17.3106711,139.16684 L17.7256181,139.193264 L17.7256181,139.193264 L18.3914516,139.225767 L18.3914516,139.225767 L18.9674472,139.248069 L18.9674472,139.248069 L19.6024256,139.268569 L19.6024256,139.268569 L21.0252387,139.304081 L21.0252387,139.304081 L22.8886469,139.336073 L22.8886469,139.336073 L24.0240182,139.349692 L24.0240182,139.349692 L25.7853804,139.363632 L25.7853804,139.363632 L27.5738793,139.369634 L27.5738793,139.369634 L29.9174776,139.365001 L29.9174776,139.365001 L31.3124777,139.354609 L31.3124777,139.354609 L32.6203643,139.338336 L32.6203643,139.338336 L33.8132535,139.316082 L33.8132535,139.316082 L34.8632617,139.28775 L34.8632617,139.28775 L35.7425049,139.253244 L35.7425049,139.253244 L36.176484,139.229535 L36.176484,139.229535 L36.5329266,139.203547 L36.5329266,139.203547 L36.7245049,139.184945 C36.7532407,139.181759 36.7803548,139.178531 36.8058099,139.175259 L36.9383359,139.155112 L36.9383359,139.155112 L36.9501932,135.070961 C36.951275,134.613095 36.9521705,134.15455 36.952772,133.696004 L36.954808,130.842902 L36.954808,130.842902 L36.9533374,116.700909 L36.9533374,116.700909 Z M73.0081457,180.150906 L73.0081457,116.888764 C73.0373246,116.879215 73.0980701,116.869842 73.1885258,116.860649 L73.4085005,116.842508 C73.4515818,116.839526 73.4978267,116.836564 73.5471665,116.833623 L74.0729278,116.807725 L74.0729278,116.807725 L74.7546699,116.782995 L74.7546699,116.782995 L75.5812529,116.759475 L75.5812529,116.759475 L76.8894174,116.730065 L76.8894174,116.730065 L78.408867,116.702973 L78.408867,116.702973 L80.1131959,116.678295 L80.1131959,116.678295 L84.487128,116.632091 L84.487128,116.632091 L86.6099507,116.61592 L86.6099507,116.61592 L91.6117202,116.589998 L91.6117202,116.589998 L95.5637376,116.580413 L95.5637376,116.580413 L99.9484495,116.581509 L99.9484495,116.581509 L103.510831,116.593591 L103.510831,116.593591 L106.247943,116.612618 L106.247943,116.612618 L108.237719,116.634837 L108.237719,116.634837 L109.907801,116.663039 L109.907801,116.663039 L110.474767,116.676037 L110.474767,116.676037 L111.206615,116.697413 L111.206615,116.697413 L111.786241,116.721077 L111.786241,116.721077 L112.082588,116.738145 L112.082588,116.738145 L112.30303,116.75626 C112.333261,116.759367 112.360192,116.762519 112.383754,116.765714 L112.383754,130.247962 C111.85522,130.285857 111.309653,130.358284 110.764037,130.358964 L101.134831,130.366285 L101.134831,130.366285 L89.7205532,130.364263 L89.7205532,140.850558 L109.778536,140.850558 L109.778536,154.800383 L89.899921,154.800383 C89.8717121,154.901573 89.8452375,155.053938 89.8205703,155.249481 L89.7918418,155.504345 L89.7918418,155.504345 L89.7648765,155.797589 L89.7648765,155.797589 L89.7277956,156.302694 L89.7277956,156.302694 L89.7053608,156.678446 L89.7053608,156.678446 L89.6752072,157.292916 L89.6752072,157.292916 L89.6493362,157.959183 L89.6493362,157.959183 L89.621667,158.910194 L89.621667,158.910194 L89.6061568,159.657005 L89.6061568,159.657005 L89.5952448,160.421059 L89.5952448,160.421059 L89.5880118,161.448699 L89.5880118,161.448699 L89.5910446,162.713003 L89.5910446,162.713003 L89.5994719,163.442357 L89.5994719,163.442357 L89.6079019,163.910016 L89.6079019,163.910016 L89.6186139,164.359229 L89.6186139,164.359229 L89.6390221,164.991745 L89.6390221,164.991745 L89.6647227,165.565482 L89.6647227,165.565482 L89.6848434,165.910198 L89.6848434,165.910198 L89.7073865,166.221111 L89.7073865,166.221111 L89.7323799,166.495149 C89.7367512,166.537578 89.7412258,166.578344 89.7458043,166.61738 C90.2540009,166.651539 90.798432,166.719347 91.3429713,166.71999 L100.972185,166.726829 L100.972185,166.726829 L112.387537,166.724935 L112.387537,180.150906 L73.0081457,180.150906 Z M131.177682,180.175135 C131.165634,180.107229 131.154165,179.945049 131.143268,179.696171 L131.12735,179.258779 L131.12735,179.258779 L131.112283,178.697024 L131.112283,178.697024 L131.098062,178.016587 L131.098062,178.016587 L131.078301,176.785837 L131.078301,176.785837 L131.060409,175.32002 L131.060409,175.32002 L131.030148,171.759902 L131.030148,171.759902 L131.010462,168.244171 L131.010462,168.244171 L130.991162,162.662732 L130.991162,162.662732 L130.980131,154.714174 L130.980131,154.714174 L130.986972,144.522408 L130.986972,144.522408 L131.008549,136.411516 L131.008549,136.411516 L131.039329,129.824791 L131.039329,129.824791 L131.069339,125.498241 L131.069339,125.498241 L131.098753,122.418191 L131.098753,122.418191 L131.1251,120.361984 L131.1251,120.361984 L131.139196,119.485452 L131.139196,119.485452 L131.161477,118.376101 L131.161477,118.376101 L131.177079,117.781785 L131.177079,117.781785 L131.193273,117.310301 L131.193273,117.310301 L131.210053,116.96733 C131.218589,116.82892 131.227342,116.740834 131.23631,116.706268 L147.574343,116.706268 L147.574343,163.481753 L148.076864,163.511223 L148.076864,163.511223 L148.536717,163.540414 L148.536717,163.540414 L148.968128,163.562839 C149.108773,163.568465 149.247048,163.571882 149.385326,163.572008 L159.086358,163.577412 L159.086358,163.577412 L170.536183,163.575966 L170.536183,163.575966 L170.536183,180.175135 L131.177682,180.175135 Z"></path>
    </g>
</svg>