<svg width="15" height="14" viewBox="0 0 15 14" fill="none" xmlns="http://www.w3.org/2000/svg">
<rect x="0.5" width="14" height="14" rx="7" fill="#039855"/>
<path fill-rule="evenodd" clip-rule="evenodd" d="M10.4729 4.31086L6.29623 8.34169L5.1879 7.15753C4.98373 6.96503 4.6629 6.95336 4.42957 7.11669C4.20207 7.28586 4.1379 7.58336 4.2779 7.82253L5.5904 9.95753C5.71873 10.1559 5.9404 10.2784 6.19123 10.2784C6.4304 10.2784 6.6579 10.1559 6.78623 9.95753C6.99623 9.68336 11.0037 4.90586 11.0037 4.90586C11.5287 4.36919 10.8929 3.89669 10.4729 4.30503V4.31086Z" fill="#0BA5EC"/>
<path fill-rule="evenodd" clip-rule="evenodd" d="M11.1403 4.30503C11.0118 4.12405 10.7084 4.07605 10.4729 4.30503V4.31086L10.3899 4.39096L6.29623 8.34169L5.1879 7.15753C4.98373 6.96503 4.6629 6.95336 4.42957 7.11669C4.20207 7.28586 4.1379 7.58336 4.2779 7.82253L5.5904 9.95753C5.69222 10.1149 5.85279 10.2245 6.04006 10.2631C6.08883 10.2731 6.13941 10.2784 6.19123 10.2784C6.31863 10.2784 6.44272 10.2436 6.55028 10.1811C6.64463 10.1263 6.72626 10.0502 6.78623 9.95753C6.78962 9.9531 6.794 9.94751 6.79933 9.94078C6.85798 9.86677 7.03221 9.65571 7.27843 9.35943C8.07017 8.40673 9.60624 6.57293 10.4372 5.5816C10.7807 5.17172 11.0037 4.90586 11.0037 4.90586C11.0111 4.89829 11.0183 4.89074 11.0253 4.8832C11.0268 4.88147 11.0284 4.87975 11.03 4.87803C11.2318 4.65583 11.2369 4.44719 11.1444 4.31086C11.143 4.3089 11.1417 4.30696 11.1403 4.30503Z" fill="white"/>
</svg>
