<svg width="15" height="14" viewBox="0 0 15 14" fill="none" xmlns="http://www.w3.org/2000/svg">
<g clip-path="url(#clip0_0_118)">
<rect x="0.5" width="14" height="14" rx="7" fill="#F79009"/>
<path fill-rule="evenodd" clip-rule="evenodd" d="M4.81723 4.55883C5.11013 4.26593 5.585 4.26593 5.87789 4.55883L7.55801 6.23895L9.23813 4.55883C9.53103 4.26593 10.0059 4.26593 10.2988 4.55883C10.5917 4.85172 10.5917 5.32659 10.2988 5.61949L8.61867 7.29961L10.2988 8.97973C10.5917 9.27262 10.5917 9.74749 10.2988 10.0404C10.0059 10.3333 9.53103 10.3333 9.23813 10.0404L7.55801 8.36027L5.87789 10.0404C5.585 10.3333 5.11013 10.3333 4.81723 10.0404C4.52434 9.74749 4.52434 9.27262 4.81723 8.97973L6.49735 7.29961L4.81723 5.61949C4.52434 5.32659 4.52434 4.85172 4.81723 4.55883Z" fill="white"/>
</g>
<defs>
<clipPath id="clip0_0_118">
<rect x="0.5" width="14" height="14" rx="7" fill="white"/>
</clipPath>
</defs>
</svg>
