<svg width="37" height="40" viewBox="0 0 37 40" fill="none" xmlns="http://www.w3.org/2000/svg">
<path d="M14.8817 5.28003C22.6592 5.28003 28.9649 11.5865 28.9649 19.365C28.9649 27.1435 22.6592 33.45 14.8817 33.45C7.10065 33.4535 0.794922 27.1435 0.794922 19.365C0.794922 11.5865 7.10065 5.28003 14.8817 5.28003Z" fill="#E0F2FE"/>
<g clip-path="url(#clip0_9540_418847)">
<path d="M17.3803 22.0008L14.8803 19.5008M14.8803 19.5008L12.3803 22.0008M14.8803 19.5008V25.1258M20.124 23.4946C20.7336 23.1623 21.2152 22.6364 21.4927 22C21.7702 21.3636 21.8279 20.6529 21.6567 19.98C21.4854 19.3072 21.095 18.7105 20.547 18.2842C19.9989 17.858 19.3246 17.6263 18.6303 17.6258H17.8428C17.6536 16.8941 17.301 16.2148 16.8115 15.639C16.322 15.0631 15.7083 14.6058 15.0166 14.3012C14.3249 13.9967 13.5731 13.8529 12.8179 13.8808C12.0626 13.9086 11.3235 14.1073 10.656 14.4619C9.98859 14.8165 9.41023 15.3178 8.96442 15.9281C8.51862 16.5384 8.21697 17.2418 8.08215 17.9855C7.94733 18.7291 7.98285 19.4937 8.18604 20.2216C8.38924 20.9496 8.75481 21.622 9.25529 22.1883" stroke="#0086C9" stroke-width="1.2" stroke-linecap="round" stroke-linejoin="round"/>
</g>
<defs>
<clipPath id="clip0_9540_418847">
<rect width="15" height="15" fill="white" transform="translate(7.37988 12.0009)"/>
</clipPath>
</defs>
</svg>
