<svg width="60" height="60" viewBox="0 0 60 60" fill="none" xmlns="http://www.w3.org/2000/svg">
<g clip-path="url(#clip0_3_36)">
<path d="M10.0931 24.7167C10.0916 24.6319 10.0898 24.5473 10.0898 24.4624C10.0898 16.3646 16.6544 9.80001 24.7522 9.80001C31.7306 9.80001 37.5698 14.6753 39.051 21.2057C40.4323 20.4325 42.0233 19.9898 43.7187 19.9898C49.0089 19.9898 53.2975 24.2783 53.2975 29.5686C53.2975 29.7848 53.2878 29.9987 53.2736 30.2113C57.201 31.6693 60 35.4496 60 39.8843C60 45.5814 55.3816 50.2 49.6843 50.2H12.8946C5.77316 50.1998 0 44.4267 0 37.3052C0 31.1458 4.31877 25.9961 10.0931 24.7167Z" fill="#0077BB"/>
<path d="M26.8844 21.4222C26.8224 20.9834 26.7453 20.5472 26.7001 20.1064C26.6353 19.4611 26.9961 18.9406 27.4857 18.9388C27.9753 18.9369 28.3381 19.4593 28.278 20.1027C28.2263 20.6551 28.1257 21.2019 28.106 21.7533C28.0759 22.5486 28.3099 22.8009 29.0852 22.9425C31.0153 23.2943 32.7209 24.1064 34.1916 25.4092C34.7912 25.9392 35.1737 25.9513 35.8061 25.4204C36.1237 25.1541 36.3963 24.8333 36.6997 24.5502C36.9216 24.3437 37.1377 24.1046 37.4017 23.9751C37.7457 23.8054 38.1207 23.8364 38.3707 24.189C38.6149 24.5323 38.5557 24.8859 38.2757 25.1729C38.0849 25.3679 37.8396 25.5096 37.6095 25.6634C37.2401 25.9081 36.8408 26.1135 36.4921 26.3837C35.8823 26.8591 35.824 27.2493 36.1952 27.9031C37.164 29.6118 37.584 31.4501 37.5004 33.4094C37.4656 34.2281 37.7711 34.5919 38.6017 34.7214C39.1233 34.8012 39.6543 34.8133 40.1759 34.8996C40.8373 35.0093 41.1663 35.4069 41.0149 35.8919C40.8299 36.4893 40.3365 36.5052 39.8572 36.3852C39.3225 36.252 38.8113 36.0204 38.2813 35.8627C37.4159 35.6077 37.0955 35.7691 36.7561 36.585C36.026 38.3463 34.8852 39.7813 33.3431 40.904C32.5189 41.5042 32.4437 41.8108 32.9568 42.7102C33.2172 43.1671 33.5329 43.5928 33.796 44.0495C34.0648 44.5213 34.0451 44.9846 33.5235 45.2603C32.9625 45.5567 32.6148 45.1872 32.4071 44.7332C32.1779 44.2334 32.0481 43.6857 31.8405 43.1745C31.4843 42.2957 31.1555 42.1475 30.2599 42.3942C28.4217 42.9015 26.5836 42.8941 24.7475 42.3857C23.8405 42.1353 23.4741 42.3173 23.1236 43.2242C22.9047 43.7917 22.744 44.3862 22.4705 44.9236C22.2703 45.3185 21.8756 45.5436 21.4208 45.2538C21.013 44.994 20.9162 44.6085 21.1436 44.1696C21.2592 43.9492 21.3926 43.7391 21.5242 43.5272C21.7281 43.197 21.9583 42.8819 22.1388 42.5386C22.5212 41.808 22.4141 41.4085 21.7544 40.9442C20.2189 39.8638 19.0659 38.471 18.3113 36.7519C17.8799 35.7728 17.5322 35.6095 16.5032 35.9218C16.0005 36.0757 15.5137 36.2867 15.0044 36.4143C14.5336 36.5305 14.074 36.4443 13.9632 35.8788C13.8495 35.2935 14.2235 35.0047 14.7497 34.9146C15.2139 34.8359 15.6885 34.8076 16.1583 34.7542C17.208 34.6379 17.5116 34.3088 17.4749 33.2705C17.4082 31.3675 17.8226 29.5856 18.7482 27.9208C19.1495 27.1987 19.0875 26.8554 18.4109 26.3499C18.0782 26.1013 17.707 25.9063 17.3612 25.6765C17.131 25.5246 16.8866 25.3801 16.6959 25.184C16.4168 24.8972 16.3548 24.5351 16.6019 24.2002C16.8763 23.8288 17.2653 23.795 17.6365 24.0249C17.8903 24.1834 18.0979 24.4188 18.3197 24.627C18.6439 24.9308 18.9343 25.2808 19.2923 25.534C19.7584 25.864 20.1982 25.9728 20.7226 25.4608C22.1077 24.1064 23.8189 23.3327 25.7153 22.9632C26.7829 22.755 26.9239 22.5778 26.8844 21.4222ZM26.4464 25.9466H26.4916C26.4916 25.7262 26.4803 25.503 26.4953 25.2826C26.5151 24.9787 26.4013 24.9074 26.1044 24.9655C24.6572 25.247 23.3688 25.8481 22.2365 26.7935C21.9245 27.0533 21.9856 27.2006 22.2882 27.4059C23.1819 28.0165 24.0539 28.6571 24.9467 29.2666C25.7539 29.8172 26.25 29.5734 26.3131 28.6027C26.3693 27.7192 26.4032 26.8319 26.4464 25.9466ZM19.5057 32.6149C19.4981 33.2986 19.797 33.5529 20.4031 33.3784C21.3325 33.1102 22.2675 32.8559 23.1912 32.5708C24.0369 32.3092 24.1667 31.7868 23.522 31.1799C22.7364 30.4399 21.8982 29.7544 21.1192 29.0051C20.7047 28.6064 20.5544 28.8053 20.3636 29.1898C19.8139 30.2984 19.5536 31.4745 19.5047 32.613L19.5057 32.6149ZM27.4623 40.7389C28.1887 40.7585 28.8944 40.6301 29.5964 40.4556C29.8821 40.3843 30.0663 40.3393 29.8605 39.982C29.2675 38.9512 28.7263 37.8905 28.1144 36.872C27.7724 36.3017 27.1973 36.3083 26.8599 36.8803C26.2548 37.9046 25.7041 38.9578 25.1205 39.9942C24.9683 40.2643 25.0303 40.3627 25.3309 40.4378C26.0329 40.6131 26.7349 40.752 27.4623 40.7389ZM35.4744 32.6393C35.4096 31.5269 35.1699 30.3715 34.6352 29.2854C34.4181 28.8455 34.1739 28.6955 33.7547 29.0866C33.0048 29.7854 32.2192 30.4475 31.4703 31.1481C30.7983 31.7764 30.9393 32.3007 31.8415 32.5718C32.7689 32.8522 33.7031 33.1102 34.6333 33.3774C35.4876 33.6222 35.4913 33.6222 35.4744 32.6393ZM31.3837 34.8959C30.1809 34.9493 30.0324 35.1744 30.4393 36.1732C30.8265 37.1224 31.2363 38.0621 31.6103 39.016C31.7371 39.3395 31.8405 39.498 32.1863 39.2392C33.3675 38.3519 34.2735 37.2519 34.8429 35.8873C34.9133 35.7183 35.0421 35.4924 34.7207 35.437C33.5733 35.242 32.4221 35.0647 31.3837 34.8959ZM28.4895 25.8481H28.5176C28.5645 26.7569 28.6079 27.6658 28.6595 28.5764C28.7159 29.5565 29.2045 29.8153 30.0033 29.2705C30.8707 28.6786 31.7004 28.0315 32.5847 27.4678C33.0575 27.1658 32.9521 26.998 32.5979 26.711C31.5237 25.8435 30.3237 25.2751 28.9659 24.9965C28.4875 24.8981 28.4424 25.0603 28.4847 25.4354C28.4997 25.5724 28.4865 25.7102 28.4865 25.8491L28.4895 25.8481ZM24.7953 35.5571C24.6648 35.2756 24.6816 34.9052 24.192 34.923C22.9611 34.9681 21.761 35.2344 20.5478 35.4014C20.1202 35.4595 20.0328 35.6433 20.2001 36.0119C20.7865 37.2977 21.6435 38.3631 22.7815 39.2073C23.0737 39.4239 23.226 39.4277 23.366 39.0376C23.6179 38.3369 23.9355 37.6598 24.2212 36.9714C24.412 36.5128 24.5952 36.0513 24.7944 35.5589L24.7953 35.5571ZM27.5309 31.7268C26.6785 31.7249 26.1759 32.0616 26.1561 32.6487C26.1325 33.354 26.8224 34.1465 27.4745 34.1596C28.0947 34.1727 28.8043 33.4262 28.808 32.7556C28.8117 32.1319 28.3119 31.7268 27.53 31.7249L27.5309 31.7268Z" fill="#FDFDFE"/>
</g>
<defs>
<clipPath id="clip0_3_36">
<rect width="60" height="60" fill="white"/>
</clipPath>
</defs>
</svg>
