<svg width="100" height="101" viewBox="0 0 100 101" fill="none" xmlns="http://www.w3.org/2000/svg">
<path d="M87.4999 67.2583V30.5916C87.4999 25.9245 87.4999 23.591 86.5916 21.8084C85.7927 20.2404 84.5179 18.9655 82.9498 18.1666C81.1672 17.2583 78.8337 17.2583 74.1666 17.2583H25.8333C21.1661 17.2583 18.8326 17.2583 17.05 18.1666C15.482 18.9655 14.2071 20.2404 13.4082 21.8084C12.4999 23.591 12.4999 25.9245 12.4999 30.5916V67.2583M19.4444 83.925H80.5555C83.1387 83.925 84.4304 83.925 85.4901 83.641C88.3658 82.8705 90.6121 80.6242 91.3826 77.7485C91.6666 76.6887 91.6666 75.3971 91.6666 72.8139C91.6666 71.5222 91.6666 70.8764 91.5246 70.3466C91.1393 68.9087 90.0162 67.7856 88.5783 67.4003C88.0485 67.2583 87.4027 67.2583 86.111 67.2583H13.8888C12.5972 67.2583 11.9514 67.2583 11.4215 67.4003C9.98362 67.7856 8.86051 68.9087 8.47523 70.3466C8.33325 70.8764 8.33325 71.5222 8.33325 72.8139C8.33325 75.3971 8.33325 76.6887 8.6172 77.7485C9.38776 80.6242 11.634 82.8705 14.5098 83.641C15.5695 83.925 16.8611 83.925 19.4444 83.925Z" stroke="black" stroke-width="8.2" stroke-linecap="round" stroke-linejoin="round"/>
</svg>
