<svg width="auto" height="auto" viewBox="0 0 24 25" fill="none" xmlns="http://www.w3.org/2000/svg"> <path d="M21 16.5918V7.7918C21 6.67169 21 6.11164 20.782 5.68382C20.5903 5.30749 20.2843 5.00153 19.908 4.80978C19.4802 4.5918 18.9201 4.5918 17.8 4.5918H6.2C5.07989 4.5918 4.51984 4.5918 4.09202 4.80978C3.71569 5.00153 3.40973 5.30749 3.21799 5.68382C3 6.11164 3 6.67169 3 7.7918V16.5918M4.66667 20.5918H19.3333C19.9533 20.5918 20.2633 20.5918 20.5176 20.5236C21.2078 20.3387 21.7469 19.7996 21.9319 19.1094C22 18.8551 22 18.5451 22 17.9251C22 17.6151 22 17.4601 21.9659 17.333C21.8735 16.9879 21.6039 16.7183 21.2588 16.6259C21.1317 16.5918 20.9767 16.5918 20.6667 16.5918H3.33333C3.02334 16.5918 2.86835 16.5918 2.74118 16.6259C2.39609 16.7183 2.12654 16.9879 2.03407 17.333C2 17.4601 2 17.6151 2 17.9251C2 18.5451 2 18.8551 2.06815 19.1094C2.25308 19.7996 2.79218 20.3387 3.48236 20.5236C3.73669 20.5918 4.04669 20.5918 4.66667 20.5918Z" stroke="currentColor" stroke-width="2" stroke-linecap="round" stroke-linejoin="round"/> </svg>