<svg width="101" height="101" viewBox="0 0 101 101" fill="none" xmlns="http://www.w3.org/2000/svg">
<path d="M87.5885 67.2583V30.5916C87.5885 25.9245 87.5885 23.591 86.6803 21.8084C85.8813 20.2404 84.6065 18.9655 83.0385 18.1666C81.2559 17.2583 78.9223 17.2583 74.2552 17.2583H25.9219C21.2548 17.2583 18.9212 17.2583 17.1386 18.1666C15.5706 18.9655 14.2958 20.2404 13.4968 21.8084C12.5885 23.591 12.5885 25.9245 12.5885 30.5916V67.2583M19.533 83.925H80.6441C83.2274 83.925 84.519 83.925 85.5787 83.641C88.4545 82.8705 90.7007 80.6242 91.4713 77.7485C91.7552 76.6887 91.7552 75.3971 91.7552 72.8139C91.7552 71.5222 91.7552 70.8764 91.6132 70.3466C91.228 68.9087 90.1048 67.7856 88.667 67.4003C88.1371 67.2583 87.4913 67.2583 86.1997 67.2583H13.9774C12.6858 67.2583 12.04 67.2583 11.5101 67.4003C10.0722 67.7856 8.94913 68.9087 8.56385 70.3466C8.42188 70.8764 8.42188 71.5222 8.42188 72.8139C8.42188 75.3971 8.42188 76.6887 8.70583 77.7485C9.47639 80.6242 11.7226 82.8705 14.5984 83.641C15.6581 83.925 16.9497 83.925 19.533 83.925Z" stroke="black" stroke-width="8.2" stroke-linecap="round" stroke-linejoin="round"/>
<path d="M58.422 54.7181L68.8386 44.3014C64.7707 40.2335 62.4899 37.9527 58.422 33.8848M41.7553 33.8848C37.6873 37.9527 35.4066 40.2335 31.3386 44.3014C35.4066 48.3694 37.6873 50.6501 41.7553 54.7181" stroke="black" stroke-width="8.2" stroke-linecap="round" stroke-linejoin="round"/>
</svg>
