<svg width="auto" height="auto" viewBox="0 0 25 25" fill="none" xmlns="http://www.w3.org/2000/svg"> <path d="M21.0886 16.5918V7.7918C21.0886 6.67169 21.0886 6.11164 20.8706 5.68382C20.6789 5.30749 20.3729 5.00153 19.9966 4.80978C19.5688 4.5918 19.0087 4.5918 17.8886 4.5918H6.28862C5.16852 4.5918 4.60847 4.5918 4.18064 4.80978C3.80432 5.00153 3.49836 5.30749 3.30661 5.68382C3.08862 6.11164 3.08862 6.67169 3.08862 7.7918V16.5918M4.75529 20.5918H19.422C20.0419 20.5918 20.3519 20.5918 20.6063 20.5236C21.2964 20.3387 21.8355 19.7996 22.0205 19.1094C22.0886 18.8551 22.0886 18.5451 22.0886 17.9251C22.0886 17.6151 22.0886 17.4601 22.0545 17.333C21.9621 16.9879 21.6925 16.7183 21.3474 16.6259C21.2203 16.5918 21.0653 16.5918 20.7553 16.5918H3.42196C3.11197 16.5918 2.95697 16.5918 2.8298 16.6259C2.48471 16.7183 2.21516 16.9879 2.1227 17.333C2.08862 17.4601 2.08862 17.6151 2.08862 17.9251C2.08862 18.5451 2.08862 18.8551 2.15677 19.1094C2.34171 19.7996 2.8808 20.3387 3.57098 20.5236C3.82532 20.5918 4.13531 20.5918 4.75529 20.5918Z" stroke="currentColor" stroke-width="2" stroke-linecap="round" stroke-linejoin="round"/> <path d="M14.0886 13.582L16.5886 11.082C15.6123 10.1057 15.0649 9.55834 14.0886 8.58203M10.0886 8.58203C9.11231 9.55834 8.56493 10.1057 7.58862 11.082C8.56493 12.0583 9.11231 12.6057 10.0886 13.582" stroke="currentColor" stroke-width="2" stroke-linecap="round" stroke-linejoin="round"/> </svg>