<svg xmlns="http://www.w3.org/2000/svg" width="24px" height="24px" viewBox="0 0 24 24">
<path style=" stroke:none;fill-rule:nonzero;fill:currentColor;fill-opacity:1;" d="M 21.613281 19.269531 C 20.910156 18.980469 20.609375 18.597656 20.636719 18.027344 C 20.667969 17.363281 20.289062 16.875 20.109375 16.679688 C 20.21875 16.265625 20.535156 14.835938 20.109375 13.589844 C 19.652344 12.257812 18.257812 10.222656 16.820312 8.222656 C 16.230469 7.402344 16.203125 6.507812 16.171875 5.476562 C 16.140625 4.488281 16.105469 3.371094 15.554688 2.128906 C 14.957031 0.777344 13.757812 0 12.265625 0 C 11.375 0 10.460938 0.277344 9.761719 0.761719 C 8.324219 1.753906 8.511719 3.917969 8.640625 5.347656 C 8.65625 5.542969 8.671875 5.730469 8.679688 5.886719 C 8.765625 7.289062 8.6875 8.027344 8.589844 8.253906 C 8.523438 8.398438 8.207031 8.816406 7.871094 9.261719 C 7.523438 9.71875 7.132812 10.234375 6.808594 10.71875 C 6.421875 11.300781 6.113281 12.1875 5.8125 13.046875 C 5.59375 13.675781 5.382812 14.269531 5.183594 14.625 C 4.796875 15.308594 4.894531 15.945312 4.972656 16.238281 C 4.828125 16.339844 4.617188 16.539062 4.441406 16.914062 C 4.226562 17.367188 3.792969 17.613281 2.890625 17.789062 C 2.476562 17.871094 2.191406 18.046875 2.042969 18.304688 C 1.824219 18.683594 1.941406 19.15625 2.050781 19.480469 C 2.210938 19.957031 2.109375 20.257812 1.929688 20.804688 C 1.886719 20.929688 1.839844 21.074219 1.792969 21.230469 C 1.71875 21.480469 1.746094 21.707031 1.875 21.902344 C 2.214844 22.425781 3.210938 22.609375 4.234375 22.730469 C 4.84375 22.800781 5.511719 23.046875 6.160156 23.28125 C 6.792969 23.515625 7.449219 23.753906 8.046875 23.828125 C 8.136719 23.835938 8.226562 23.84375 8.3125 23.84375 C 9.210938 23.84375 9.617188 23.246094 9.746094 23 C 10.070312 22.933594 11.183594 22.722656 12.335938 22.695312 C 13.480469 22.664062 14.589844 22.890625 14.90625 22.960938 C 15.003906 23.148438 15.265625 23.582031 15.679688 23.804688 C 15.90625 23.929688 16.226562 24 16.550781 24 C 16.898438 24 17.558594 23.917969 18.082031 23.367188 C 18.605469 22.8125 19.910156 22.109375 20.859375 21.59375 C 21.074219 21.476562 21.273438 21.371094 21.445312 21.273438 C 21.980469 20.976562 22.273438 20.554688 22.246094 20.109375 C 22.226562 19.742188 21.980469 19.421875 21.613281 19.269531 Z M 9.773438 19.164062 C 9.707031 18.695312 9.101562 18.230469 8.402344 17.691406 C 7.832031 17.25 7.183594 16.75 7.007812 16.328125 C 6.636719 15.457031 6.929688 13.921875 7.433594 13.132812 C 7.6875 12.738281 7.890625 12.140625 8.089844 11.558594 C 8.300781 10.933594 8.523438 10.285156 8.769531 10.003906 C 9.160156 9.558594 9.523438 8.699219 9.585938 8.019531 C 9.953125 8.371094 10.519531 8.8125 11.046875 8.8125 C 11.125 8.8125 11.203125 8.804688 11.28125 8.78125 C 11.640625 8.679688 12.167969 8.375 12.679688 8.078125 C 13.117188 7.824219 13.660156 7.511719 13.867188 7.480469 C 14.214844 7.984375 16.253906 12.492188 16.460938 13.9375 C 16.625 15.082031 16.449219 16.027344 16.363281 16.398438 C 16.292969 16.390625 16.210938 16.382812 16.121094 16.382812 C 15.554688 16.382812 15.402344 16.691406 15.363281 16.875 C 15.265625 17.355469 15.253906 18.890625 15.253906 19.238281 C 15.046875 19.5 14.011719 20.726562 12.523438 20.945312 C 11.914062 21.035156 11.347656 21.078125 10.839844 21.078125 C 10.402344 21.078125 10.125 21.042969 10.007812 21.027344 L 9.261719 20.171875 C 9.554688 20.027344 9.851562 19.71875 9.773438 19.164062 Z M 10.722656 5.046875 C 10.699219 5.058594 10.675781 5.070312 10.652344 5.082031 C 10.652344 5.03125 10.644531 4.976562 10.636719 4.925781 C 10.554688 4.457031 10.242188 4.113281 9.894531 4.113281 C 9.871094 4.113281 9.84375 4.117188 9.816406 4.121094 C 9.609375 4.15625 9.445312 4.3125 9.359375 4.53125 C 9.4375 4.046875 9.710938 3.691406 10.035156 3.691406 C 10.417969 3.691406 10.738281 4.203125 10.738281 4.8125 C 10.738281 4.890625 10.734375 4.964844 10.722656 5.046875 Z M 13.6875 5.410156 C 13.722656 5.300781 13.742188 5.179688 13.742188 5.054688 C 13.742188 4.5 13.390625 4.070312 12.945312 4.070312 C 12.507812 4.070312 12.152344 4.511719 12.152344 5.054688 C 12.152344 5.089844 12.152344 5.128906 12.15625 5.164062 C 12.132812 5.15625 12.109375 5.148438 12.089844 5.140625 C 12.039062 4.988281 12.011719 4.828125 12.011719 4.664062 C 12.011719 4.003906 12.433594 3.46875 12.953125 3.46875 C 13.472656 3.46875 13.894531 4.003906 13.894531 4.664062 C 13.894531 4.941406 13.816406 5.203125 13.6875 5.410156 Z M 13.304688 6.695312 C 13.296875 6.726562 13.28125 6.742188 13.105469 6.835938 C 13.015625 6.878906 12.90625 6.9375 12.769531 7.023438 L 12.675781 7.078125 C 12.304688 7.304688 11.433594 7.832031 11.199219 7.863281 C 11.039062 7.882812 10.941406 7.820312 10.71875 7.667969 C 10.667969 7.636719 10.613281 7.597656 10.554688 7.5625 C 10.152344 7.296875 9.894531 7.007812 9.867188 6.894531 C 9.996094 6.792969 10.324219 6.539062 10.488281 6.390625 C 10.824219 6.074219 11.164062 5.863281 11.332031 5.863281 C 11.34375 5.863281 11.351562 5.867188 11.359375 5.867188 C 11.554688 5.902344 12.042969 6.097656 12.398438 6.238281 C 12.5625 6.304688 12.707031 6.359375 12.804688 6.398438 C 13.121094 6.503906 13.285156 6.644531 13.304688 6.695312 Z M 16.132812 21.359375 C 16.3125 20.558594 16.515625 19.46875 16.484375 18.828125 C 16.476562 18.679688 16.460938 18.523438 16.449219 18.367188 C 16.425781 18.082031 16.390625 17.652344 16.425781 17.527344 C 16.433594 17.523438 16.441406 17.519531 16.449219 17.519531 C 16.453125 17.886719 16.53125 18.617188 17.117188 18.875 C 17.292969 18.949219 17.492188 18.988281 17.710938 18.988281 C 18.296875 18.988281 18.949219 18.703125 19.214844 18.433594 C 19.375 18.277344 19.503906 18.085938 19.597656 17.933594 C 19.617188 17.992188 19.628906 18.070312 19.625 18.167969 C 19.589844 18.710938 19.851562 19.429688 20.351562 19.695312 L 20.425781 19.734375 C 20.605469 19.828125 21.078125 20.074219 21.085938 20.195312 C 21.085938 20.195312 21.082031 20.207031 21.054688 20.230469 C 20.9375 20.339844 20.519531 20.554688 20.117188 20.761719 C 19.398438 21.125 18.585938 21.542969 18.222656 21.925781 C 17.707031 22.464844 17.125 22.828125 16.773438 22.828125 C 16.734375 22.828125 16.695312 22.824219 16.660156 22.8125 C 16.277344 22.695312 15.964844 22.144531 16.132812 21.359375 Z M 3.140625 19.316406 C 3.101562 19.132812 3.070312 18.992188 3.105469 18.851562 C 3.128906 18.75 3.636719 18.636719 3.855469 18.589844 C 4.160156 18.523438 4.476562 18.457031 4.683594 18.332031 C 4.960938 18.160156 5.113281 17.847656 5.246094 17.574219 C 5.34375 17.375 5.445312 17.167969 5.5625 17.101562 C 5.570312 17.097656 5.578125 17.09375 5.597656 17.09375 C 5.820312 17.09375 6.289062 17.558594 6.558594 17.980469 C 6.625 18.085938 6.75 18.296875 6.898438 18.539062 C 7.335938 19.273438 7.933594 20.273438 8.246094 20.609375 C 8.527344 20.914062 8.984375 21.492188 8.871094 21.992188 C 8.789062 22.375 8.351562 22.691406 8.25 22.761719 C 8.210938 22.769531 8.164062 22.773438 8.109375 22.773438 C 7.511719 22.773438 6.328125 22.273438 5.691406 22.007812 L 5.597656 21.96875 C 5.242188 21.820312 4.660156 21.726562 4.101562 21.632812 C 3.652344 21.5625 3.042969 21.464844 2.941406 21.375 C 2.859375 21.28125 2.953125 20.980469 3.039062 20.71875 C 3.097656 20.527344 3.160156 20.332031 3.195312 20.125 C 3.242188 19.796875 3.1875 19.53125 3.140625 19.316406 Z M 3.140625 19.316406 "/>
</svg>
