<svg width="76" height="75" viewBox="0 0 76 75" fill="none" xmlns="http://www.w3.org/2000/svg">
<g clip-path="url(#clip0_1_2)">
<path opacity="0.2" d="M75.5 37.5C75.5 16.7893 58.7107 0 38 0C17.2893 0 0.5 16.7893 0.5 37.5C0.5 58.2107 17.2893 75 38 75C58.7107 75 75.5 58.2107 75.5 37.5Z" fill="#E1DFDF" fill-opacity="0.08"/>
<path d="M31.5353 36.1666V30.8333C31.5353 29.0652 32.2164 27.3695 33.4288 26.1192C34.6412 24.869 36.2855 24.1666 38 24.1666C39.7145 24.1666 41.3588 24.869 42.5712 26.1192C43.7835 27.3695 44.4646 29.0652 44.4646 30.8333V36.1666M28.9495 36.1666H47.0505C48.4786 36.1666 49.6364 37.3605 49.6364 38.8333V48.1666C49.6364 49.6394 48.4786 50.8333 47.0505 50.8333H28.9495C27.5214 50.8333 26.3636 49.6394 26.3636 48.1666V38.8333C26.3636 37.3605 27.5214 36.1666 28.9495 36.1666Z" stroke="#0086C9" stroke-width="2.6" stroke-linecap="round" stroke-linejoin="round"/>
</g>
<defs>
<clipPath id="clip0_1_2">
<rect width="76" height="75" fill="white"/>
</clipPath>
</defs>
</svg>
