<svg width="38" height="47" viewBox="0 0 38 47" fill="none" xmlns="http://www.w3.org/2000/svg">
<g filter="url(#filter0_dd_1083_50505)">
<path fill-rule="evenodd" clip-rule="evenodd" d="M15.0154 11.0576H14.4116V14.1824H15.0154V11.0576Z" fill="#13BEF9"/>
<path fill-rule="evenodd" clip-rule="evenodd" d="M17.6118 11.0576H17.008V14.1824H17.6118V11.0576Z" fill="#13BEF9"/>
<path fill-rule="evenodd" clip-rule="evenodd" d="M21.1593 5.09492L20.5404 4.02313L10.215 9.98588L10.834 11.0577L21.1593 5.09492Z" fill="#13BEF9"/>
<path fill-rule="evenodd" clip-rule="evenodd" d="M21.0989 5.09492L21.7178 4.02313L32.0432 9.98588L31.4243 11.0577L21.0989 5.09492Z" fill="#13BEF9"/>
<path fill-rule="evenodd" clip-rule="evenodd" d="M33.8698 11.0727V9.8349H5.5807V11.0727H33.8698Z" fill="#13BEF9"/>
<path fill-rule="evenodd" clip-rule="evenodd" d="M22.6688 28.5534V10.2123H23.9067V29.444C23.5746 29.0666 23.1519 28.7949 22.6688 28.5534Z" fill="#13BEF9"/>
<path fill-rule="evenodd" clip-rule="evenodd" d="M20.5555 28.2364V2.36261H21.7933V28.3873C21.4461 28.2213 20.6008 28.2364 20.5555 28.2364Z" fill="#13BEF9"/>
<path fill-rule="evenodd" clip-rule="evenodd" d="M8.82625 30.8177C7.31669 29.7006 6.32039 27.9193 6.32039 25.8965C6.32039 24.8247 6.6072 23.7681 7.13555 22.8472H17.7024C18.2459 23.7681 18.5176 24.8247 18.5176 25.8965C18.5176 26.8325 18.3968 27.708 18.0194 28.493C17.2194 27.7231 16.0419 27.391 14.8494 27.391C12.736 27.391 10.9245 28.7043 10.4566 30.6667C10.2905 30.6516 10.1848 30.6365 10.0188 30.6365C9.61122 30.6516 9.21873 30.712 8.82625 30.8177Z" fill="#13BEF9"/>
<path fill-rule="evenodd" clip-rule="evenodd" d="M14.0191 15.5712H10.8188V18.7865H14.0191V15.5712Z" fill="#13BEF9"/>
<path fill-rule="evenodd" clip-rule="evenodd" d="M10.4113 15.5712H7.21101V18.7865H10.4113V15.5712Z" fill="#13BEF9"/>
<path fill-rule="evenodd" clip-rule="evenodd" d="M10.4113 19.1489H7.21101V22.3642H10.4113V19.1489Z" fill="#13BEF9"/>
<path fill-rule="evenodd" clip-rule="evenodd" d="M14.0191 19.1489H10.8188V22.3642H14.0191V19.1489Z" fill="#13BEF9"/>
<path fill-rule="evenodd" clip-rule="evenodd" d="M17.6118 19.1489H14.4116V22.3642H17.6118V19.1489Z" fill="#13BEF9"/>
<path fill-rule="evenodd" clip-rule="evenodd" d="M17.6118 13.8503H14.4116V17.0657H17.6118V13.8503Z" fill="#13BEF9"/>
<path fill-rule="evenodd" clip-rule="evenodd" d="M10.9849 31.3007C11.4227 29.444 13.0983 28.0552 15.0909 28.0552C16.374 28.0552 17.5213 28.6288 18.3062 29.5345C18.9855 29.0666 19.8007 28.7949 20.6913 28.7949C23.016 28.7949 24.903 30.6818 24.903 33.0065C24.903 33.4896 24.8275 33.9424 24.6766 34.3802C25.1898 35.0746 25.5068 35.9501 25.5068 36.8861C25.5068 39.2108 23.6199 41.0977 21.2952 41.0977C20.2687 41.0977 19.3327 40.7354 18.6081 40.1316C17.8383 41.2034 16.5853 41.9129 15.1664 41.9129C13.536 41.9129 12.1171 40.977 11.4076 39.6184C11.1208 39.6787 10.8339 39.7089 10.532 39.7089C8.20731 39.7089 6.30527 37.822 6.30527 35.4973C6.30527 33.1726 8.19222 31.2856 10.532 31.2856C10.683 31.2705 10.8339 31.2705 10.9849 31.3007Z" fill="#13BEF9"/>
</g>
<defs>
<filter id="filter0_dd_1083_50505" x="0" y="0" width="38" height="47" filterUnits="userSpaceOnUse" color-interpolation-filters="sRGB">
<feFlood flood-opacity="0" result="BackgroundImageFix"/>
<feColorMatrix in="SourceAlpha" type="matrix" values="0 0 0 0 0 0 0 0 0 0 0 0 0 0 0 0 0 0 127 0" result="hardAlpha"/>
<feOffset dy="1"/>
<feGaussianBlur stdDeviation="1"/>
<feColorMatrix type="matrix" values="0 0 0 0 0.0627451 0 0 0 0 0.0941176 0 0 0 0 0.156863 0 0 0 0.06 0"/>
<feBlend mode="normal" in2="BackgroundImageFix" result="effect1_dropShadow_1083_50505"/>
<feColorMatrix in="SourceAlpha" type="matrix" values="0 0 0 0 0 0 0 0 0 0 0 0 0 0 0 0 0 0 127 0" result="hardAlpha"/>
<feOffset dy="1"/>
<feGaussianBlur stdDeviation="1.5"/>
<feColorMatrix type="matrix" values="0 0 0 0 0.0627451 0 0 0 0 0.0941176 0 0 0 0 0.156863 0 0 0 0.1 0"/>
<feBlend mode="normal" in2="effect1_dropShadow_1083_50505" result="effect2_dropShadow_1083_50505"/>
<feBlend mode="normal" in="SourceGraphic" in2="effect2_dropShadow_1083_50505" result="shape"/>
</filter>
</defs>
</svg>
