<svg width="100" height="100" viewBox="0 0 100 100" fill="none" xmlns="http://www.w3.org/2000/svg">
<path d="M54.1668 58.3335L41.6668 45.8335M62.5432 14.5835V8.3335M78.9571 21.0862L83.3766 16.6668M78.9571 54.1668L83.3766 58.5862M45.8766 21.0862L41.4572 16.6668M85.4599 37.5002H91.7099M25.5475 86.9528L64.0361 48.4642C65.6861 46.8141 66.5112 45.9891 66.8203 45.0377C67.0922 44.2009 67.0922 43.2994 66.8203 42.4626C66.5112 41.5112 65.6861 40.6862 64.0361 39.0361L60.9641 35.9642C59.3141 34.3141 58.489 33.4891 57.5377 33.18C56.7008 32.9081 55.7994 32.9081 54.9625 33.18C54.0112 33.4891 53.1861 34.3141 51.5361 35.9642L13.0475 74.4528C11.3974 76.1029 10.5724 76.9279 10.2633 77.8793C9.99135 78.7161 9.99135 79.6176 10.2633 80.4544C10.5724 81.4058 11.3974 82.2308 13.0475 83.8809L16.1194 86.9528C17.7695 88.6029 18.5945 89.4279 19.5459 89.737C20.3827 90.0089 21.2842 90.0089 22.121 89.737C23.0724 89.4279 23.8974 88.6028 25.5475 86.9528Z" stroke="black" stroke-width="8.2" stroke-linecap="round" stroke-linejoin="round"/>
</svg>
