<svg width="100" height="100" viewBox="0 0 100 100" fill="none" xmlns="http://www.w3.org/2000/svg">
<path d="M60.4167 76.2503V87M70.8333 46V33.5M22.9167 76.2503V87M41.6667 76.2503V87M41.6667 76.2503H63.3333C70.334 76.2503 82.7428 76.2503 85.4167 74.8879C87.7687 73.6895 89.681 71.7772 90.8794 69.4252C91.8916 67.4386 92.1518 64.4957 92.2187 60.5M41.6667 76.2503H36.6667C29.666 76.2503 17.8324 76.2503 15.1585 74.8879C12.8064 73.6895 10.8942 71.7772 9.69576 69.4252C8.68352 67.4386 8.42335 64.4957 8.35648 60.5M79.1667 76.2503V87M50.5 46V33.5M29.5 46V33.5M8.35648 60.5C8.33334 59.1177 8.33334 58.0496 8.33334 56.2503V36.667C8.33334 29.6663 8.33334 26.166 9.69576 23.4921C10.8942 21.1401 12.8064 19.2278 15.1585 18.0294C17.8324 16.667 29.666 16.667 36.6667 16.667H63.3333C70.334 16.667 82.7428 16.667 85.4167 18.0294C87.7687 19.2278 89.681 21.1401 90.8794 23.4921C92.2418 26.166 92.2418 29.6663 92.2418 36.667V56.2503C92.2418 58.0496 92.2418 59.1177 92.2187 60.5M8.35648 60.5H92.2187" stroke="black" stroke-width="8.2" stroke-linecap="round" stroke-linejoin="round"/>
</svg>
