<svg width="auto" height="auto" viewBox="0 0 24 24" fill="none" xmlns="http://www.w3.org/2000/svg"> <path d="M14.5 18.3V20.8799M17 11.0399V8.03992M5.5 18.3V20.8799M10 18.3V20.8799M10 18.3H15.2C16.8802 18.3 19.8583 18.3 20.5 17.973C21.0645 17.6854 21.5234 17.2265 21.811 16.662C22.054 16.1852 22.1164 15.4789 22.1325 14.5199M10 18.3H8.8C7.11984 18.3 4.27976 18.3 3.63803 17.973C3.07354 17.6854 2.6146 17.2265 2.32698 16.662C2.08404 16.1852 2.0216 15.4789 2.00555 14.5199M19 18.3V20.8799M12.12 11.0399V8.03992M7.08 11.0399V8.03992M2.00555 14.5199C2 14.1882 2 13.9318 2 13.5V8.8C2 7.11984 2 6.27976 2.32698 5.63803C2.6146 5.07354 3.07354 4.6146 3.63803 4.32698C4.27976 4 7.11984 4 8.8 4H15.2C16.8802 4 19.8583 4 20.5 4.32698C21.0645 4.6146 21.5234 5.07354 21.811 5.63803C22.138 6.27976 22.138 7.11984 22.138 8.8V13.5C22.138 13.9318 22.138 14.1882 22.1325 14.5199M2.00555 14.5199H22.1325" stroke="currentColor" stroke-width="2" stroke-linecap="round" stroke-linejoin="round"/> </svg>