<?xml version="1.0" standalone="no"?><!DOCTYPE svg PUBLIC "-//W3C//DTD SVG 1.1//EN" "http://www.w3.org/Graphics/SVG/1.1/DTD/svg11.dtd"><svg t="1663299850294" class="icon" viewBox="0 0 1024 1024" version="1.1" xmlns="http://www.w3.org/2000/svg" p-id="1808" xmlns:xlink="http://www.w3.org/1999/xlink" width="200" height="200"><path d="M512 0L68.48 256v512L512 1024l443.52-256V256L512 0z m256 707.84c0 30.08-27.562667 55.04-65.237333 55.04-26.922667 0-57.642667-10.88-76.842667-34.56l-256-304.682667v284.16c0 30.762667-24.32 55.04-54.357333 55.04H312.32c-30.762667 0-55.04-25.6-55.04-55.04V316.16c0-30.08 26.88-55.04 64-55.04 27.562667 0 58.88 10.88 78.08 34.56l254.72 304.682667V316.16c0-30.762667 25.6-55.04 55.04-55.04h3.2c30.72 0 55.04 25.6 55.04 55.04v391.68H768z" fill="#009900" p-id="1809"></path></svg>