<svg width="100" height="100" viewBox="0 0 100 100" fill="none" xmlns="http://www.w3.org/2000/svg">
<path d="M79.1667 29.1667V70.8333M20.8333 29.1667V70.8333M70.8333 20.8333L29.1667 20.8333M70.8333 79.1667H29.1667M19.1667 29.1667H22.5C24.8336 29.1667 26.0003 29.1667 26.8916 28.7125C27.6756 28.3131 28.3131 27.6756 28.7125 26.8916C29.1667 26.0003 29.1667 24.8336 29.1667 22.5V19.1667C29.1667 16.8331 29.1667 15.6663 28.7125 14.775C28.3131 13.991 27.6756 13.3536 26.8916 12.9541C26.0003 12.5 24.8336 12.5 22.5 12.5H19.1667C16.8331 12.5 15.6663 12.5 14.775 12.9541C13.991 13.3536 13.3536 13.991 12.9541 14.775C12.5 15.6663 12.5 16.8331 12.5 19.1667V22.5C12.5 24.8336 12.5 26.0003 12.9541 26.8916C13.3536 27.6756 13.991 28.3131 14.775 28.7125C15.6663 29.1667 16.8331 29.1667 19.1667 29.1667ZM19.1667 87.5H22.5C24.8336 87.5 26.0003 87.5 26.8916 87.0459C27.6756 86.6464 28.3131 86.009 28.7125 85.225C29.1667 84.3337 29.1667 83.1669 29.1667 80.8333V77.5C29.1667 75.1664 29.1667 73.9997 28.7125 73.1084C28.3131 72.3244 27.6756 71.6869 26.8916 71.2875C26.0003 70.8333 24.8336 70.8333 22.5 70.8333H19.1667C16.8331 70.8333 15.6663 70.8333 14.775 71.2875C13.991 71.6869 13.3536 72.3244 12.9541 73.1084C12.5 73.9997 12.5 75.1664 12.5 77.5V80.8333C12.5 83.1669 12.5 84.3337 12.9541 85.225C13.3536 86.009 13.991 86.6464 14.775 87.0459C15.6663 87.5 16.8331 87.5 19.1667 87.5ZM77.5 29.1667H80.8333C83.1669 29.1667 84.3337 29.1667 85.225 28.7125C86.009 28.3131 86.6464 27.6756 87.0459 26.8916C87.5 26.0003 87.5 24.8336 87.5 22.5V19.1667C87.5 16.8331 87.5 15.6663 87.0459 14.775C86.6464 13.991 86.009 13.3536 85.225 12.9541C84.3337 12.5 83.1669 12.5 80.8333 12.5H77.5C75.1664 12.5 73.9997 12.5 73.1084 12.9541C72.3244 13.3536 71.6869 13.991 71.2875 14.775C70.8333 15.6663 70.8333 16.8331 70.8333 19.1667V22.5C70.8333 24.8336 70.8333 26.0003 71.2875 26.8916C71.6869 27.6756 72.3244 28.3131 73.1084 28.7125C73.9997 29.1667 75.1664 29.1667 77.5 29.1667ZM77.5 87.5H80.8333C83.1669 87.5 84.3337 87.5 85.225 87.0459C86.009 86.6464 86.6464 86.009 87.0459 85.225C87.5 84.3337 87.5 83.1669 87.5 80.8333V77.5C87.5 75.1664 87.5 73.9997 87.0459 73.1084C86.6464 72.3244 86.009 71.6869 85.225 71.2875C84.3337 70.8333 83.1669 70.8333 80.8333 70.8333H77.5C75.1664 70.8333 73.9997 70.8333 73.1084 71.2875C72.3244 71.6869 71.6869 72.3244 71.2875 73.1084C70.8333 73.9997 70.8333 75.1664 70.8333 77.5V80.8333C70.8333 83.1669 70.8333 84.3337 71.2875 85.225C71.6869 86.009 72.3244 86.6464 73.1084 87.0459C73.9997 87.5 75.1664 87.5 77.5 87.5Z" stroke="black" stroke-width="8.2" stroke-linecap="round" stroke-linejoin="round"/>
</svg>
