<svg width="100" height="100" viewBox="0 0 100 100" fill="none" xmlns="http://www.w3.org/2000/svg">
<path d="M8.33325 50.0002C8.33325 73.012 26.9881 91.6668 49.9999 91.6668C56.9035 91.6668 62.4999 86.0704 62.4999 79.1668V77.0835C62.4999 75.1484 62.4999 74.1809 62.6069 73.3686C63.3453 67.7594 67.7592 63.3456 73.3683 62.6071C74.1806 62.5002 75.1482 62.5002 77.0833 62.5002H79.1666C86.0701 62.5002 91.6666 56.9037 91.6666 50.0002C91.6666 26.9883 73.0118 8.3335 49.9999 8.3335C26.9881 8.3335 8.33325 26.9883 8.33325 50.0002Z" stroke="black" stroke-width="8.2" stroke-linecap="round" stroke-linejoin="round"/>
<path d="M29.1666 54.1668C31.4678 54.1668 33.3333 52.3014 33.3333 50.0002C33.3333 47.699 31.4678 45.8335 29.1666 45.8335C26.8654 45.8335 24.9999 47.699 24.9999 50.0002C24.9999 52.3014 26.8654 54.1668 29.1666 54.1668Z" stroke="black" stroke-width="8.2" stroke-linecap="round" stroke-linejoin="round"/>
<path d="M66.6666 37.5002C68.9678 37.5002 70.8333 35.6347 70.8333 33.3335C70.8333 31.0323 68.9678 29.1668 66.6666 29.1668C64.3654 29.1668 62.4999 31.0323 62.4999 33.3335C62.4999 35.6347 64.3654 37.5002 66.6666 37.5002Z" stroke="black" stroke-width="8.2" stroke-linecap="round" stroke-linejoin="round"/>
<path d="M41.6666 33.3335C43.9678 33.3335 45.8333 31.468 45.8333 29.1668C45.8333 26.8656 43.9678 25.0002 41.6666 25.0002C39.3654 25.0002 37.4999 26.8656 37.4999 29.1668C37.4999 31.468 39.3654 33.3335 41.6666 33.3335Z" stroke="black" stroke-width="8.2" stroke-linecap="round" stroke-linejoin="round"/>
</svg>
