<svg width="auto" height="auto" viewBox="0 0 24 24" fill="none" xmlns="http://www.w3.org/2000/svg"> <path d="M2 12C2 17.5228 6.47715 22 12 22C13.6569 22 15 20.6569 15 19V18.5C15 18.0356 15 17.8034 15.0257 17.6084C15.2029 16.2622 16.2622 15.2029 17.6084 15.0257C17.8034 15 18.0356 15 18.5 15H19C20.6569 15 22 13.6569 22 12C22 6.47715 17.5228 2 12 2C6.47715 2 2 6.47715 2 12Z" stroke="currentColor" stroke-width="2" stroke-linecap="round" stroke-linejoin="round"/> <path d="M7 13C7.55229 13 8 12.5523 8 12C8 11.4477 7.55229 11 7 11C6.44772 11 6 11.4477 6 12C6 12.5523 6.44772 13 7 13Z" stroke="currentColor" stroke-width="2" stroke-linecap="round" stroke-linejoin="round"/> <path d="M16 9C16.5523 9 17 8.55229 17 8C17 7.44772 16.5523 7 16 7C15.4477 7 15 7.44772 15 8C15 8.55229 15.4477 9 16 9Z" stroke="currentColor" stroke-width="2" stroke-linecap="round" stroke-linejoin="round"/> <path d="M10 8C10.5523 8 11 7.55229 11 7C11 6.44772 10.5523 6 10 6C9.44772 6 9 6.44772 9 7C9 7.55229 9.44772 8 10 8Z" stroke="currentColor" stroke-width="2" stroke-linecap="round" stroke-linejoin="round"/> </svg>