<svg width="24" height="24" viewBox="0 0 24 24" fill="none" xmlns="http://www.w3.org/2000/svg">
  <path d="M23.4187 11.6494C23.3461 11.5285 23.2495 11.4559 23.1286 11.4319L20.7593 10.8275C20.4934 10.7549 20.2273 10.9242 20.179 11.1903L19.647 13.342L17.5924 12.8341L17.4958 12.8098C17.3748 12.7855 17.2299 12.8098 17.133 12.8581C17.0121 12.9307 16.9395 13.0273 16.9155 13.1483L16.3835 15.3L14.2317 14.768C13.9659 14.6954 13.6998 14.8646 13.6514 15.1308L13.0714 17.2582L10.9197 16.7262C10.7987 16.7019 10.6538 16.7262 10.5569 16.7745C10.436 16.8471 10.3634 16.9438 10.3393 17.0647L10.291 17.2582L9.73501 19.5306C9.66241 19.7965 9.83165 20.0626 10.0978 20.1109L19.4779 22.4559C19.5988 22.4802 19.6954 22.5042 19.8163 22.5042C20.4207 22.5042 20.9766 22.0932 21.1219 21.4888L23.4911 12.0119C23.5152 11.8909 23.4909 11.7703 23.4185 11.6494L23.4187 11.6494ZM14.4496 15.8074L16.5528 16.3394C16.6737 16.3877 16.843 16.3637 16.9639 16.2911C17.0848 16.2185 17.1814 16.0735 17.1814 15.9283L17.5925 14.2603L18.9464 16.0493L18.2694 18.757L13.9662 17.669L14.4496 15.8074ZM20.1791 21.2469C20.1307 21.4645 19.9132 21.5854 19.7197 21.5371L10.799 19.313L11.1375 17.9835L18.5353 19.845C18.5595 19.845 18.6079 19.8693 18.6319 19.8693H18.6562C18.6805 19.8693 18.7045 19.8693 18.7528 19.845H18.7771C18.8254 19.845 18.8497 19.8207 18.8737 19.7967C18.9947 19.7241 19.0673 19.6275 19.0913 19.5065L19.9375 16.0978C19.9618 15.9529 19.9375 15.8077 19.8649 15.6868L18.6802 14.1396L19.8405 14.4298C20.1064 14.5024 20.3725 14.3331 20.4208 14.067L20.9528 11.9153L22.4033 12.278L20.1791 21.2469Z" fill="currentColor" stroke="currentColor" stroke-width="0.3" />
  <path d="M10.2912 15.7109C10.5571 15.7109 10.7746 15.4933 10.7746 15.2275V13.0034H12.9747C13.2405 13.0034 13.4581 12.7859 13.4581 12.52V10.32H15.6581C15.924 10.32 16.1415 10.1024 16.1415 9.83654V7.6125H18.124C18.3899 7.6125 18.6074 7.39495 18.6074 7.12908V2.84963C18.6074 2.1001 18.0031 1.49573 17.2535 1.49573H1.85391C1.10438 1.49573 0.5 2.10006 0.5 2.84963V16.9201C0.5 17.6696 1.10434 18.274 1.85391 18.274H7.58359C7.84946 18.274 8.06701 18.0564 8.06701 17.7906V15.7358L10.2912 15.7109ZM12.4912 12.0363H10.2912C10.0254 12.0363 9.8078 12.2539 9.8078 12.5197V14.7438H3.83656V13.269L5.72214 11.8425L7.36615 12.7853C7.55967 12.8819 7.77722 12.8579 7.94646 12.7127L11.5487 9.23141L12.4915 9.98094L12.4912 12.0363ZM7.10004 17.2823H1.85379C1.63624 17.2823 1.467 17.1131 1.467 16.8955V2.84993C1.467 2.63239 1.63623 2.46315 1.85379 2.46315H17.2534C17.471 2.46315 17.6402 2.63238 17.6402 2.84993V6.6697H15.682C15.4161 6.6697 15.1986 6.88725 15.1986 7.15312V9.37717H13.2646L11.8381 8.24086C11.6446 8.09592 11.3788 8.09592 11.2095 8.26515L7.53498 11.7707L5.93926 10.852C5.77003 10.7553 5.55247 10.7553 5.40727 10.8762L3.06228 12.6409C2.94136 12.7376 2.86876 12.8828 2.86876 13.0277V15.252C2.86876 15.373 2.91708 15.4939 3.01371 15.5905C3.11034 15.6871 3.23126 15.7354 3.35218 15.7354H7.09937L7.10004 17.2823Z" fill="currentColor" stroke="currentColor" stroke-width="0.3" />
  <path d="M5.40775 8.82098C6.61644 8.82098 7.58351 7.82983 7.58351 6.64523C7.58351 5.43655 6.59236 4.46948 5.40775 4.46948C4.19907 4.46948 3.232 5.46063 3.232 6.64523C3.20772 7.8299 4.19907 8.82098 5.40775 8.82098ZM5.40775 5.41227C6.08471 5.41227 6.61644 5.96829 6.61644 6.62095C6.61644 7.29791 6.06042 7.82964 5.40775 7.82964C4.7308 7.82964 4.19907 7.27362 4.19907 6.62095C4.17478 5.94426 4.7308 5.41227 5.40775 5.41227Z" fill="currentColor" stroke="currentColor" stroke-width="0.3" />
</svg>
