<svg width="752pt" height="752pt" version="1.1" viewBox="0 0 752 752" xmlns="http://www.w3.org/2000/svg">
  <path d="m552.21 372.31c-1.1094-1.8477-2.5859-2.957-4.4336-3.3242l-36.203-9.2344c-4.0625-1.1094-8.1289 1.4766-8.8672 5.543l-8.1289 32.879-31.395-7.7617-1.4766-0.37109c-1.8477-0.37109-4.0625 0-5.543 0.73828-1.8477 1.1094-2.957 2.5859-3.3242 4.4336l-8.1289 32.879-32.879-8.1289c-4.0625-1.1094-8.1289 1.4766-8.8672 5.543l-8.8633 32.508-32.879-8.1289c-1.8477-0.37109-4.0625 0-5.543 0.73828-1.8477 1.1094-2.957 2.5859-3.3242 4.4336l-0.73828 2.957-8.4961 34.723c-1.1094 4.0625 1.4766 8.1289 5.543 8.8672l143.33 35.832c1.8477 0.37109 3.3242 0.73828 5.1719 0.73828 9.2344 0 17.73-6.2812 19.949-15.516l36.203-144.81c0.36719-1.8477-0.003906-3.6914-1.1094-5.5391zm-137.05 63.535 32.137 8.1289c1.8477 0.73828 4.4336 0.37109 6.2812-0.73828s3.3242-3.3242 3.3242-5.543l6.2812-25.488 20.688 27.336-10.344 41.375-65.754-16.625zm87.547 83.117c-0.73828 3.3242-4.0625 5.1719-7.0195 4.4336l-136.31-33.984 5.1719-20.316 113.04 28.445c0.37109 0 1.1094 0.37109 1.4766 0.37109h0.37109c0.37109 0 0.73828 0 1.4766-0.37109h0.37109c0.73828 0 1.1094-0.37109 1.4766-0.73828 1.8477-1.1094 2.957-2.5859 3.3242-4.4336l12.93-52.086c0.37109-2.2148 0-4.4336-1.1094-6.2812l-18.102-23.641 17.73 4.4336c4.0625 1.1094 8.1289-1.4766 8.8672-5.543l8.1289-32.879 22.164 5.543z" fill="currentColor" stroke="currentColor"/>
  <path d="m351.62 434.37c4.0625 0 7.3867-3.3242 7.3867-7.3867v-33.984h33.617c4.0625 0 7.3867-3.3242 7.3867-7.3867v-33.617h33.617c4.0625 0 7.3867-3.3242 7.3867-7.3867v-33.984h30.293c4.0625 0 7.3867-3.3242 7.3867-7.3867v-65.391c0-11.453-9.2344-20.688-20.688-20.688h-235.31c-11.453 0-20.688 9.2344-20.688 20.688v215c0 11.453 9.2344 20.688 20.688 20.688h87.551c4.0625 0 7.3867-3.3242 7.3867-7.3867v-31.398zm33.617-56.148h-33.617c-4.0625 0-7.3867 3.3242-7.3867 7.3867v33.984h-91.242v-22.535l28.812-21.797 25.121 14.406c2.957 1.4766 6.2812 1.1094 8.8672-1.1094l55.043-53.195 14.406 11.453zm-82.379 80.16h-80.164c-3.3242 0-5.9102-2.5859-5.9102-5.9102v-214.62c0-3.3242 2.5859-5.9102 5.9102-5.9102h235.31c3.3242 0 5.9102 2.5859 5.9102 5.9102v58.367h-29.922c-4.0625 0-7.3867 3.3242-7.3867 7.3867v33.984h-29.551l-21.797-17.363c-2.957-2.2148-7.0195-2.2148-9.6055 0.37109l-56.148 53.566-24.383-14.039c-2.5859-1.4766-5.9102-1.4766-8.1289 0.37109l-35.832 26.965c-1.8477 1.4766-2.957 3.6953-2.957 5.9102v33.988c0 1.8477 0.73828 3.6953 2.2148 5.1719 1.4766 1.4766 3.3242 2.2148 5.1719 2.2148h57.258z" fill="currentColor" stroke="currentColor"/>
  <path d="m277 329.09c18.469 0 33.246-15.145 33.246-33.246 0-18.469-15.145-33.246-33.246-33.246-18.469 0-33.246 15.145-33.246 33.246-0.37109 18.102 14.777 33.246 33.246 33.246zm0-52.086c10.344 0 18.469 8.4961 18.469 18.469 0 10.344-8.4961 18.469-18.469 18.469-10.344 0-18.469-8.4961-18.469-18.469-0.37109-10.34 8.125-18.469 18.469-18.469z" fill="currentColor" stroke="currentColor"/>
</svg>
