<svg width="60" height="60" viewBox="0 0 60 60" fill="none" xmlns="http://www.w3.org/2000/svg">
<g clip-path="url(#clip0_14_99)">
<path d="M10.0931 24.7167C10.0916 24.6319 10.0898 24.5473 10.0898 24.4624C10.0898 16.3646 16.6544 9.80001 24.7522 9.80001C31.7306 9.80001 37.5698 14.6753 39.051 21.2057C40.4323 20.4325 42.0233 19.9898 43.7187 19.9898C49.0089 19.9898 53.2975 24.2783 53.2975 29.5686C53.2975 29.7848 53.2878 29.9987 53.2736 30.2113C57.201 31.6693 60 35.4496 60 39.8843C60 45.5814 55.3816 50.2 49.6843 50.2H12.8946C5.77316 50.1998 0 44.4267 0 37.3052C0 31.1458 4.31877 25.9961 10.0931 24.7167Z" fill="#0077BB"/>
<path d="M21.5688 35.8125C21.1986 35.813 20.8437 35.9682 20.5821 36.2442C20.3205 36.5201 20.1735 36.8942 20.1735 37.2842C20.1735 37.6743 20.3205 38.0483 20.5821 38.3243C20.8437 38.6002 21.1986 38.7555 21.5688 38.756C21.9391 38.7556 22.2941 38.6004 22.5558 38.3244C22.8175 38.0485 22.9645 37.6743 22.9645 37.2842C22.9645 36.8942 22.8176 36.5201 22.5559 36.2442C22.2943 35.9682 21.939 35.813 21.5688 35.8125ZM35.6846 35.8125C35.3144 35.813 34.9595 35.9682 34.6979 36.2442C34.4363 36.5201 34.2893 36.8942 34.2893 37.2842C34.2893 37.6743 34.4363 38.0483 34.6979 38.3243C34.9595 38.6002 35.3144 38.7555 35.6846 38.756C35.8683 38.7563 36.0502 38.7185 36.22 38.6447C36.3898 38.5709 36.5441 38.4625 36.6741 38.3258C36.804 38.1891 36.9072 38.0268 36.9775 37.8481C37.0479 37.6693 37.0841 37.4777 37.0841 37.2842C37.0841 37.0907 37.0479 36.8991 36.9775 36.7204C36.9072 36.5417 36.804 36.3793 36.6741 36.2426C36.5441 36.1059 36.3898 35.9976 36.22 35.9238C36.0502 35.85 35.8683 35.8121 35.6846 35.8125Z" fill="white" stroke="white" stroke-width="0.67"/>
<path d="M23.9208 36.196L18.7289 37.588L18.8777 38.1444L24.0703 36.7524L23.9208 36.196ZM33.7463 36.196L33.5967 36.7524L38.7881 38.1444L38.9377 37.588L33.7463 36.196ZM24.4404 37.0348L19.219 40.0506L19.5072 40.549L24.7279 37.5336L24.4404 37.0348ZM33.2295 37.0348L32.9413 37.5336L38.1623 40.549L38.4506 40.0506L33.2295 37.0348ZM24.8223 38.0354L21.2267 41.636C21.4715 41.6669 21.7046 41.7057 21.9273 41.7492L25.2296 38.4423L24.8223 38.0354ZM32.8473 38.0354L32.4404 38.4423L36.9559 42.9648C37.2115 42.9481 37.4726 42.9368 37.7371 42.9314L32.8473 38.0354ZM24.9969 39.3463L23.3438 42.2121C23.5155 42.2969 23.6839 42.39 23.8472 42.4928L25.4961 39.6337L24.9969 39.3463ZM32.6731 39.3463L32.1739 39.6337L34.3825 43.4636C34.4235 43.4473 34.4631 43.4281 34.5049 43.4131C34.6344 43.3617 34.7827 43.3157 34.9381 43.2727L32.6731 39.3463Z" fill="white" stroke="white" stroke-width="0.67"/>
<path d="M28.7754 31.5535C26.0764 31.5535 23.8585 33.6515 23.8585 36.2541C23.8585 38.8567 26.0764 40.9546 28.7754 40.9546C31.475 40.9546 33.6928 38.8567 33.6928 36.2541C33.6928 33.6515 31.4741 31.5535 28.7754 31.5535ZM28.7754 32.4178C31.0305 32.4178 32.8289 34.1423 32.8289 36.2541C32.8289 38.3662 31.0305 40.0899 28.7754 40.0899C26.5208 40.0899 24.722 38.3662 24.722 36.2541C24.722 34.1423 26.5208 32.4178 28.7754 32.4178Z" fill="white" stroke="white" stroke-width="0.67"/>
<path d="M28.1864 21.375C26.1052 21.375 24.0791 21.6023 22.7736 22.1199C19.3133 23.3911 16.7045 26.8091 15.9287 30.9244C15.2386 34.1891 15.0556 36.95 14.6884 39.4499C14.5318 40.5185 14.3383 41.5365 14.0635 42.5316C13.3495 45.3148 12.4583 47.0972 12.4583 47.0972H13.3495C13.3495 47.0972 13.5653 47.4728 15.1275 41.8511C15.2966 41.0987 15.4359 40.3399 15.5452 39.5765C15.9191 37.0273 16.0946 34.299 16.7709 31.1015L16.7751 31.0973V31.0907C17.5003 27.2306 19.9525 24.0699 23.0773 22.9261L23.0815 22.9228H23.0877C24.176 22.49 26.1687 22.2393 28.1864 22.2397C30.2012 22.2397 32.2653 22.4833 33.5378 22.9261C36.6626 24.0695 39.1148 27.2302 39.8392 31.0902L39.8433 31.0986V31.1015C40.5193 34.299 40.6989 37.0273 41.0728 39.5765C41.2411 40.7244 41.4322 41.8447 41.7746 42.9331C42.8044 46.206 43.6505 47.0972 43.6505 47.0972H44.5417C44.5417 47.0972 43.3372 44.962 42.8044 43.363C42.385 42.1043 42.1276 40.8176 41.9267 39.4499C41.5603 36.9517 41.3786 34.1929 40.6897 30.9319C39.9152 26.8095 37.3047 23.3815 33.8377 22.1123H33.8302C32.3831 21.6069 30.271 21.3754 28.1864 21.375ZM21.682 26.5814C21.2382 26.579 20.7999 26.6789 20.4009 26.8734C20.002 27.0678 19.6533 27.3516 19.3819 27.7027L19.1174 28.0427L19.805 28.5708L20.0686 28.227C20.2491 27.9978 20.4762 27.8097 20.7349 27.6751C20.9936 27.5404 21.278 27.4624 21.5692 27.4462C22.1123 27.4232 22.6763 27.6417 23.0623 28.0248L23.3697 28.3322L23.9809 27.7173L23.6734 27.4136C23.1419 26.889 22.4288 26.5901 21.682 26.5814ZM35.6232 26.5814C34.8763 26.5904 34.162 26.8887 33.6305 27.4136L33.3231 27.7173L33.9309 28.3322L34.2388 28.0248C34.4359 27.8329 34.6698 27.6827 34.9263 27.5833C35.1829 27.4838 35.4568 27.4372 35.7318 27.4462C36.3062 27.4713 36.8848 27.7708 37.2357 28.2274L37.5002 28.5708L38.1836 28.0427L37.9192 27.7027C37.6485 27.3518 37.3006 27.068 36.9023 26.8736C36.5041 26.6791 36.0664 26.5791 35.6232 26.5814ZM28.7754 33.5892C28.4588 33.5892 28.1993 33.6866 27.9838 33.7593C27.7678 33.8324 27.5953 33.8821 27.4624 33.8821C27.2256 33.8821 26.9929 34.012 26.8663 34.1645C26.7401 34.3165 26.6804 34.4736 26.6345 34.6232C26.5425 34.921 26.4978 35.2239 26.4573 35.3292C26.3646 35.569 26.4531 35.7599 26.5267 35.8852C26.5998 36.0105 26.6892 36.1091 26.7899 36.211C26.992 36.4141 27.2477 36.6175 27.5059 36.8072C27.7703 37.001 28.0356 37.1773 28.2328 37.306L28.2223 37.4798C28.125 37.5591 27.8881 37.7693 27.4954 37.9021C27.2632 37.9806 27.0292 38.0086 26.8262 37.9568C26.6537 37.9125 26.482 37.7605 26.3057 37.5303C26.317 37.4392 26.3211 37.4021 26.3416 37.2521C26.378 36.9897 26.4306 36.6727 26.4544 36.5787L25.6151 36.369C25.565 36.5695 25.5224 36.8619 25.4848 37.133C25.4472 37.4037 25.4196 37.6356 25.4196 37.6356L25.4017 37.7901L25.4848 37.9201C25.7893 38.3988 26.1954 38.6891 26.6131 38.7957C27.0309 38.9026 27.4361 38.8379 27.7745 38.7238C28.2131 38.5747 28.5707 38.3353 28.7679 38.1849C28.9655 38.3353 29.321 38.5755 29.7584 38.7238C30.0968 38.8383 30.4978 38.9026 30.9156 38.7957C31.3333 38.6887 31.7398 38.3988 32.0439 37.9201L32.1275 37.7906L32.1091 37.6356C32.1091 37.6356 32.0815 37.4037 32.0439 37.133C32.0063 36.8615 31.9629 36.5695 31.9136 36.369L31.0747 36.5787C31.0981 36.6727 31.1508 36.9897 31.1875 37.2521C31.2076 37.4 31.2126 37.4359 31.223 37.527C31.0459 37.7592 30.8763 37.9125 30.7025 37.9572C30.4995 38.0086 30.266 37.9806 30.0337 37.9021C29.641 37.7693 29.4037 37.5591 29.3068 37.4798L29.2993 37.3172C29.4994 37.1877 29.7705 37.0081 30.0441 36.8076C30.3023 36.6175 30.558 36.4137 30.7606 36.2102C30.8608 36.1087 30.9511 36.0101 31.0238 35.8852C31.0977 35.7599 31.1854 35.569 31.0927 35.3287C31.0522 35.2243 31.0041 34.921 30.9122 34.6227C30.8663 34.474 30.8111 34.3161 30.6846 34.1636C30.558 34.0116 30.3253 33.8821 30.088 33.8821C29.9556 33.8821 29.783 33.8319 29.5675 33.7593C29.3515 33.6866 29.0925 33.5892 28.7754 33.5892ZM28.7754 34.4536C28.9028 34.4536 29.072 34.5029 29.2893 34.576C29.4889 34.6436 29.74 34.718 30.0262 34.7318C30.0358 34.7464 30.0617 34.7944 30.088 34.8801C30.1344 35.0305 30.1816 35.2602 30.2468 35.4837C30.2259 35.5121 30.2008 35.5477 30.1461 35.6028C30.0032 35.7465 29.7701 35.9332 29.5307 36.1087C29.1631 36.379 28.9333 36.5198 28.7754 36.6188C28.6188 36.5202 28.3844 36.3806 28.0155 36.1091C27.7762 35.9337 27.5477 35.7465 27.4048 35.6028C27.3496 35.5477 27.3254 35.5121 27.3045 35.4837C27.3689 35.2602 27.4165 35.0309 27.4624 34.8801C27.4769 34.8283 27.4978 34.7784 27.5247 34.7318C27.8104 34.7184 28.0581 34.6436 28.2583 34.576C28.4746 34.5029 28.6484 34.4536 28.7754 34.4536Z" fill="white" stroke="white" stroke-width="0.67"/>
<path d="M21.659 29.959C21.3172 29.9591 20.9788 30.0282 20.6643 30.1621C20.3498 30.2961 20.0655 30.4921 19.8284 30.7385C19.5309 31.0432 19.311 31.415 19.1872 31.8225C19.0964 32.1197 19.0583 32.4305 19.0744 32.7408C19.0946 33.1475 19.2076 33.5443 19.4046 33.9007C19.6016 34.2571 19.8775 34.5638 20.2111 34.7974C20.3844 34.9173 20.5717 35.0156 20.7688 35.0902C21.3843 35.3226 22.0661 35.3061 22.6696 35.0443C22.9014 34.9439 23.1169 34.8095 23.3092 34.6457C23.5349 34.4554 23.7269 34.2285 23.8773 33.9744C24.1939 33.4423 24.3158 32.8168 24.2224 32.2048C24.1706 31.8629 24.0533 31.5343 23.8769 31.2369C23.6825 30.9107 23.4209 30.6297 23.1095 30.4126C22.936 30.2928 22.7486 30.1946 22.5514 30.1202C22.2663 30.0132 21.9635 29.9585 21.659 29.959ZM35.6412 29.959C35.337 29.9596 35.0354 30.0146 34.7505 30.1215C34.5139 30.2102 34.2919 30.3339 34.0918 30.4882C33.858 30.6673 33.656 30.8846 33.4944 31.1308C33.1041 31.7212 32.9641 32.4424 33.105 33.136C33.2066 33.6401 33.4515 34.1042 33.8102 34.4728C33.9862 34.653 34.1871 34.8072 34.4067 34.9306C34.6296 35.0546 34.8696 35.1448 35.119 35.198C35.3777 35.2529 35.6435 35.2666 35.9065 35.2385C36.4169 35.1852 36.8992 34.9781 37.2892 34.6445C37.547 34.4264 37.7606 34.1609 37.9184 33.8624C38.1672 33.3948 38.2712 32.8637 38.2171 32.3368C38.1779 31.9487 38.0548 31.5738 37.8561 31.2381C37.6403 30.8757 37.3416 30.5697 36.9847 30.345C36.7689 30.2107 36.5346 30.1091 36.2891 30.0433C36.0779 29.9872 35.8598 29.9588 35.6412 29.959ZM21.659 30.8195C21.7471 30.8198 21.8359 30.8265 21.9231 30.8396C22.1201 30.87 22.3101 30.9353 22.4841 31.0326C22.6315 31.1143 22.7661 31.2174 22.8835 31.3384C23.0429 31.5017 23.1692 31.6943 23.2553 31.9057C23.3347 32.0987 23.3801 32.3041 23.3894 32.5127C23.3993 32.7249 23.3736 32.9373 23.3133 33.141C23.2469 33.3613 23.139 33.5669 22.9954 33.7467C22.8541 33.9221 22.6806 34.0689 22.4841 34.1791C22.1531 34.3624 21.7704 34.43 21.3967 34.3713C20.9737 34.3055 20.5914 34.082 20.3264 33.7459C20.1823 33.5664 20.0745 33.3607 20.0089 33.1401C19.9567 32.9667 19.9305 32.7865 19.9312 32.6054C19.9316 32.4244 19.9579 32.2443 20.0093 32.0707C20.0757 31.8506 20.1835 31.6451 20.3268 31.4654C20.4676 31.2902 20.6406 31.1436 20.8365 31.0334C21.0619 30.9081 21.3129 30.8358 21.5705 30.822C21.5997 30.8204 21.6294 30.8195 21.659 30.8195ZM35.6412 30.8195C35.8155 30.8197 35.9888 30.8466 36.155 30.8993C36.3698 30.9676 36.5686 31.0783 36.7399 31.2247C36.9129 31.371 37.056 31.5495 37.161 31.7503C37.2711 31.9588 37.3391 32.1869 37.3611 32.4216C37.3959 32.7803 37.3263 33.1414 37.1606 33.4614C37.0549 33.6616 36.9121 33.84 36.7399 33.9869C36.6115 34.0957 36.468 34.1852 36.3138 34.2526C36.1017 34.3449 35.8729 34.3925 35.6416 34.3925C35.4103 34.3925 35.1815 34.3449 34.9694 34.2526C34.7629 34.1634 34.5762 34.034 34.4201 33.872C34.261 33.7087 34.135 33.516 34.0491 33.3047C33.9699 33.1118 33.9247 32.9065 33.9155 32.6982C33.9081 32.5456 33.9192 32.3927 33.9485 32.2428C33.9937 32.0149 34.082 31.7976 34.2087 31.6028C34.3325 31.4145 34.491 31.2514 34.6758 31.1224C34.8383 31.0099 35.0191 30.9264 35.2101 30.8755C35.3508 30.8383 35.4957 30.8195 35.6412 30.8195Z" fill="white" stroke="white" stroke-width="0.67"/>
<path d="M20.9401 30.8772C20.6585 30.8769 20.3883 30.993 20.1889 31.1998C19.9896 31.4066 19.8773 31.6872 19.8769 31.98C19.8766 32.1254 19.9039 32.2693 19.9572 32.4037C20.0105 32.538 20.0887 32.6601 20.1875 32.763C20.2863 32.8658 20.4036 32.9474 20.5327 33.003C20.6619 33.0586 20.8003 33.0872 20.9401 33.0871C21.0799 33.0872 21.2183 33.0586 21.3474 33.003C21.4766 32.9474 21.5939 32.8658 21.6927 32.763C21.7914 32.6601 21.8697 32.538 21.923 32.4037C21.9763 32.2693 22.0036 32.1254 22.0033 31.98C22.0028 31.6872 21.8906 31.4066 21.6913 31.1998C21.4919 30.993 21.2217 30.8769 20.9401 30.8772ZM34.9151 30.8772C34.6335 30.8769 34.3633 30.993 34.164 31.1998C33.9646 31.4066 33.8524 31.6872 33.852 31.98C33.8516 32.1254 33.8789 32.2693 33.9322 32.4037C33.9855 32.538 34.0638 32.6601 34.1626 32.763C34.2613 32.8658 34.3786 32.9474 34.5078 33.003C34.6369 33.0586 34.7754 33.0872 34.9151 33.0871C35.0549 33.0871 35.1932 33.0584 35.3222 33.0028C35.4513 32.9471 35.5685 32.8655 35.6672 32.7627C35.7659 32.6598 35.8441 32.5378 35.8973 32.4035C35.9506 32.2692 35.9778 32.1253 35.9775 31.98C35.9771 31.6874 35.8649 31.4069 35.6658 31.2001C35.4666 30.9933 35.1966 30.8772 34.9151 30.8772Z" fill="white" stroke="white" stroke-width="0.67"/>
</g>
<defs>
<clipPath id="clip0_14_99">
<rect width="60" height="60" fill="white"/>
</clipPath>
</defs>
</svg>
