<svg width="60" height="60" viewBox="0 0 60 60" fill="none" xmlns="http://www.w3.org/2000/svg">
<g clip-path="url(#clip0_5_145)">
<path d="M10.0931 24.7167C10.0916 24.6319 10.0898 24.5473 10.0898 24.4624C10.0898 16.3646 16.6544 9.80001 24.7522 9.80001C31.7306 9.80001 37.5698 14.6753 39.051 21.2057C40.4323 20.4325 42.0233 19.9898 43.7187 19.9898C49.0089 19.9898 53.2975 24.2783 53.2975 29.5686C53.2975 29.7848 53.2878 29.9987 53.2736 30.2113C57.201 31.6693 60 35.4496 60 39.8843C60 45.5814 55.3816 50.2 49.6843 50.2H12.8946C5.77316 50.1998 0 44.4267 0 37.3052C0 31.1458 4.31877 25.9961 10.0931 24.7167Z" fill="#0077BB"/>
<g clip-path="url(#clip1_5_145)">
<path d="M27.2325 21.6C27.1315 21.6145 26.8068 21.6653 26.511 21.7089C23.3511 22.1661 20.1335 23.9879 18.0196 26.5137C16.6994 28.1032 15.6533 30.1355 15.1483 32.0806C14.7804 33.496 14.7371 34.0548 14.6794 37.9597C14.6216 41.3202 14.5495 42.7936 14.4124 43.1129C14.3908 43.171 14.3547 43.3815 14.3403 43.5774C14.3259 43.7734 14.2826 43.9984 14.2393 44.0637C14.2032 44.1363 14.1743 44.2597 14.1743 44.3395C14.1743 44.4266 14.1383 44.4919 14.095 44.4919C14.0517 44.4919 14.0373 44.5427 14.0589 44.6081C14.0878 44.6734 14.0733 44.7677 14.0445 44.8113C13.9507 44.9347 13.8786 45.1597 13.9507 45.1161C13.9796 45.0944 13.994 45.1597 13.9723 45.254C13.9579 45.3556 13.9146 45.4137 13.8786 45.3919C13.7776 45.3339 13.7992 45.5516 13.9074 45.6387C13.9507 45.675 14.0733 45.7331 14.1743 45.7548C14.2753 45.7839 14.4269 45.8419 14.5134 45.8855C14.6 45.929 14.7154 45.9436 14.7659 45.9218C14.8958 45.8782 15.2277 44.7823 15.3647 43.9476C15.5739 42.6556 15.6317 41.6468 15.6894 37.996C15.7254 35.9565 15.7832 34.0621 15.8265 33.7863C16.6633 28.4589 20.4581 24.2202 25.5371 22.9427C26.7058 22.6524 27.6798 22.5508 29.1082 22.5944C29.9307 22.6161 30.681 22.6742 31.0561 22.7468C33.7976 23.2984 36.0196 24.5032 38.0252 26.521C40.305 28.829 41.5964 31.6089 41.9427 34.9839C41.986 35.3613 42.0365 36.2468 42.0581 36.9435C42.188 40.8629 42.3395 42.7936 42.6425 44.4339L42.8301 45.4355H43.2774C43.5154 45.4282 43.7896 45.3919 43.8762 45.3411C44.0277 45.254 44.0349 45.2395 43.9267 45.0363C43.8617 44.9129 43.8112 44.6661 43.8184 44.4702C43.8184 44.2815 43.7896 44.1436 43.7607 44.1653C43.7246 44.1798 43.6814 44.1363 43.6597 44.0565C43.6381 43.9766 43.6525 43.9258 43.6886 43.9548C43.7246 43.9766 43.7535 43.9621 43.7535 43.9186C43.7535 43.8823 43.7174 43.8387 43.6814 43.8242C43.5948 43.7952 43.5371 43.3887 43.501 42.6194C43.4866 42.3363 43.4505 42.0605 43.4289 42.0242C43.4 41.9806 43.4866 41.9444 43.6236 41.9444L43.8617 41.9298L43.6453 41.9008C43.5299 41.879 43.4072 41.8427 43.3784 41.8137C43.3062 41.7484 43.1908 40.1226 43.1042 37.8145C42.9743 34.3597 42.8301 33.3 42.2673 31.5726C41.5531 29.3806 40.4637 27.5661 38.8621 25.904C36.6473 23.5887 33.7904 22.1081 30.6737 21.6653C30.01 21.571 27.7303 21.5274 27.2325 21.6Z" fill="white"/>
<path d="M20.9054 29.25C20.6962 29.3226 20.4293 29.4532 20.3138 29.5331C20.0758 29.7 19.513 30.3242 19.513 30.4185C19.513 30.4476 19.6285 30.5419 19.7727 30.6363L20.0325 30.796L20.3138 30.4694C20.9776 29.6782 22.0309 29.5839 22.8461 30.2298L23.1563 30.4839L23.3727 30.2661C23.6325 30.0048 23.5964 29.9032 23.0914 29.5621C22.4277 29.1048 21.6124 28.9887 20.9054 29.25Z" fill="white"/>
<path d="M35.2405 29.2935C34.8725 29.4315 34.418 29.729 34.1655 30.0048C33.9924 30.1863 33.9924 30.1935 34.1295 30.346C34.4036 30.6508 34.4974 30.6581 34.7932 30.3677C35.4858 29.6782 36.5174 29.6855 37.2605 30.3823C37.4481 30.5565 37.6285 30.7016 37.6645 30.7016C37.7006 30.7016 37.8232 30.6145 37.9315 30.5202L38.1335 30.3387L37.9675 30.121C37.7655 29.8452 37.477 29.6202 37.0441 29.3952C36.6184 29.1702 35.7166 29.1194 35.2405 29.2935Z" fill="white"/>
<path d="M21.2589 31.4347C20.4293 31.5798 19.5852 32.2403 19.1884 33.0605C19.0008 33.4524 18.9792 33.5686 18.9719 34.2581C18.9719 34.9548 18.9864 35.0565 19.1812 35.4556C19.3038 35.6952 19.5419 36.0436 19.715 36.2323C21.0064 37.6186 23.2212 37.4008 24.2313 35.7895C24.7579 34.9548 24.7651 33.5468 24.2529 32.7702C23.5603 31.7323 22.4421 31.2315 21.2589 31.4347ZM21.8216 32.7919C22.3411 33.3145 22.3555 33.9315 21.8505 34.4613L21.5403 34.7806L21.1074 34.7516C20.7467 34.7226 20.624 34.6863 20.4437 34.5048C20.0108 34.0984 19.917 33.6484 20.1623 33.1186C20.3427 32.7048 20.6601 32.5161 21.1651 32.5161C21.5114 32.5161 21.5764 32.5379 21.8216 32.7919Z" fill="white"/>
<path d="M35.5796 31.4274C34.6561 31.6669 33.8409 32.4435 33.5451 33.3726C33.3431 33.9823 33.4152 34.9113 33.711 35.5065C34.5695 37.2629 36.9214 37.6548 38.2922 36.2758C39.7062 34.846 39.2661 32.4435 37.4265 31.5944C36.9864 31.3911 36.0629 31.304 35.5796 31.4274ZM37.3976 32.5524C37.7222 32.7194 37.9675 33.0677 38.0253 33.4234C38.0613 33.6847 38.0397 33.8153 37.9026 34.0911C37.6934 34.5048 37.4553 34.6935 37.0657 34.7444C36.4453 34.8242 35.8609 34.2798 35.8609 33.6121C35.8609 32.7629 36.6978 32.1895 37.3976 32.5524Z" fill="white"/>
<path d="M27.7375 33.3871C27.0449 33.5685 26.7347 33.7065 26.1431 34.0839C25.1764 34.7008 24.4116 35.7315 24.1591 36.7403C24.0509 37.1976 24.0437 37.9742 24.1447 38.8306C24.1663 38.9903 24.123 39.0194 23.5892 39.1573C22.8461 39.3605 22.3339 39.5565 21.5908 39.9194C20.9703 40.2242 19.7222 41.0589 19.679 41.204C19.6645 41.2476 19.7295 41.371 19.8232 41.4871C19.9964 41.6831 20.0036 41.6903 20.1695 41.5669C20.689 41.1823 21.5547 40.6379 21.9299 40.4419C22.4782 40.1661 23.4593 39.8177 24.0148 39.7016C24.4261 39.6145 24.4477 39.6218 24.5703 39.7815C24.6425 39.8758 24.7074 39.9774 24.7074 39.9992C24.7074 40.0282 24.4621 40.1661 24.1591 40.3113C23.8633 40.4565 23.38 40.725 23.0986 40.9137C22.4565 41.3492 21.1146 42.6411 20.8044 43.1274L20.5663 43.4976L20.7683 43.6645C20.8766 43.7589 20.992 43.8387 21.0208 43.8387C21.0497 43.8387 21.1796 43.7081 21.3094 43.5411C21.7784 42.9605 22.6585 42.0532 23.113 41.6831C23.6469 41.2548 24.794 40.6452 25.0681 40.6452C25.1691 40.6452 25.2918 40.7105 25.3351 40.7831C25.4144 40.9137 25.3784 40.9573 24.9671 41.2548C24.3323 41.7121 23.4954 42.6339 23.1491 43.2653C22.7451 43.9984 22.2689 45.0871 22.2401 45.3266C22.2184 45.5008 22.2545 45.5371 22.4854 45.6242L22.7523 45.7185L22.9471 45.196C23.2212 44.4629 23.6685 43.5774 23.9643 43.1855C24.592 42.3581 25.703 41.371 26.006 41.371C26.0637 41.371 26.2297 41.4435 26.3667 41.5379C26.5038 41.6323 26.915 41.8137 27.2685 41.9516C27.8457 42.1694 28.0188 42.1984 28.798 42.2274C29.9162 42.271 30.4862 42.1476 31.4457 41.6613L32.1599 41.2984L32.5279 41.4944C32.7443 41.6105 33.2421 42.046 33.7327 42.5323C34.5263 43.3234 34.584 43.4105 34.988 44.2379C35.2188 44.7169 35.4425 45.1452 35.4713 45.196C35.5218 45.254 35.6084 45.254 35.8032 45.2032C35.9475 45.1597 36.0774 45.1234 36.0918 45.1089C36.1279 45.0726 35.5796 43.9476 35.2549 43.4032C34.5984 42.3073 34.2305 41.9298 32.8236 40.9065C32.6794 40.8048 32.6794 40.7976 32.8381 40.6379L33.004 40.471L33.4874 40.6306C34.5263 40.9645 35.7166 41.821 36.8854 43.0694C37.1018 43.2944 37.2966 43.4758 37.3327 43.4758C37.3687 43.4758 37.4842 43.396 37.5996 43.3016L37.7944 43.1274L37.3399 42.6121C36.7699 41.9661 36.2866 41.5234 35.6373 41.0589C35.1539 40.7177 33.9202 40.0573 33.5884 39.9702C33.4297 39.9339 33.4297 39.9266 33.5451 39.7016C33.675 39.4548 33.6677 39.4548 34.6633 39.6653C35.7166 39.8976 37.0585 40.471 37.8521 41.0444L38.1912 41.2911L38.3715 41.0661C38.4725 40.9355 38.5303 40.8048 38.5086 40.7685C38.4437 40.6524 37.5347 40.0935 36.9359 39.7887C36.2577 39.4548 35.1828 39.0919 34.4758 38.9685C34.2016 38.925 33.9707 38.8742 33.9563 38.8669C33.9419 38.8597 33.9707 38.6347 34.0212 38.3661C34.115 37.8 34.0285 36.9653 33.7976 36.3121C33.3287 34.9621 31.9435 33.7863 30.378 33.3871C29.6204 33.1911 28.4878 33.1984 27.7375 33.3871ZM30.0461 34.2944C31.3086 34.5847 32.2393 35.2887 32.7659 36.3484C32.9968 36.8202 33.0329 36.9653 33.0617 37.5242C33.1122 38.6129 32.7082 39.5637 31.8786 40.2677C31.2509 40.8121 30.2986 41.1968 29.4329 41.2694C28.8341 41.3202 27.7808 41.1605 27.2613 40.9355C25.5515 40.1952 24.6786 38.5621 25.1042 36.9073C25.5948 35.0129 27.8962 33.8008 30.0461 34.2944Z" fill="white"/>
<path d="M28.495 35.1581C28.3363 35.2161 28.091 35.2815 27.9467 35.3032C27.8024 35.3323 27.6293 35.4121 27.5643 35.4847C27.3984 35.6661 27.2325 36.2395 27.2325 36.6024C27.2325 36.9218 27.42 37.1323 28.2136 37.7129L28.6537 38.0323L28.6249 38.4097C28.5816 38.8452 28.4517 39.0048 28.0261 39.121C27.7375 39.2008 27.5643 39.1645 27.3623 38.9903C27.2541 38.9032 27.2397 38.8089 27.2758 38.4968C27.319 38.1774 27.3046 38.1048 27.218 38.1048C27.1531 38.1048 27.0088 38.0831 26.8934 38.0613C26.677 38.0177 26.677 38.0177 26.6192 38.4387C26.5904 38.6637 26.5543 38.896 26.5327 38.9468C26.4822 39.0847 27.0665 39.6798 27.3551 39.7815C27.7086 39.8976 28.1703 39.8323 28.6321 39.5927L29.0216 39.3968L29.4184 39.5855C30.2048 39.9556 30.7748 39.8903 31.2725 39.375C31.5106 39.1282 31.5106 39.1282 31.4601 38.6056C31.4385 38.3226 31.4024 38.0613 31.3808 38.0323C31.3663 38.0032 31.2148 38.0177 31.0489 38.0613L30.7531 38.1411L30.7892 38.5185C30.818 38.8234 30.8036 38.9105 30.6954 39.0121C30.5222 39.1718 30.0605 39.1718 29.7647 39.0194C29.4978 38.8742 29.4906 38.8597 29.4329 38.4242L29.3824 38.0613L29.8874 37.6839C30.1615 37.4806 30.4934 37.1903 30.6232 37.0452C30.8397 36.7911 30.8541 36.7403 30.818 36.3992C30.7675 35.9202 30.5655 35.4847 30.3347 35.3758C30.0822 35.2524 29.2309 35.0565 28.9856 35.0565C28.8774 35.0637 28.6537 35.1073 28.495 35.1581Z" fill="white"/>
<path d="M43.9555 42.0024C43.9988 42.0169 44.0854 42.0169 44.1359 42.0024C44.1792 41.9806 44.1431 41.9661 44.0421 41.9661C43.9411 41.9661 43.905 41.9806 43.9555 42.0024Z" fill="white"/>
<path d="M12.2842 42.3145C12.414 42.3944 12.5655 42.4597 12.616 42.4597C12.6665 42.4597 12.7531 42.5032 12.8036 42.5613C12.8469 42.6194 12.9335 42.6484 12.9984 42.6266C13.085 42.5903 13.0778 42.5613 12.9407 42.4887C12.8469 42.4379 12.7026 42.3871 12.6232 42.3871C12.5439 42.3871 12.414 42.3363 12.3419 42.2782C12.2625 42.2202 12.1615 42.1694 12.1255 42.1694C12.0822 42.1694 12.1543 42.2347 12.2842 42.3145Z" fill="white"/>
<path d="M13.3735 42.7573C13.5034 42.8371 13.6261 42.8879 13.6477 42.8661C13.6838 42.8298 13.287 42.6048 13.186 42.6048C13.1571 42.6048 13.2365 42.6702 13.3735 42.7573Z" fill="white"/>
<path d="M13.8858 42.9895C13.8858 43.004 13.9651 43.0839 14.0661 43.171C14.2393 43.3234 14.2465 43.3234 14.2465 43.1855C14.2465 43.0911 14.2104 43.0548 14.1383 43.0839C14.0806 43.1129 14.0301 43.0911 14.0301 43.0476C14.0301 43.004 14.0012 42.9677 13.9579 42.9677C13.9218 42.9677 13.8858 42.975 13.8858 42.9895Z" fill="white"/>
</g>
</g>
<defs>
<clipPath id="clip0_5_145">
<rect width="60" height="60" fill="white"/>
</clipPath>
<clipPath id="clip1_5_145">
<rect x="13" y="21" width="31" height="26" fill="white"/>
</clipPath>
</defs>
</svg>
