<svg width="auto" height="auto" viewBox="0 0 24 24" fill="none" xmlns="http://www.w3.org/2000/svg"> <path d="M16 5.44336V4.64336C16 3.52325 16 2.9632 15.782 2.53538C15.5903 2.15905 15.2843 1.85309 14.908 1.66135C14.4802 1.44336 13.9201 1.44336 12.8 1.44336H11.2C10.0799 1.44336 9.51984 1.44336 9.09202 1.66135C8.71569 1.85309 8.40973 2.15905 8.21799 2.53538C8 2.9632 8 3.52325 8 4.64336V5.44336M3 5.44336H21M19 5.44336V16.6434C19 18.3235 19 19.1636 18.673 19.8053C18.3854 20.3698 17.9265 20.8288 17.362 21.1164C16.7202 21.4434 15.8802 21.4434 14.2 21.4434H9.8C8.11984 21.4434 7.27976 21.4434 6.63803 21.1164C6.07354 20.8288 5.6146 20.3698 5.32698 19.8053C5 19.1636 5 18.3235 5 16.6434V5.44336M12 16.5053L12 10.5053M12 10.5053L15 13.5053M12 10.5053L9 13.5053" stroke="currentColor" stroke-width="2" stroke-linecap="round" stroke-linejoin="round"/> </svg>