<svg width="100" height="100" viewBox="0 0 100 100" fill="none" xmlns="http://www.w3.org/2000/svg">
<path d="M66.6667 22.6806V19.3473C66.6667 14.6801 66.6667 12.3466 65.7584 10.564C64.9594 8.99598 63.6846 7.72114 62.1166 6.9222C60.334 6.01392 58.0004 6.01392 53.3333 6.01392H46.6667C41.9996 6.01392 39.666 6.01392 37.8834 6.9222C36.3154 7.72114 35.0406 8.99598 34.2416 10.564C33.3333 12.3466 33.3333 14.6801 33.3333 19.3473V22.6806M12.5 22.6806H87.5M79.1667 22.6806V69.3473C79.1667 76.3479 79.1667 79.8482 77.8042 82.5221C76.6058 84.8742 74.6936 86.7864 72.3415 87.9848C69.6677 89.3473 66.1673 89.3473 59.1667 89.3473H40.8333C33.8327 89.3473 30.3323 89.3473 27.6585 87.9848C25.3064 86.7864 23.3942 84.8742 22.1958 82.5221C20.8333 79.8482 20.8333 76.3479 20.8333 69.3473V22.6806M50 68.7718L50 43.7718M50 43.7718L62.5 56.2718M50 43.7718L37.5 56.2718" stroke="black" stroke-width="8.2" stroke-linecap="round" stroke-linejoin="round"/>
</svg>
