<svg width="100" height="100" viewBox="0 0 100 100" fill="none" xmlns="http://www.w3.org/2000/svg">
<path d="M43.75 8.3449C40.9373 8.38302 39.2487 8.54586 37.8834 9.24153C36.3154 10.0405 35.0406 11.3153 34.2416 12.8833C33.5459 14.2487 33.3831 15.9372 33.345 18.7499M81.25 8.3449C84.0627 8.38302 85.7513 8.54586 87.1166 9.24153C88.6846 10.0405 89.9594 11.3153 90.7584 12.8833C91.4541 14.2487 91.6169 15.9372 91.655 18.7499M91.655 56.2499C91.6169 59.0626 91.4541 60.7512 90.7584 62.1165C89.9594 63.6845 88.6846 64.9594 87.1166 65.7583C85.7513 66.454 84.0627 66.6168 81.25 66.6549M91.6667 33.3332V41.6666M58.3335 8.33325H66.6665M21.6667 91.6666H53.3333C58.0004 91.6666 60.334 91.6666 62.1166 90.7583C63.6846 89.9594 64.9594 88.6845 65.7584 87.1165C66.6667 85.3339 66.6667 83.0004 66.6667 78.3333V46.6666C66.6667 41.9995 66.6667 39.6659 65.7584 37.8833C64.9594 36.3153 63.6846 35.0405 62.1166 34.2415C60.334 33.3333 58.0004 33.3333 53.3333 33.3333H21.6667C16.9996 33.3333 14.666 33.3333 12.8834 34.2415C11.3154 35.0405 10.0406 36.3153 9.24161 37.8833C8.33333 39.6659 8.33333 41.9995 8.33333 46.6666V78.3333C8.33333 83.0004 8.33333 85.3339 9.24161 87.1165C10.0406 88.6845 11.3154 89.9594 12.8834 90.7583C14.666 91.6666 16.9996 91.6666 21.6667 91.6666Z" stroke="black" stroke-width="8.2" stroke-linecap="round" stroke-linejoin="round"/>
</svg>
