<svg width="100" height="100" viewBox="0 0 100 100" fill="none" xmlns="http://www.w3.org/2000/svg">
<path d="M54.1652 45.8332L14.5818 85.4165M58.4086 14.7435C63.4837 18.111 68.3617 22.0811 72.92 26.6394C77.5176 31.237 81.5168 36.1599 84.9029 41.2822M38.5608 32.9004L26.5822 28.9076C25.2027 28.4477 23.6833 28.7404 22.5732 29.6796L10.6684 39.753C8.23116 41.8152 8.92357 45.7398 11.9193 46.8435L23.1993 50.9993M48.6695 76.4687L52.8253 87.7487C53.929 90.7445 57.8536 91.4369 59.9158 88.9997L69.9892 77.0949C70.9285 75.9848 71.2211 74.4653 70.7612 73.0858L66.7684 61.1072M80.6176 9.46122L60.174 12.8685C57.9665 13.2364 55.9417 14.3214 54.4128 15.9558L26.8583 45.4105C19.716 53.0454 19.9147 64.9686 27.3074 72.3614C34.7001 79.7541 46.6233 79.9527 54.2582 72.8104L83.713 45.256C85.3473 43.7271 86.4323 41.7023 86.8003 39.4948L90.2075 19.0512C91.1476 13.411 86.2578 8.52119 80.6176 9.46122Z" stroke="black" stroke-width="8.2" stroke-linecap="round" stroke-linejoin="round"/>
</svg>
