<svg width="auto" height="auto" viewBox="0 0 24 24" fill="none" xmlns="http://www.w3.org/2000/svg"> <path d="M11.5 5H11.9344C14.9816 5 16.5053 5 17.0836 5.54729C17.5836 6.02037 17.8051 6.71728 17.6702 7.39221C17.514 8.17302 16.2701 9.05285 13.7823 10.8125L9.71772 13.6875C7.2299 15.4471 5.98599 16.327 5.82984 17.1078C5.69486 17.7827 5.91642 18.4796 6.41636 18.9527C6.99474 19.5 8.51836 19.5 11.5656 19.5H12.5M8 5C8 6.65685 6.65685 8 5 8C3.34315 8 2 6.65685 2 5C2 3.34315 3.34315 2 5 2C6.65685 2 8 3.34315 8 5ZM22 19C22 20.6569 20.6569 22 19 22C17.3431 22 16 20.6569 16 19C16 17.3431 17.3431 16 19 16C20.6569 16 22 17.3431 22 19Z" stroke="currentColor" stroke-width="2" stroke-linecap="round" stroke-linejoin="round"/> </svg>