<svg width="100" height="100" viewBox="0 0 100 100" fill="none" xmlns="http://www.w3.org/2000/svg">
<path d="M47.9166 20.8335H49.7266C62.4234 20.8335 68.7719 20.8335 71.1817 23.1139C73.2649 25.085 74.188 27.9888 73.6256 30.801C72.975 34.0544 67.792 37.7204 57.4261 45.0524L40.4904 57.0313C30.1245 64.3633 24.9415 68.0293 24.2909 71.2826C23.7285 74.0948 24.6517 76.9986 26.7348 78.9698C29.1447 81.2502 35.4931 81.2502 48.1899 81.2502H52.0833M33.3333 20.8335C33.3333 27.7371 27.7368 33.3335 20.8333 33.3335C13.9297 33.3335 8.33325 27.7371 8.33325 20.8335C8.33325 13.9299 13.9297 8.3335 20.8333 8.3335C27.7368 8.3335 33.3333 13.9299 33.3333 20.8335ZM91.6666 79.1668C91.6666 86.0704 86.0702 91.6668 79.1666 91.6668C72.263 91.6668 66.6666 86.0704 66.6666 79.1668C66.6666 72.2633 72.263 66.6668 79.1666 66.6668C86.0702 66.6668 91.6666 72.2633 91.6666 79.1668Z" stroke="black" stroke-width="8.2" stroke-linecap="round" stroke-linejoin="round"/>
</svg>
