<svg version="1" xmlns="http://www.w3.org/2000/svg" width="420" height="420" viewBox="0 0 315.000000 315.000000"><path d="M163 13.3v6.4l-38.3 22.1-38.2 22.1h-34c-2.8.1-3 .3-3.2 4.5-.2 3.4.1 4.5 1.5 4.8.9.2 16 .3 33.5.2 17.4 0 31.7.2 31.8.5.1.3.2 10.3.4 22.1.1 11.8.3 21.8.4 22.2 0 .5 5.5.8 12 .8h11.9l-.1-22.8-.1-22.7 11.2-.1H163V204l3.5.1c1.9.1 4.1.2 4.7.3 1 .1 1.3-13.7 1.3-65.3V73.7l3.3-.3 3.2-.2.1 66.6v66.7l4.8 3.1 4.7 3.2v-69c-.1-38 .1-69.3.4-69.7.3-.4 17.2-.7 37.5-.7h37l.3-4.6.3-4.6-8.3-.3-8.3-.4-37-21.4c-20.3-11.8-37.2-21.6-37.5-21.8-.3-.3-.5-2.8-.6-5.6-.1-2.9-.2-5.8-.3-6.5-.1-.7-1.7-1.2-4.6-1.2H163v6.3zm0 34.1v16.5h-28.2c-28 0-28.3 0-25.8-1.9 1.4-1 4.3-2.8 6.5-4 2.2-1.1 13.5-7.6 25-14.4 11.6-6.9 21.3-12.5 21.8-12.5.4-.1.7 7.3.7 16.3zm28.6-5.4c7.5 4.4 13.7 8 13.9 8 .1 0 4.5 2.5 9.6 5.7 5.2 3.1 10.5 6.2 11.9 6.9 2.1 1.1-2 1.3-26 1.1l-28.5-.2V47.3l-.1-16.1 2.8 1.4c1.5.8 8.9 5 16.4 9.4zm-55.4 40.5c0 4.9-.1 9.7-.1 10.5-.1 1.3-1.5 1.6-7.3 1.5l-7.3-.1-.5-10.5-.5-10.6 7.8.1 7.9.1v9zm-12.3 23.9c.1 6.6-.2 8.5-1.4 9-.8.3-1.5.2-1.6-.2-.4-3.4-.5-15-.1-16 .2-.6 1-1.2 1.7-1.2.9 0 1.3 2.3 1.4 8.4zm6.7.4c0 4.5-.3 8.2-.8 8.2-.4 0-1.1.1-1.5.2-.5.2-.8-3.7-.9-8.5 0-7.5.2-8.7 1.5-8.5 1.3.3 1.6 1.9 1.7 8.6zm6.9 0c.1 7.2-.1 8.2-1.6 8.2-1.6 0-1.8-1-1.7-8.5.1-7.3.3-8.5 1.7-8.3 1.3.3 1.6 1.8 1.6 8.6z"/><path d="M61.9 108c0 .3-.1 5.7-.2 12l-.1 11.5 12.2.3 12.2.3v-24.6H74c-6.6 0-12 .2-12.1.5zm7.1 11.4c0 8-1 11.1-2.6 8.5-.5-.9-.8-8.6-.5-15.2.1-.9.8-1.7 1.6-1.7 1.2 0 1.5 1.6 1.5 8.4zm7-.1c0 8.6-.3 9.9-2.3 9.1-.8-.3-1.1-3-1-7.7.2-10 .1-9.7 1.8-9.7 1.2 0 1.5 1.6 1.5 8.3zm6.8-.3c.3 8.4-.2 10.7-2.1 9.2-.9-.7-1.2-3.6-1.1-8.9.2-9.2.1-8.6 1.7-8.1.8.3 1.3 3 1.5 7.8zM89.4 107.9c-.2.2-.4 5.8-.4 12.3V132h24.5l-.1-11.3c-.1-6.1-.2-11.7-.3-12.2-.1-1-22.7-1.5-23.7-.6zm7.2 11.2c.1 8.6-.3 10-2.2 9.2-1-.4-1.4-2.5-1.4-8.2 0-4.3.3-8.1.7-8.5 1.8-1.8 2.8.7 2.9 7.5zm6.5-7.4c.4 3.9.3 15.7-.2 16.5-1.7 2.7-2.9-.9-2.9-8.8 0-6.8.3-8.4 1.5-8.4.8 0 1.5.3 1.6.7zm7 .5c.5 5.5.3 13.6-.4 15.1-1.6 3.6-2.7.4-2.7-7.9 0-6.8.3-8.4 1.5-8.4.8 0 1.5.6 1.6 1.2zM94.3 134.8l-5.3.3v12c0 8.8.3 11.9 1.3 12 1.7.1 15.5.1 19.7 0l3.5-.1-.1-10.8c-.1-5.9-.2-11.4-.3-12.2-.1-1.5-6.2-1.9-18.8-1.2zm2.2 12.3c0 6.8-.3 8.4-1.5 8.4s-1.6-1.6-1.8-7.3c-.4-8.1.1-10.6 2.1-9.9.8.2 1.2 2.9 1.2 8.8zm6.6-7.4c.5 5.9.3 14.6-.2 15.5-.4.6-1.2.7-1.8.4-1.2-.8-1.6-15.8-.4-16.9 1.2-1.2 2.3-.7 2.4 1zm7-1c0 .5.1 4.4.2 8.8 0 6.3-.2 8-1.4 8-1.1 0-1.5-1.9-1.7-8.8-.2-7.3 0-8.7 1.3-8.7.8 0 1.5.3 1.6.7zM120 134.8l-3.5.3-.1 11.9c0 7.6.4 12 1.1 12.1 4.6.3 21.5 0 22.3-.5.5-.3 1-5.7 1-12.1l.1-11.5-5.7-.1c-3.1 0-7-.1-8.7-.2-1.6-.1-4.6-.1-6.5.1zm3.4 4.8c1 2.7.7 15.2-.5 15.9-.6.4-1.3.4-1.6.1-.7-.7-1.2-15.7-.6-16.9.7-1.2 2.1-.8 2.7.9zm7.3 6c.2 7.9-.4 10.7-2 10.1-.8-.2-1.2-3.2-1.3-8.3-.1-8.5.1-9.7 1.9-9.1.7.2 1.3 3.1 1.4 7.3zm6.9 0c.2 8.5-.3 10.5-2.2 9.7-1.1-.4-1.4-2.2-1.3-8.2.2-8.3.5-9.4 2.2-8.8.8.2 1.2 3 1.3 7.3zM61.9 136.7c-.4 9-.3 21.6.3 21.9.7.4 13.9.7 21.1.5l2.7-.1v-24H74c-10.7 0-12 .2-12.1 1.7zM69 147c0 5-.4 9-.9 9-1.6 0-2.2-1.7-2.2-7.2-.2-9.6 0-10.8 1.6-10.8 1.2 0 1.5 1.7 1.5 9zm6.8-.5c.3 7.2-.7 10.9-2.4 9.2-.4-.4-.7-3.5-.7-6.9.1-10.2.2-11 1.6-10.6.8.3 1.3 3.1 1.5 8.3zm7 0c.2 4.7-.1 8.2-.8 8.9-1.8 1.8-2.6-.8-2.4-8.6.2-9.3.2-9 1.7-8.6.8.3 1.3 3.1 1.5 8.3zM59.4 166.7c-3.1 7.2-4.3 13.6-4 21.2.5 12.5 4.9 22.4 13.7 31.1 4.1 4.1 5.4 4.8 7.2 4.1 1.2-.4 3.9-.7 5.9-.6 3.6.1 3.8-.1 6.8-6.2 8.2-16.7 29.1-23.3 47.6-15.2 2.4 1.1 4.6 2.4 4.9 2.9 2.5 4.1 5.4-3.3 5.9-15.3.4-8-.6-14-3.5-20.7l-2.1-5H61l-1.6 3.7z"/><path d="M118.5 202.8c-6 .9-11 2.8-15.1 5.7-5.2 3.7-11 11.3-11.9 15.6-.6 2.4-1.2 2.9-3.8 3-9.6.2-17.3 3.5-23.7 10-6 6.2-8.4 12.1-8.6 20.9-.3 10.2 2.1 16.5 9.1 23.5 6.6 6.6 12.5 9 22 9 6.7 0 7.1.1 8.9 3 2.6 4.2 7.3 8.3 13.1 11.3 4.2 2.2 6.3 2.6 13 2.6 9.5 0 16.9-2.9 22.8-8.9l3.7-3.8 6.1 3.3c13 6.9 29.4 3.7 38.8-7.6 5.3-6.5 7.2-11.7 7.3-20.4.2-7-.2-8.6-2.8-13.7-2.6-5-2.9-6.4-2.1-9.3 2.3-8.9-1.7-22.2-8.9-29.4-9.8-9.8-22.8-11.7-38.1-5.5-3 1.2-3.4 1.1-5.8-1.4-5.1-5-17.1-9-24-7.9z"/></svg>