<svg width="auto" height="auto" viewBox="0 0 24 24" fill="none" xmlns="http://www.w3.org/2000/svg"> <path d="M20.7914 12.6075C21.0355 12.3982 21.1575 12.2936 21.2023 12.1691C21.2415 12.0598 21.2415 11.9403 21.2023 11.831C21.1575 11.7065 21.0355 11.6019 20.7914 11.3926L12.3206 4.13202C11.9004 3.77182 11.6903 3.59172 11.5124 3.58731C11.3578 3.58348 11.2101 3.6514 11.1124 3.77128C11 3.90921 11 4.18595 11 4.73942V9.03468C8.86532 9.40813 6.91159 10.4898 5.45971 12.1139C3.87683 13.8846 3.00123 16.176 3 18.551V19.163C4.04934 17.8989 5.35951 16.8766 6.84076 16.166C8.1467 15.5395 9.55842 15.1684 11 15.0706V19.2607C11 19.8141 11 20.0909 11.1124 20.2288C11.2101 20.3487 11.3578 20.4166 11.5124 20.4128C11.6903 20.4084 11.9004 20.2283 12.3206 19.8681L20.7914 12.6075Z" stroke="currentColor" stroke-width="2" stroke-linecap="round" stroke-linejoin="round"/> </svg>