<svg width="100" height="100" viewBox="0 0 100 100" fill="none" xmlns="http://www.w3.org/2000/svg">
<path d="M86.6307 52.5309C87.6478 51.659 88.1564 51.2231 88.3428 50.7043C88.5063 50.249 88.5063 49.751 88.3428 49.2957C88.1564 48.7769 87.6478 48.341 86.6307 47.4691L51.336 17.2165C49.585 15.7157 48.7095 14.9653 47.9683 14.9469C47.3242 14.931 46.7088 15.214 46.3018 15.7134C45.8333 16.2882 45.8333 17.4413 45.8333 19.7474V37.6443C36.9388 39.2004 28.7983 43.7073 22.7488 50.4744C16.1534 57.8521 12.5051 67.3998 12.5 77.2957V79.8457C16.8723 74.5786 22.3313 70.3188 28.5032 67.358C33.9446 64.7476 39.8267 63.2013 45.8333 62.7939V80.2526C45.8333 82.5587 45.8333 83.7118 46.3018 84.2866C46.7088 84.786 47.3242 85.069 47.9683 85.0531C48.7095 85.0347 49.585 84.2843 51.336 82.7835L86.6307 52.5309Z" stroke="black" stroke-width="8.2" stroke-linecap="round" stroke-linejoin="round"/>
</svg>
