<svg width="36" height="40" viewBox="0 0 36 40" fill="none" xmlns="http://www.w3.org/2000/svg">
<path d="M14.3817 5.28003C22.1592 5.28003 28.4649 11.5865 28.4649 19.365C28.4649 27.1435 22.1592 33.45 14.3817 33.45C6.60065 33.4535 0.294922 27.1435 0.294922 19.365C0.294922 11.5865 6.60065 5.28003 14.3817 5.28003Z" fill="#E0F2FE"/>
<path d="M14.3797 23.5025C16.98 23.5025 19.0879 21.3946 19.0879 18.7943L19.0879 16.3519L16.7331 16.3519M14.3797 23.5025C11.7795 23.5025 9.67156 21.3946 9.67156 18.7943L9.67156 16.3519L16.7331 16.3519M14.3797 23.5025C14.3797 24.9593 14.3797 26.5726 16.7331 26.5726L17.7794 26.5726M16.7331 16.3519L16.7331 13.4274M12.0216 16.3519L12.0216 13.4274" stroke="#0086C9" stroke-width="1.33" stroke-linecap="round" stroke-linejoin="round"/>
</svg>
