<svg width="100" height="100" viewBox="0 0 100 100" fill="none" xmlns="http://www.w3.org/2000/svg">
<path d="M50 8.33337V18.75M50 8.33337C26.9881 8.33337 8.33334 26.9882 8.33334 50M50 8.33337C73.0119 8.33337 91.6667 26.9882 91.6667 50M50 81.25V91.6667M50 91.6667C73.0119 91.6667 91.6667 73.0119 91.6667 50M50 91.6667C26.9881 91.6667 8.33334 73.0119 8.33334 50M18.75 50H8.33334M91.6667 50H81.25M79.4935 79.4935L72.1029 72.1029M20.5068 79.4935L27.9048 72.0955M20.5068 20.8334L27.742 28.0686M79.4935 20.8334L56.2496 43.75M58.3333 50C58.3333 54.6024 54.6024 58.3334 50 58.3334C45.3976 58.3334 41.6667 54.6024 41.6667 50C41.6667 45.3977 45.3976 41.6667 50 41.6667C54.6024 41.6667 58.3333 45.3977 58.3333 50Z" stroke="black" stroke-width="8.2" stroke-linecap="round" stroke-linejoin="round"/>
</svg>
