<svg width="100" height="100" viewBox="0 0 100 100" fill="none" xmlns="http://www.w3.org/2000/svg">
<path d="M33.3333 33.3335H33.375M8.33332 21.6668L8.33331 40.3106C8.33331 42.3489 8.33331 43.368 8.56356 44.3271C8.7677 45.1774 9.10441 45.9903 9.56131 46.7359C10.0767 47.5768 10.7973 48.2975 12.2386 49.7387L44.1912 81.6913C49.1414 86.6416 51.6165 89.1167 54.4706 90.044C56.9811 90.8597 59.6855 90.8597 62.196 90.044C65.0501 89.1167 67.5252 86.6416 72.4755 81.6913L81.6912 72.4756C86.6414 67.5254 89.1165 65.0503 90.0438 62.1962C90.8596 59.6857 90.8596 56.9813 90.0438 54.4708C89.1165 51.6167 86.6414 49.1416 81.6912 44.1914L49.7385 12.2387C48.2973 10.7975 47.5767 10.0768 46.7357 9.56149C45.9901 9.10459 45.1772 8.76789 44.3269 8.56375C43.3678 8.3335 42.3487 8.3335 40.3105 8.3335L21.6666 8.3335C16.9995 8.3335 14.666 8.3335 12.8834 9.24178C11.3154 10.0407 10.0405 11.3156 9.2416 12.8836C8.33332 14.6662 8.33332 16.9997 8.33332 21.6668Z" stroke="black" stroke-width="8.2" stroke-linecap="round" stroke-linejoin="round"/>
</svg>
