<svg width="auto" height="auto" viewBox="0 0 24 24" fill="none" xmlns="http://www.w3.org/2000/svg"> <path d="M8 8H8.01M2 5.2L2 9.67451C2 10.1637 2 10.4083 2.05526 10.6385C2.10425 10.8425 2.18506 11.0376 2.29472 11.2166C2.4184 11.4184 2.59135 11.5914 2.93726 11.9373L10.6059 19.6059C11.7939 20.7939 12.388 21.388 13.0729 21.6105C13.6755 21.8063 14.3245 21.8063 14.927 21.6105C15.612 21.388 16.2061 20.7939 17.3941 19.6059L19.6059 17.3941C20.7939 16.2061 21.388 15.612 21.6105 14.927C21.8063 14.3245 21.8063 13.6755 21.6105 13.0729C21.388 12.388 20.7939 11.7939 19.6059 10.6059L11.9373 2.93726C11.5914 2.59135 11.4184 2.4184 11.2166 2.29472C11.0376 2.18506 10.8425 2.10425 10.6385 2.05526C10.4083 2 10.1637 2 9.67451 2L5.2 2C4.0799 2 3.51984 2 3.09202 2.21799C2.7157 2.40973 2.40973 2.71569 2.21799 3.09202C2 3.51984 2 4.07989 2 5.2Z" stroke="currentColor" stroke-width="2" stroke-linecap="round" stroke-linejoin="round"/> </svg>