<svg width="auto" height="auto" viewBox="0 0 24 24" fill="none" xmlns="http://www.w3.org/2000/svg"> <path d="M21 11L13.4059 3.40589C12.887 2.88703 12.6276 2.6276 12.3249 2.44208C12.0564 2.27759 11.7638 2.15638 11.4577 2.08289C11.1124 2 10.7455 2 10.0118 2L6 2M7.9282 9.85725H7.9382M3 8.7L3 10.6745C3 11.1637 3 11.4083 3.05526 11.6385C3.10425 11.8425 3.18506 12.0376 3.29472 12.2166C3.4184 12.4184 3.59136 12.5914 3.93726 12.9373L11.7373 20.7373C12.5293 21.5293 12.9253 21.9253 13.382 22.0737C13.7837 22.2042 14.2163 22.2042 14.618 22.0737C15.0747 21.9253 15.4707 21.5293 16.2627 20.7373L18.7373 18.2627C19.5293 17.4707 19.9253 17.0747 20.0737 16.618C20.2042 16.2163 20.2042 15.7837 20.0737 15.382C19.9253 14.9253 19.5293 14.5293 18.7373 13.7373L11.4373 6.43726C11.0914 6.09136 10.9184 5.9184 10.7166 5.79472C10.5376 5.68506 10.3425 5.60425 10.1385 5.55526C9.90829 5.5 9.6637 5.5 9.17452 5.5H6.2C5.07989 5.5 4.51984 5.5 4.09202 5.71799C3.7157 5.90973 3.40973 6.2157 3.21799 6.59202C3 7.01984 3 7.5799 3 8.7Z" stroke="currentColor" stroke-width="2" stroke-linecap="round" stroke-linejoin="round"/> </svg>