<svg width="100" height="100" viewBox="0 0 100 100" fill="none" xmlns="http://www.w3.org/2000/svg">
<path d="M87.5 45.8335L55.8579 14.1914C53.696 12.0295 52.615 10.9485 51.3536 10.1755C50.2352 9.49014 49.0158 8.98508 47.7404 8.67887C46.3018 8.3335 44.7731 8.3335 41.7157 8.3335L25 8.3335M33.0342 41.072H33.0758M12.5 36.2502L12.5 44.4773C12.5 46.5156 12.5 47.5347 12.7303 48.4938C12.9344 49.3441 13.2711 50.1569 13.728 50.9025C14.2433 51.7435 14.964 52.4641 16.4052 53.9054L48.9052 86.4054C52.2054 89.7056 53.8555 91.3556 55.7582 91.9739C57.4319 92.5177 59.2348 92.5177 60.9085 91.9739C62.8112 91.3556 64.4613 89.7056 67.7614 86.4054L78.0719 76.0949C81.372 72.7948 83.0221 71.1447 83.6404 69.242C84.1842 67.5683 84.1842 65.7654 83.6404 64.0917C83.0221 62.189 81.3721 60.5389 78.0719 57.2387L47.6552 26.8221C46.214 25.3808 45.4933 24.6602 44.6524 24.1448C43.9068 23.6879 43.0939 23.3512 42.2436 23.1471C41.2845 22.9168 40.2654 22.9168 38.2272 22.9168H25.8333C21.1662 22.9168 18.8327 22.9168 17.0501 23.8251C15.4821 24.6241 14.2072 25.8989 13.4083 27.4669C12.5 29.2495 12.5 31.5831 12.5 36.2502Z" stroke="black" stroke-width="8.2" stroke-linecap="round" stroke-linejoin="round"/>
</svg>
