<svg width="36" height="40" viewBox="0 0 36 40" fill="none" xmlns="http://www.w3.org/2000/svg">
<path d="M14.3817 5.28009C22.1592 5.28009 28.4649 11.5864 28.4649 19.3646C28.4649 27.1428 22.1592 33.4491 14.3817 33.4491C6.60065 33.4526 0.294922 27.1428 0.294922 19.3646C0.294922 11.5864 6.60065 5.28009 14.3817 5.28009Z" fill="#E0F2FE"/>
<path fill-rule="evenodd" clip-rule="evenodd" d="M19.3533 15.103C19.4222 14.6894 19.0636 14.3308 18.65 14.3997L16.5794 14.7448C17.02 15.0919 17.4471 15.4705 17.8568 15.8803C18.2726 16.296 18.6563 16.7296 19.0076 17.1771L19.3533 15.103ZM18.5628 18.5987C18.1171 17.947 17.5985 17.319 17.0083 16.7288C16.4237 16.1442 15.8021 15.6299 15.1571 15.1871L12.8847 17.6163C12.8799 17.6216 12.875 17.6269 12.87 17.632L11.1762 19.4426C10.4928 20.1731 10.397 21.2469 10.8789 22.0734L14.2825 18.6698C14.5168 18.4355 14.8967 18.4355 15.131 18.6698C15.3654 18.9041 15.3654 19.284 15.131 19.5184L11.7409 22.9085C12.5586 23.3509 13.5978 23.2434 14.3104 22.5767L16.1186 20.8852C16.1253 20.8786 16.1322 20.8722 16.1392 20.8659L18.5628 18.5987ZM17.2294 21.4893L19.4111 19.4484C19.7449 19.1361 19.9666 18.7225 20.0417 18.2715L20.5369 15.3003C20.7412 14.0745 19.6785 13.0117 18.4527 13.2161L15.4814 13.7113C15.0305 13.7864 14.6169 14.0081 14.3046 14.3419L12.2636 16.5236L10.8877 16.065C10.4885 15.9319 10.0489 16.0166 9.72772 16.2884L7.99751 17.7524C7.29234 18.3491 7.49268 19.4846 8.35946 19.8039L9.46051 20.2096C9.2529 21.1392 9.43813 22.1371 10.0118 22.9405L8.52958 24.4228C8.29527 24.6571 8.29527 25.037 8.52958 25.2713C8.7639 25.5056 9.1438 25.5056 9.37811 25.2713L10.8688 23.7806C11.6623 24.3233 12.6355 24.4952 13.5434 24.2925L13.949 25.3934C14.2684 26.2602 15.4039 26.4605 16.0006 25.7554L17.4646 24.0251C17.7364 23.704 17.8211 23.2643 17.688 22.8652L17.2294 21.4893ZM16.2652 22.3913L15.1302 23.4531C14.9793 23.5942 14.8189 23.7192 14.6511 23.8278L15.0751 24.9786C15.0755 24.9797 15.0759 24.9806 15.0762 24.9812C15.0769 24.9815 15.0779 24.9819 15.0793 24.9821M15.0826 24.9824C15.0831 24.9819 15.0837 24.9812 15.0845 24.9802L16.5486 23.25C16.5498 23.2485 16.5502 23.2465 16.5496 23.2447L16.2652 22.3913M9.92511 19.1019C10.0338 18.9341 10.1587 18.7737 10.2999 18.6228L11.3616 17.4878L10.5082 17.2034C10.5064 17.2028 10.5043 17.2032 10.5029 17.2044L8.77264 18.6684C8.77168 18.6693 8.77098 18.6699 8.77049 18.6704" fill="#0086C9"/>
</svg>
