<svg width="100" height="100" viewBox="0 0 100 100" fill="none" xmlns="http://www.w3.org/2000/svg">
<path d="M25 25L43.75 43.75M25 25H12.5L8.33337 12.5L12.5 8.33337L25 12.5V25ZM80.2458 11.4209L69.2974 22.3693C67.6474 24.0194 66.8223 24.8444 66.5132 25.7958C66.2413 26.6326 66.2413 27.5341 66.5132 28.3709C66.8223 29.3223 67.6474 30.1473 69.2974 31.7974L70.286 32.786C71.9361 34.4361 72.7611 35.2611 73.7125 35.5702C74.5493 35.8421 75.4508 35.8421 76.2876 35.5702C77.239 35.2611 78.064 34.4361 79.7141 32.786L89.9554 22.5447C91.0584 25.2287 91.6667 28.1683 91.6667 31.25C91.6667 43.9066 81.4066 54.1667 68.75 54.1667C67.2242 54.1667 65.7331 54.0176 64.2907 53.7331C62.2651 53.3336 61.2523 53.1339 60.6383 53.195C59.9856 53.2601 59.6639 53.358 59.0855 53.6675C58.5415 53.9586 57.9958 54.5043 56.9043 55.5957L27.0834 85.4166C23.6316 88.8684 18.0352 88.8684 14.5834 85.4166C11.1316 81.9649 11.1316 76.3684 14.5834 72.9166L44.4043 43.0957C45.4958 42.0043 46.0415 41.4586 46.3326 40.9146C46.6421 40.3362 46.74 40.0145 46.805 39.3618C46.8662 38.7478 46.6665 37.735 46.267 35.7094C45.9825 34.2669 45.8334 32.7759 45.8334 31.25C45.8334 18.5935 56.0935 8.33337 68.75 8.33337C72.9396 8.33337 76.8666 9.45764 80.2458 11.4209ZM50.0003 62.4998L72.9167 85.4163C76.3685 88.868 81.9649 88.868 85.4167 85.4163C88.8684 81.9645 88.8684 76.368 85.4166 72.9162L66.5639 54.0638C65.2293 53.9375 63.928 53.6967 62.67 53.3514C61.0489 52.9065 59.2706 53.2294 58.082 54.4181L50.0003 62.4998Z" stroke="black" stroke-width="8.2" stroke-linecap="round" stroke-linejoin="round"/>
</svg>
