<svg width="37" height="40" viewBox="0 0 37 40" fill="none" xmlns="http://www.w3.org/2000/svg">
<path d="M14.8817 5.28003C22.6592 5.28003 28.9649 11.5865 28.9649 19.365C28.9649 27.1435 22.6592 33.45 14.8817 33.45C7.10065 33.4535 0.794922 27.1435 0.794922 19.365C0.794922 11.5865 7.10065 5.28003 14.8817 5.28003Z" fill="#E0F2FE"/>
<path fill-rule="evenodd" clip-rule="evenodd" d="M12.7962 13.2812C13.6421 13.25 14.484 13.411 15.2587 13.7521C16.0335 14.0932 16.7208 14.6054 17.269 15.2504C17.7155 15.7756 18.0603 16.3778 18.2874 17.0259H18.6307C19.4583 17.0264 20.2625 17.3025 20.9157 17.8107C21.569 18.3188 22.0344 19.03 22.2385 19.8321C22.4427 20.6341 22.3739 21.4812 22.0431 22.2398C21.7123 22.9984 21.1382 23.6253 20.4116 24.0214C20.1207 24.18 19.7562 24.0728 19.5976 23.7818C19.439 23.4909 19.5463 23.1264 19.8372 22.9678C20.3298 22.6993 20.7189 22.2744 20.9431 21.7602C21.1674 21.246 21.214 20.6717 21.0756 20.128C20.9372 19.5844 20.6217 19.1023 20.1789 18.7579C19.7362 18.4134 19.1913 18.2262 18.6303 18.2259H17.8432C17.5696 18.2259 17.3307 18.0409 17.2623 17.7761C17.0958 17.1321 16.7855 16.5343 16.3547 16.0276C15.924 15.5209 15.3839 15.1184 14.7752 14.8504C14.1665 14.5824 13.505 14.4559 12.8403 14.4804C12.1757 14.5049 11.5253 14.6797 10.9379 14.9918C10.3506 15.3038 9.84163 15.745 9.44932 16.282C9.05701 16.8191 8.79156 17.4381 8.67291 18.0925C8.55427 18.7469 8.58553 19.4197 8.76434 20.0603C8.94315 20.7009 9.26486 21.2927 9.70528 21.7911C9.92471 22.0394 9.9013 22.4185 9.65299 22.638C9.40468 22.8574 9.02551 22.834 8.80608 22.5857C8.24555 21.9514 7.8361 21.1983 7.60853 20.383C7.38095 19.5677 7.34116 18.7114 7.49216 17.8785C7.64316 17.0456 7.98101 16.2577 8.48031 15.5742C8.97961 14.8907 9.62738 14.3292 10.3749 13.9321C11.1224 13.5349 11.9503 13.3124 12.7962 13.2812ZM14.4564 19.0766C14.6907 18.8423 15.0706 18.8423 15.3049 19.0766L17.8049 21.5766C18.0393 21.8109 18.0393 22.1908 17.8049 22.4251C17.5706 22.6594 17.1907 22.6594 16.9564 22.4251L15.4807 20.9494V25.1259C15.4807 25.4572 15.212 25.7259 14.8807 25.7259C14.5493 25.7259 14.2807 25.4572 14.2807 25.1259V20.9494L12.8049 22.4251C12.5706 22.6594 12.1907 22.6594 11.9564 22.4251C11.7221 22.1908 11.7221 21.8109 11.9564 21.5766L14.4564 19.0766Z" fill="#0086C9"/>
</svg>
