<svg width="36" height="40" viewBox="0 0 36 40" fill="none" xmlns="http://www.w3.org/2000/svg">
<path d="M14.3817 5.28009C22.1592 5.28009 28.4649 11.5864 28.4649 19.3646C28.4649 27.1428 22.1592 33.4491 14.3817 33.4491C6.60065 33.4526 0.294922 27.1428 0.294922 19.3646C0.294922 11.5864 6.60065 5.28009 14.3817 5.28009Z" fill="#E0F2FE"/>
<path fill-rule="evenodd" clip-rule="evenodd" d="M8.76176 18.7646H11.3097C11.4479 17.0118 12.0382 15.3298 13.0159 13.8805C10.7429 14.4441 9.01305 16.3839 8.76176 18.7646ZM14.3803 14.0432C13.3165 15.4037 12.6679 17.0435 12.5139 18.7646H16.2467C16.0926 17.0435 15.4441 15.4037 14.3803 14.0432ZM16.2467 19.9646C16.0926 21.6858 15.4441 23.3256 14.3803 24.6861C13.3165 23.3256 12.6679 21.6858 12.5139 19.9646H16.2467ZM11.3097 19.9646H8.76176C9.01305 22.3454 10.7429 24.2852 13.0159 24.8488C12.0382 23.3995 11.4479 21.7175 11.3097 19.9646ZM15.7446 24.8488C16.7223 23.3995 17.3127 21.7175 17.4509 19.9646H19.9988C19.7475 22.3454 18.0177 24.2852 15.7446 24.8488ZM19.9988 18.7646H17.4509C17.3127 17.0118 16.7223 15.3298 15.7446 13.8805C18.0177 14.4441 19.7475 16.3839 19.9988 18.7646ZM7.53027 19.3646C7.53027 15.5815 10.5971 12.5146 14.3803 12.5146C18.1634 12.5146 21.2303 15.5815 21.2303 19.3646C21.2303 23.1478 18.1634 26.2146 14.3803 26.2146C10.5971 26.2146 7.53027 23.1478 7.53027 19.3646Z" fill="#0086C9"/>
</svg>
