<svg width="auto" height="auto" viewBox="0 0 24 24" fill="none" xmlns="http://www.w3.org/2000/svg"> <path d="M10.4501 18.2458C11.4236 17.8052 12.6334 17.8052 13.607 18.2458M6.89134 9.77925C3.80785 10.096 1.98499 10.8154 1.98499 11.5156C1.98499 12.5419 6.46887 13.3738 12 13.3738C17.5312 13.3738 22.0151 12.5419 22.0151 11.5156C22.0151 10.9132 20.408 10.2181 18.0131 9.87855M6.92499 9.65762L8.96939 3.50522L11.0023 4.9422C11.0023 4.9422 12.43 4.34395 13.2384 3.99414C14.3824 3.49911 16.0514 2.99414 16.0514 2.99414L17.0091 6.32588L17.9668 9.65762M9.52539 16.7852C10.7583 17.7507 10.7583 19.3162 9.52539 20.2817C8.29249 21.2472 6.29356 21.2472 5.06066 20.2817C3.82776 19.3162 3.82776 17.7507 5.06066 16.7852C6.29356 15.8197 8.29248 15.8197 9.52539 16.7852ZM18.9965 16.7852C20.2294 17.7507 20.2294 19.3162 18.9965 20.2817C17.7636 21.2472 15.7647 21.2472 14.5318 20.2817C13.2989 19.3162 13.2989 17.7507 14.5318 16.7852C15.7647 15.8197 17.7636 15.8197 18.9965 16.7852Z" stroke="currentColor" stroke-width="2" stroke-linecap="round" stroke-linejoin="round"/> </svg>