<svg width="100" height="100" viewBox="0 0 100 100" fill="none" xmlns="http://www.w3.org/2000/svg">
<path d="M22.1512 80.9934C24.6859 75.0217 30.6038 70.8334 37.5 70.8334H62.5C69.3961 70.8334 75.314 75.0217 77.8487 80.9934M66.6666 39.5834C66.6666 48.7881 59.2047 56.25 50 56.25C40.7952 56.25 33.3333 48.7881 33.3333 39.5834C33.3333 30.3786 40.7952 22.9167 50 22.9167C59.2047 22.9167 66.6666 30.3786 66.6666 39.5834ZM91.6667 50C91.6667 73.0119 73.0119 91.6667 50 91.6667C26.9881 91.6667 8.33331 73.0119 8.33331 50C8.33331 26.9882 26.9881 8.33337 50 8.33337C73.0119 8.33337 91.6667 26.9882 91.6667 50Z" stroke="black" stroke-width="8.2" stroke-linecap="round" stroke-linejoin="round"/>
</svg>
