<svg width="100" height="100" viewBox="0 0 100 100" fill="none" xmlns="http://www.w3.org/2000/svg">
<path d="M70.8333 87.5V79.1667C70.8333 74.7464 69.0774 70.5072 65.9518 67.3816C62.8262 64.256 58.5869 62.5 54.1667 62.5H20.8333C16.413 62.5 12.1738 64.256 9.04821 67.3816C5.9226 70.5072 4.16666 74.7464 4.16666 79.1667V87.5" stroke="currentColor" stroke-width="8.2" stroke-linecap="round" stroke-linejoin="round"/>
<path d="M37.5 45.8333C46.7048 45.8333 54.1667 38.3714 54.1667 29.1667C54.1667 19.9619 46.7048 12.5 37.5 12.5C28.2953 12.5 20.8333 19.9619 20.8333 29.1667C20.8333 38.3714 28.2953 45.8333 37.5 45.8333Z" stroke="currentColor" stroke-width="8.2" stroke-linecap="round" stroke-linejoin="round"/>
<path d="M88.5417 35.4166V28.1249C88.5417 24.0978 85.2771 20.8333 81.25 20.8333C77.2229 20.8333 73.9583 24.0978 73.9583 28.1249V35.4166M73.3333 52.0833H89.1667C91.5002 52.0833 92.667 52.0832 93.5583 51.6291C94.3423 51.2296 94.9797 50.5922 95.3792 49.8082C95.8333 48.9169 95.8333 47.7501 95.8333 45.4166V42.0833C95.8333 39.7497 95.8333 38.5829 95.3792 37.6916C94.9797 36.9076 94.3423 36.2702 93.5583 35.8707C92.667 35.4166 91.5002 35.4166 89.1667 35.4166H73.3333C70.9998 35.4166 69.833 35.4166 68.9417 35.8707C68.1577 36.2702 67.5203 36.9076 67.1208 37.6916C66.6667 38.5829 66.6667 39.7497 66.6667 42.0833V45.4166C66.6667 47.7501 66.6667 48.9169 67.1208 49.8082C67.5203 50.5922 68.1577 51.2296 68.9417 51.6291C69.833 52.0832 70.9998 52.0833 73.3333 52.0833Z" stroke="currentColor" stroke-width="8.2" stroke-linecap="round" stroke-linejoin="round"/>
</svg>
