<svg width="auto" height="auto" viewBox="0 0 24 24" fill="none" xmlns="http://www.w3.org/2000/svg"> <path d="M17 21V19C17 17.9391 16.5786 16.9217 15.8284 16.1716C15.0783 15.4214 14.0609 15 13 15H5C3.93913 15 2.92172 15.4214 2.17157 16.1716C1.42143 16.9217 1 17.9391 1 19V21M21.25 8.5V6.75C21.25 5.7835 20.4665 5 19.5 5C18.5335 5 17.75 5.7835 17.75 6.75V8.5M13 7C13 9.20914 11.2091 11 9 11C6.79086 11 5 9.20914 5 7C5 4.79086 6.79086 3 9 3C11.2091 3 13 4.79086 13 7ZM17.6 12.5H21.4C21.9601 12.5 22.2401 12.5 22.454 12.391C22.6422 12.2951 22.7951 12.1422 22.891 11.954C23 11.7401 23 11.4601 23 10.9V10.1C23 9.53995 23 9.25992 22.891 9.04601C22.7951 8.85785 22.6422 8.70487 22.454 8.60899C22.2401 8.5 21.9601 8.5 21.4 8.5H17.6C17.0399 8.5 16.7599 8.5 16.546 8.60899C16.3578 8.70487 16.2049 8.85785 16.109 9.04601C16 9.25992 16 9.53995 16 10.1V10.9C16 11.4601 16 11.7401 16.109 11.954C16.2049 12.1422 16.3578 12.2951 16.546 12.391C16.7599 12.5 17.0399 12.5 17.6 12.5Z" stroke="currentColor" stroke-width="2" stroke-linecap="round" stroke-linejoin="round"/> </svg>