<svg width="190" height="46" viewBox="0 0 190 46" fill="none" xmlns="http://www.w3.org/2000/svg">
<g clip-path="url(#clip0_10456_446383)">
<path fill-rule="evenodd" clip-rule="evenodd" d="M10.8935 10.002H10.1953V13.6602H10.8935V10.002Z" fill="#13BEF9"/>
<path fill-rule="evenodd" clip-rule="evenodd" d="M13.8954 10.002H13.1973V13.6602H13.8954V10.002Z" fill="#13BEF9"/>
<path fill-rule="evenodd" clip-rule="evenodd" d="M17.9981 3.0204L17.2824 1.76562L5.34381 8.7464L6.0594 10.0012L17.9981 3.0204Z" fill="#13BEF9"/>
<path fill-rule="evenodd" clip-rule="evenodd" d="M17.9277 3.0204L18.6434 1.76562L30.5821 8.7464L29.8664 10.0012L17.9277 3.0204Z" fill="#13BEF9"/>
<path fill-rule="evenodd" clip-rule="evenodd" d="M32.6936 10.0195V8.57031H-0.015625V10.0195H32.6936Z" fill="#13BEF9"/>
<path fill-rule="evenodd" clip-rule="evenodd" d="M19.7422 30.4842V9.01172H21.1734V31.5269C20.7894 31.0851 20.3007 30.767 19.7422 30.4842Z" fill="#13BEF9"/>
<path fill-rule="evenodd" clip-rule="evenodd" d="M17.2988 30.1135V-0.177734H18.7301V30.2902C18.3286 30.0958 17.3512 30.1135 17.2988 30.1135Z" fill="#13BEF9"/>
<path fill-rule="evenodd" clip-rule="evenodd" d="M3.73725 33.1359C1.99182 31.8282 0.839844 29.7428 0.839844 27.3746C0.839844 26.1198 1.17147 24.8827 1.78237 23.8047H14.0003C14.6287 24.8827 14.9429 26.1198 14.9429 27.3746C14.9429 28.4703 14.8032 29.4953 14.3669 30.4143C13.4418 29.513 12.0804 29.1242 10.7015 29.1242C8.2579 29.1242 6.1634 30.6617 5.6223 32.9592C5.4303 32.9415 5.3081 32.9239 5.1161 32.9239C4.6449 32.9415 4.1911 33.0122 3.73725 33.1359Z" fill="#13BEF9"/>
<path fill-rule="evenodd" clip-rule="evenodd" d="M9.74131 15.2852H6.04102V19.0495H9.74131V15.2852Z" fill="#13BEF9"/>
<path fill-rule="evenodd" clip-rule="evenodd" d="M5.5694 15.2852H1.86914V19.0495H5.5694V15.2852Z" fill="#13BEF9"/>
<path fill-rule="evenodd" clip-rule="evenodd" d="M5.5694 19.4746H1.86914V23.2389H5.5694V19.4746Z" fill="#13BEF9"/>
<path fill-rule="evenodd" clip-rule="evenodd" d="M9.74131 19.4746H6.04102V23.2389H9.74131V19.4746Z" fill="#13BEF9"/>
<path fill-rule="evenodd" clip-rule="evenodd" d="M13.8956 19.4746H10.1953V23.2389H13.8956V19.4746Z" fill="#13BEF9"/>
<path fill-rule="evenodd" clip-rule="evenodd" d="M13.8956 13.2715H10.1953V17.0358H13.8956V13.2715Z" fill="#13BEF9"/>
<path fill-rule="evenodd" clip-rule="evenodd" d="M6.2331 33.702C6.7392 31.5282 8.6767 29.9023 10.9806 29.9023C12.4642 29.9023 13.7908 30.5739 14.6984 31.6343C15.4838 31.0864 16.4263 30.7683 17.4561 30.7683C20.1441 30.7683 22.3259 32.9774 22.3259 35.699C22.3259 36.2646 22.2386 36.7948 22.0641 37.3073C22.6575 38.1202 23.024 39.1452 23.024 40.241C23.024 42.9626 20.8423 45.1717 18.1543 45.1717C16.9674 45.1717 15.8853 44.7475 15.0475 44.0406C14.1573 45.2954 12.7086 46.126 11.0679 46.126C9.1828 46.126 7.5421 45.0303 6.7218 43.4397C6.3902 43.5104 6.0585 43.5458 5.7094 43.5458C3.0215 43.5458 0.822266 41.3367 0.822266 38.6151C0.822266 35.8934 3.00404 33.6843 5.7094 33.6843C5.884 33.6667 6.0585 33.6667 6.2331 33.702Z" fill="#13BEF9"/>
<path d="M43.964 12.9406C44.4667 12.282 45.1513 11.7273 46.018 11.2766C46.8847 10.826 47.864 10.6006 48.956 10.6006C50.204 10.6006 51.3393 10.9126 52.362 11.5366C53.402 12.1433 54.2167 13.0013 54.806 14.1106C55.3953 15.22 55.69 16.494 55.69 17.9326C55.69 19.3713 55.3953 20.6626 54.806 21.8066C54.2167 22.9333 53.402 23.8173 52.362 24.4586C51.3393 25.0826 50.204 25.3946 48.956 25.3946C47.864 25.3946 46.8933 25.178 46.044 24.7446C45.1947 24.294 44.5013 23.7393 43.964 23.0806V31.9726H41V10.8346H43.964V12.9406ZM52.674 17.9326C52.674 16.9446 52.466 16.0953 52.05 15.3846C51.6513 14.6566 51.114 14.1106 50.438 13.7466C49.7793 13.3653 49.0687 13.1746 48.306 13.1746C47.5607 13.1746 46.85 13.3653 46.174 13.7466C45.5153 14.128 44.978 14.6826 44.562 15.4106C44.1633 16.1386 43.964 16.9966 43.964 17.9846C43.964 18.9726 44.1633 19.8393 44.562 20.5846C44.978 21.3126 45.5153 21.8673 46.174 22.2486C46.85 22.63 47.5607 22.8206 48.306 22.8206C49.0687 22.8206 49.7793 22.63 50.438 22.2486C51.114 21.85 51.6513 21.278 52.05 20.5326C52.466 19.7873 52.674 18.9206 52.674 17.9326Z" fill="white"/>
<path d="M64.8351 25.3946C63.4831 25.3946 62.2611 25.0913 61.1691 24.4846C60.0771 23.8606 59.2191 22.994 58.5951 21.8846C57.9711 20.758 57.6591 19.458 57.6591 17.9846C57.6591 16.5286 57.9798 15.2373 58.6211 14.1106C59.2624 12.984 60.1378 12.1173 61.2471 11.5106C62.3564 10.904 63.5958 10.6006 64.9651 10.6006C66.3344 10.6006 67.5738 10.904 68.6831 11.5106C69.7924 12.1173 70.6678 12.984 71.3091 14.1106C71.9504 15.2373 72.2711 16.5286 72.2711 17.9846C72.2711 19.4406 71.9418 20.732 71.2831 21.8586C70.6244 22.9853 69.7231 23.8606 68.5791 24.4846C67.4524 25.0913 66.2044 25.3946 64.8351 25.3946ZM64.8351 22.8206C65.5978 22.8206 66.3084 22.6386 66.9671 22.2746C67.6431 21.9106 68.1891 21.3646 68.6051 20.6366C69.0211 19.9086 69.2291 19.0246 69.2291 17.9846C69.2291 16.9446 69.0298 16.0693 68.6311 15.3586C68.2324 14.6306 67.7038 14.0846 67.0451 13.7206C66.3864 13.3566 65.6758 13.1746 64.9131 13.1746C64.1504 13.1746 63.4398 13.3566 62.7811 13.7206C62.1398 14.0846 61.6284 14.6306 61.2471 15.3586C60.8658 16.0693 60.6751 16.9446 60.6751 17.9846C60.6751 19.5273 61.0651 20.7233 61.8451 21.5726C62.6424 22.4046 63.6391 22.8206 64.8351 22.8206Z" fill="white"/>
<path d="M78.1652 12.9146C78.5985 12.1866 79.1705 11.6233 79.8812 11.2246C80.6092 10.8086 81.4672 10.6006 82.4552 10.6006V13.6686H81.7012C80.5398 13.6686 79.6558 13.9633 79.0492 14.5526C78.4598 15.142 78.1652 16.1646 78.1652 17.6206V25.1606H75.2012V10.8346H78.1652V12.9146Z" fill="white"/>
<path d="M88.6378 13.2526V21.1826C88.6378 21.72 88.7591 22.11 89.0018 22.3526C89.2618 22.578 89.6951 22.6906 90.3018 22.6906H92.1218V25.1606H89.7818C88.4471 25.1606 87.4245 24.8486 86.7138 24.2246C86.0031 23.6006 85.6478 22.5866 85.6478 21.1826V13.2526H83.9578V10.8346H85.6478V7.27258H88.6378V10.8346H92.1218V13.2526H88.6378Z" fill="white"/>
<path d="M93.8655 17.9326C93.8655 16.494 94.16 15.22 94.75 14.1106C95.356 13.0013 96.171 12.1433 97.194 11.5366C98.234 10.9126 99.378 10.6006 100.626 10.6006C101.752 10.6006 102.732 10.826 103.564 11.2766C104.413 11.71 105.089 12.256 105.592 12.9146V10.8346H108.582V25.1606H105.592V23.0286C105.089 23.7046 104.404 24.268 103.538 24.7186C102.671 25.1693 101.683 25.3946 100.574 25.3946C99.343 25.3946 98.216 25.0826 97.194 24.4586C96.171 23.8173 95.356 22.9333 94.75 21.8066C94.16 20.6626 93.8655 19.3713 93.8655 17.9326ZM105.592 17.9846C105.592 16.9966 105.384 16.1386 104.968 15.4106C104.569 14.6826 104.04 14.128 103.382 13.7466C102.723 13.3653 102.012 13.1746 101.25 13.1746C100.487 13.1746 99.776 13.3653 99.118 13.7466C98.459 14.1106 97.922 14.6566 97.506 15.3846C97.107 16.0953 96.908 16.9446 96.908 17.9326C96.908 18.9206 97.107 19.7873 97.506 20.5326C97.922 21.278 98.459 21.85 99.118 22.2486C99.794 22.63 100.504 22.8206 101.25 22.8206C102.012 22.8206 102.723 22.63 103.382 22.2486C104.04 21.8673 104.569 21.3126 104.968 20.5846C105.384 19.8393 105.592 18.9726 105.592 17.9846Z" fill="white"/>
<path d="M113.983 8.9366C113.445 8.9366 112.995 8.7546 112.631 8.3906C112.267 8.0266 112.085 7.576 112.085 7.0386C112.085 6.50129 112.267 6.05064 112.631 5.68664C112.995 5.32264 113.445 5.14062 113.983 5.14062C114.503 5.14062 114.945 5.32264 115.309 5.68664C115.673 6.05064 115.855 6.50129 115.855 7.0386C115.855 7.576 115.673 8.0266 115.309 8.3906C114.945 8.7546 114.503 8.9366 113.983 8.9366ZM115.439 10.8346V25.1606H112.475V10.8346H115.439Z" fill="white"/>
<path d="M126.558 10.6006C127.685 10.6006 128.69 10.8346 129.574 11.3026C130.475 11.7706 131.177 12.464 131.68 13.3826C132.183 14.3013 132.434 15.4106 132.434 16.7106V25.1606H129.496V17.1526C129.496 15.87 129.175 14.8906 128.534 14.2146C127.893 13.5213 127.017 13.1746 125.908 13.1746C124.799 13.1746 123.915 13.5213 123.256 14.2146C122.615 14.8906 122.294 15.87 122.294 17.1526V25.1606H119.33V10.8346H122.294V12.4726C122.779 11.8833 123.395 11.424 124.14 11.0946C124.903 10.7653 125.709 10.6006 126.558 10.6006Z" fill="white"/>
<path d="M149.345 17.6466C149.345 18.184 149.31 18.6693 149.241 19.1026H138.295C138.382 20.2466 138.806 21.1653 139.569 21.8586C140.332 22.552 141.268 22.8986 142.377 22.8986C143.972 22.8986 145.098 22.2313 145.757 20.8966H148.955C148.522 22.214 147.733 23.2973 146.589 24.1466C145.462 24.9786 144.058 25.3946 142.377 25.3946C141.008 25.3946 139.777 25.0913 138.685 24.4846C137.61 23.8606 136.761 22.994 136.137 21.8846C135.53 20.758 135.227 19.458 135.227 17.9846C135.227 16.5113 135.522 15.22 136.111 14.1106C136.718 12.984 137.558 12.1173 138.633 11.5106C139.725 10.904 140.973 10.6006 142.377 10.6006C143.729 10.6006 144.934 10.8953 145.991 11.4846C147.048 12.074 147.872 12.906 148.461 13.9806C149.05 15.038 149.345 16.26 149.345 17.6466ZM146.251 16.7106C146.234 15.6186 145.844 14.7433 145.081 14.0846C144.318 13.426 143.374 13.0966 142.247 13.0966C141.224 13.0966 140.349 13.426 139.621 14.0846C138.893 14.726 138.46 15.6013 138.321 16.7106H146.251Z" fill="white"/>
<path d="M155.226 12.9146C155.659 12.1866 156.231 11.6233 156.942 11.2246C157.67 10.8086 158.528 10.6006 159.516 10.6006V13.6686H158.762C157.6 13.6686 156.716 13.9633 156.11 14.5526C155.52 15.142 155.226 16.1646 155.226 17.6206V25.1606H152.262V10.8346H155.226V12.9146Z" fill="white"/>
<path d="M163.436 25.3426C162.899 25.3426 162.448 25.1606 162.084 24.7966C161.72 24.4326 161.538 23.982 161.538 23.4446C161.538 22.9073 161.72 22.4566 162.084 22.0926C162.448 21.7286 162.899 21.5466 163.436 21.5466C163.956 21.5466 164.398 21.7286 164.762 22.0926C165.126 22.4566 165.308 22.9073 165.308 23.4446C165.308 23.982 165.126 24.4326 164.762 24.7966C164.398 25.1606 163.956 25.3426 163.436 25.3426Z" fill="white"/>
<path d="M170.02 8.9366C169.482 8.9366 169.032 8.7546 168.668 8.3906C168.304 8.0266 168.122 7.576 168.122 7.0386C168.122 6.50129 168.304 6.05064 168.668 5.68664C169.032 5.32264 169.482 5.14062 170.02 5.14062C170.54 5.14062 170.982 5.32264 171.346 5.68664C171.71 6.05064 171.892 6.50129 171.892 7.0386C171.892 7.576 171.71 8.0266 171.346 8.3906C170.982 8.7546 170.54 8.9366 170.02 8.9366ZM171.476 10.8346V25.1606H168.512V10.8346H171.476Z" fill="white"/>
<path d="M181.581 25.3946C180.229 25.3946 179.007 25.0913 177.915 24.4846C176.823 23.8606 175.965 22.994 175.341 21.8846C174.717 20.758 174.405 19.458 174.405 17.9846C174.405 16.5286 174.726 15.2373 175.367 14.1106C176.009 12.984 176.884 12.1173 177.993 11.5106C179.103 10.904 180.342 10.6006 181.711 10.6006C183.081 10.6006 184.32 10.904 185.429 11.5106C186.539 12.1173 187.414 12.984 188.055 14.1106C188.697 15.2373 189.017 16.5286 189.017 17.9846C189.017 19.4406 188.688 20.732 188.029 21.8586C187.371 22.9853 186.469 23.8606 185.325 24.4846C184.199 25.0913 182.951 25.3946 181.581 25.3946ZM181.581 22.8206C182.344 22.8206 183.055 22.6386 183.713 22.2746C184.389 21.9106 184.935 21.3646 185.351 20.6366C185.767 19.9086 185.975 19.0246 185.975 17.9846C185.975 16.9446 185.776 16.0693 185.377 15.3586C184.979 14.6306 184.45 14.0846 183.791 13.7206C183.133 13.3566 182.422 13.1746 181.659 13.1746C180.897 13.1746 180.186 13.3566 179.527 13.7206C178.886 14.0846 178.375 14.6306 177.993 15.3586C177.612 16.0693 177.421 16.9446 177.421 17.9846C177.421 19.5273 177.811 20.7233 178.591 21.5726C179.389 22.4046 180.385 22.8206 181.581 22.8206Z" fill="white"/>
<path d="M61.4402 35.2345C61.7911 35.2971 62.0888 35.482 62.3332 35.7891C62.5776 36.0961 62.6998 36.4439 62.6998 36.8325C62.6998 37.1646 62.612 37.4654 62.4366 37.7349C62.2674 37.9981 62.0198 38.208 61.694 38.3647C61.3681 38.5151 60.989 38.5903 60.5566 38.5903H57.9434V32.0573H60.4344C60.8793 32.0573 61.2616 32.1325 61.5812 32.2829C61.9008 32.4333 62.142 32.6369 62.305 32.8939C62.4679 33.1445 62.5494 33.4264 62.5494 33.7398C62.5494 34.1158 62.4491 34.4292 62.2486 34.6799C62.048 34.9305 61.7786 35.1154 61.4402 35.2345ZM59.015 34.8021H60.3404C60.6913 34.8021 60.9639 34.7237 61.1582 34.5671C61.3587 34.4041 61.459 34.1722 61.459 33.8714C61.459 33.5768 61.3587 33.3481 61.1582 33.1852C60.9639 33.016 60.6913 32.9314 60.3404 32.9314H59.015V34.8021ZM60.4626 37.716C60.826 37.716 61.1112 37.6283 61.318 37.4529C61.5248 37.2774 61.6282 37.033 61.6282 36.7197C61.6282 36.4001 61.5185 36.1463 61.2992 35.9583C61.0798 35.7703 60.7884 35.6763 60.425 35.6763H59.015V37.716H60.4626Z" fill="#98A2B3"/>
<path d="M67.5585 32.0573V36.2215C67.5585 36.7165 67.6869 37.0893 67.9439 37.34C68.2071 37.5906 68.5705 37.716 69.0343 37.716C69.5043 37.716 69.8677 37.5906 70.1247 37.34C70.3879 37.0893 70.5195 36.7165 70.5195 36.2215V32.0573H71.5911V36.2027C71.5911 36.7353 71.4751 37.1865 71.2433 37.5563C71.0114 37.926 70.7012 38.2016 70.3127 38.3834C69.9241 38.5651 69.4949 38.6561 69.0249 38.6561C68.5549 38.6561 68.1256 38.5651 67.7371 38.3834C67.3548 38.2016 67.0509 37.926 66.8253 37.5563C66.5997 37.1865 66.4869 36.7353 66.4869 36.2027V32.0573H67.5585Z" fill="#98A2B3"/>
<path d="M77.7709 38.6561C77.3322 38.6561 76.9374 38.5809 76.5865 38.4305C76.2356 38.2738 75.9598 38.0545 75.7593 37.7725C75.5588 37.4905 75.4585 37.1615 75.4585 36.7855H76.6053C76.6304 37.0675 76.74 37.2993 76.9343 37.4811C77.1348 37.6628 77.4137 37.7537 77.7709 37.7537C78.1406 37.7537 78.4289 37.6659 78.6357 37.4905C78.8425 37.3087 78.9459 37.0769 78.9459 36.7949C78.9459 36.5755 78.8801 36.3969 78.7485 36.2591C78.6232 36.1212 78.4634 36.0147 78.2691 35.9395C78.0811 35.8643 77.8179 35.7828 77.4795 35.6951C77.0534 35.5823 76.7056 35.4695 76.4361 35.3567C76.1729 35.2376 75.9473 35.0559 75.7593 34.8115C75.5713 34.5671 75.4773 34.2412 75.4773 33.8339C75.4773 33.4579 75.5713 33.1289 75.7593 32.8469C75.9473 32.5649 76.2105 32.3487 76.5489 32.1983C76.8873 32.0479 77.279 31.9727 77.7239 31.9727C78.3568 31.9727 78.8738 32.1325 79.2749 32.4521C79.6822 32.7654 79.9078 33.1978 79.9517 33.7493H78.7673C78.7485 33.5111 78.6357 33.3075 78.4289 33.1383C78.2221 32.9691 77.9495 32.8845 77.6111 32.8845C77.304 32.8845 77.0534 32.9628 76.8591 33.1195C76.6648 33.2761 76.5677 33.5017 76.5677 33.7963C76.5677 33.9968 76.6272 34.1629 76.7463 34.2945C76.8716 34.4198 77.0283 34.5201 77.2163 34.5953C77.4043 34.6705 77.6612 34.7519 77.9871 34.8397C78.4195 34.9587 78.7704 35.0778 79.0399 35.1969C79.3156 35.3159 79.5475 35.5008 79.7355 35.7515C79.9298 35.9959 80.0269 36.3249 80.0269 36.7385C80.0269 37.0706 79.936 37.3839 79.7543 37.6785C79.5788 37.973 79.3188 38.2111 78.9741 38.3929C78.6357 38.5683 78.2346 38.6561 77.7709 38.6561Z" fill="#98A2B3"/>
<path d="M84.9949 32.0573V38.5903H83.9233V32.0573H84.9949Z" fill="#98A2B3"/>
<path d="M94.401 38.5903H93.3297L90.1055 33.7117V38.5903H89.0339V32.0479H90.1055L93.3297 36.917V32.0479H94.401V38.5903Z" fill="#98A2B3"/>
<path d="M99.5119 32.9221V34.8396H101.768V35.7139H99.5119V37.716H102.05V38.5903H98.4399V32.0479H102.05V32.9221H99.5119Z" fill="#98A2B3"/>
<path d="M108.155 38.6561C107.716 38.6561 107.321 38.5809 106.97 38.4305C106.619 38.2738 106.343 38.0545 106.143 37.7725C105.942 37.4905 105.842 37.1615 105.842 36.7855H106.989C107.014 37.0675 107.124 37.2993 107.318 37.4811C107.518 37.6628 107.797 37.7537 108.155 37.7537C108.524 37.7537 108.813 37.6659 109.019 37.4905C109.226 37.3087 109.33 37.0769 109.33 36.7949C109.33 36.5755 109.264 36.3969 109.132 36.2591C109.007 36.1212 108.847 36.0147 108.653 35.9395C108.465 35.8643 108.202 35.7828 107.863 35.6951C107.437 35.5823 107.089 35.4695 106.82 35.3567C106.557 35.2376 106.331 35.0559 106.143 34.8115C105.955 34.5671 105.861 34.2412 105.861 33.8339C105.861 33.4579 105.955 33.1289 106.143 32.8469C106.331 32.5649 106.594 32.3487 106.933 32.1983C107.271 32.0479 107.663 31.9727 108.108 31.9727C108.74 31.9727 109.257 32.1325 109.659 32.4521C110.066 32.7654 110.291 33.1978 110.335 33.7493H109.151C109.132 33.5111 109.019 33.3075 108.813 33.1383C108.606 32.9691 108.333 32.8845 107.995 32.8845C107.688 32.8845 107.437 32.9628 107.243 33.1195C107.048 33.2761 106.951 33.5017 106.951 33.7963C106.951 33.9968 107.011 34.1629 107.13 34.2945C107.255 34.4198 107.412 34.5201 107.6 34.5953C107.788 34.6705 108.045 34.7519 108.371 34.8397C108.803 34.9587 109.154 35.0778 109.424 35.1969C109.699 35.3159 109.931 35.5008 110.119 35.7515C110.313 35.9959 110.411 36.3249 110.411 36.7385C110.411 37.0706 110.32 37.3839 110.138 37.6785C109.962 37.973 109.702 38.2111 109.358 38.3929C109.019 38.5683 108.618 38.6561 108.155 38.6561Z" fill="#98A2B3"/>
<path d="M116.46 38.6561C116.021 38.6561 115.626 38.5809 115.275 38.4305C114.924 38.2738 114.649 38.0545 114.448 37.7725C114.247 37.4905 114.147 37.1615 114.147 36.7855H115.294C115.319 37.0675 115.429 37.2993 115.623 37.4811C115.824 37.6628 116.102 37.7537 116.46 37.7537C116.829 37.7537 117.118 37.6659 117.324 37.4905C117.531 37.3087 117.635 37.0769 117.635 36.7949C117.635 36.5755 117.569 36.3969 117.437 36.2591C117.312 36.1212 117.152 36.0147 116.958 35.9395C116.77 35.8643 116.507 35.7828 116.168 35.6951C115.742 35.5823 115.394 35.4695 115.125 35.3567C114.862 35.2376 114.636 35.0559 114.448 34.8115C114.26 34.5671 114.166 34.2412 114.166 33.8339C114.166 33.4579 114.26 33.1289 114.448 32.8469C114.636 32.5649 114.899 32.3487 115.238 32.1983C115.576 32.0479 115.968 31.9727 116.413 31.9727C117.046 31.9727 117.563 32.1325 117.964 32.4521C118.371 32.7654 118.597 33.1978 118.64 33.7493H117.456C117.437 33.5111 117.324 33.3075 117.118 33.1383C116.911 32.9691 116.638 32.8845 116.3 32.8845C115.993 32.8845 115.742 32.9628 115.548 33.1195C115.354 33.2761 115.256 33.5017 115.256 33.7963C115.256 33.9968 115.316 34.1629 115.435 34.2945C115.56 34.4198 115.717 34.5201 115.905 34.5953C116.093 34.6705 116.35 34.7519 116.676 34.8397C117.108 34.9587 117.459 35.0778 117.729 35.1969C118.004 35.3159 118.236 35.5008 118.424 35.7515C118.618 35.9959 118.716 36.3249 118.716 36.7385C118.716 37.0706 118.625 37.3839 118.443 37.6785C118.268 37.973 118.007 38.2111 117.663 38.3929C117.324 38.5683 116.923 38.6561 116.46 38.6561Z" fill="#98A2B3"/>
<path d="M128.757 32.9221V34.8396H131.013V35.7139H128.757V37.716H131.295V38.5903H127.686V32.0479H131.295V32.9221H128.757Z" fill="#98A2B3"/>
<path d="M137.381 32.0573C138.077 32.0573 138.685 32.1919 139.205 32.4614C139.731 32.7246 140.135 33.1068 140.417 33.6082C140.706 34.1032 140.85 34.683 140.85 35.3473C140.85 36.0115 140.706 36.5881 140.417 37.0769C140.135 37.5657 139.731 37.9416 139.205 38.2048C138.685 38.4617 138.077 38.5903 137.381 38.5903H135.247V32.0573H137.381ZM137.381 37.716C138.146 37.716 138.732 37.5092 139.139 37.0956C139.546 36.682 139.75 36.0993 139.75 35.3473C139.75 34.589 139.546 33.9968 139.139 33.5707C138.732 33.1445 138.146 32.9314 137.381 32.9314H136.319V37.716H137.381Z" fill="#98A2B3"/>
<path d="M145.615 32.0573V38.5903H144.544V32.0573H145.615Z" fill="#98A2B3"/>
<path d="M153.875 32.0573V32.9314H152.136V38.5903H151.064V32.9314H149.316V32.0573H153.875Z" fill="#98A2B3"/>
<path d="M158.664 32.0573V38.5903H157.592V32.0573H158.664Z" fill="#98A2B3"/>
<path d="M165.682 38.6561C165.075 38.6561 164.514 38.5151 164 38.2331C163.492 37.9448 163.088 37.5469 162.787 37.0393C162.493 36.5254 162.345 35.9489 162.345 35.3097C162.345 34.6705 162.493 34.0971 162.787 33.5895C163.088 33.0819 163.492 32.6871 164 32.4051C164.514 32.1168 165.075 31.9727 165.682 31.9727C166.297 31.9727 166.857 32.1168 167.365 32.4051C167.879 32.6871 168.283 33.0819 168.578 33.5895C168.872 34.0971 169.019 34.6705 169.019 35.3097C169.019 35.9489 168.872 36.5254 168.578 37.0393C168.283 37.5469 167.879 37.9448 167.365 38.2331C166.857 38.5151 166.297 38.6561 165.682 38.6561ZM165.682 37.7255C166.115 37.7255 166.5 37.6283 166.839 37.4341C167.177 37.2335 167.44 36.9515 167.628 36.5881C167.823 36.2183 167.92 35.7922 167.92 35.3097C167.92 34.8271 167.823 34.4041 167.628 34.0407C167.44 33.6772 167.177 33.3983 166.839 33.2041C166.5 33.0098 166.115 32.9127 165.682 32.9127C165.25 32.9127 164.865 33.0098 164.526 33.2041C164.188 33.3983 163.922 33.6772 163.727 34.0407C163.539 34.4041 163.445 34.8271 163.445 35.3097C163.445 35.7922 163.539 36.2183 163.727 36.5881C163.922 36.9515 164.188 37.2335 164.526 37.4341C164.865 37.6283 165.25 37.7255 165.682 37.7255Z" fill="#98A2B3"/>
<path d="M178.073 38.5903H177.002L173.778 33.7117V38.5903H172.706V32.0479H173.778L177.002 36.917V32.0479H178.073V38.5903Z" fill="#98A2B3"/>
</g>
<defs>
<clipPath id="clip0_10456_446383">
<rect width="190" height="46" fill="white"/>
</clipPath>
</defs>
</svg>
