<svg width="190" height="46" viewBox="0 0 190 46" fill="none" xmlns="http://www.w3.org/2000/svg">
<g clip-path="url(#clip0_10456_446427)">
<g filter="url(#filter0_dd_10456_446427)">
<path fill-rule="evenodd" clip-rule="evenodd" d="M10.8935 9.95117H10.1953V13.6094H10.8935V9.95117Z" fill="#13BEF9"/>
<path fill-rule="evenodd" clip-rule="evenodd" d="M13.8954 9.95117H13.1973V13.6094H13.8954V9.95117Z" fill="#13BEF9"/>
<path fill-rule="evenodd" clip-rule="evenodd" d="M17.998 2.96962L17.2823 1.71484L5.34375 8.6956L6.05935 9.9504L17.998 2.96962Z" fill="#13BEF9"/>
<path fill-rule="evenodd" clip-rule="evenodd" d="M17.9277 2.96962L18.6434 1.71484L30.5821 8.6956L29.8664 9.9504L17.9277 2.96962Z" fill="#13BEF9"/>
<path fill-rule="evenodd" clip-rule="evenodd" d="M32.6936 9.96873V8.51953H-0.015625V9.96873H32.6936Z" fill="#13BEF9"/>
<path fill-rule="evenodd" clip-rule="evenodd" d="M19.7422 30.4335V8.96094H21.1734V31.4762C20.7894 31.0344 20.3007 30.7163 19.7422 30.4335Z" fill="#13BEF9"/>
<path fill-rule="evenodd" clip-rule="evenodd" d="M17.2988 30.0627V-0.228516H18.7301V30.2395C18.3286 30.0451 17.3512 30.0627 17.2988 30.0627Z" fill="#13BEF9"/>
<path fill-rule="evenodd" clip-rule="evenodd" d="M3.73725 33.0852C1.99182 31.7774 0.839844 29.692 0.839844 27.3238C0.839844 26.069 1.17147 24.8319 1.78237 23.7539H14.0003C14.6287 24.8319 14.9429 26.069 14.9429 27.3238C14.9429 28.4195 14.8032 29.4446 14.3669 30.3635C13.4418 29.4622 12.0804 29.0734 10.7015 29.0734C8.2579 29.0734 6.1634 30.611 5.6223 32.9084C5.4303 32.8908 5.3081 32.8731 5.1161 32.8731C4.6449 32.8908 4.1911 32.9615 3.73725 33.0852Z" fill="#13BEF9"/>
<path fill-rule="evenodd" clip-rule="evenodd" d="M9.74131 15.2344H6.04102V18.9987H9.74131V15.2344Z" fill="#13BEF9"/>
<path fill-rule="evenodd" clip-rule="evenodd" d="M5.5694 15.2344H1.86914V18.9987H5.5694V15.2344Z" fill="#13BEF9"/>
<path fill-rule="evenodd" clip-rule="evenodd" d="M5.5694 19.4238H1.86914V23.1881H5.5694V19.4238Z" fill="#13BEF9"/>
<path fill-rule="evenodd" clip-rule="evenodd" d="M9.74131 19.4238H6.04102V23.1881H9.74131V19.4238Z" fill="#13BEF9"/>
<path fill-rule="evenodd" clip-rule="evenodd" d="M13.8956 19.4238H10.1953V23.1881H13.8956V19.4238Z" fill="#13BEF9"/>
<path fill-rule="evenodd" clip-rule="evenodd" d="M13.8956 13.2207H10.1953V16.985H13.8956V13.2207Z" fill="#13BEF9"/>
<path fill-rule="evenodd" clip-rule="evenodd" d="M6.2331 33.6512C6.7392 31.4775 8.6767 29.8516 10.9806 29.8516C12.4642 29.8516 13.7908 30.5231 14.6984 31.5835C15.4838 31.0356 16.4263 30.7175 17.4561 30.7175C20.1441 30.7175 22.3259 32.9266 22.3259 35.6483C22.3259 36.2138 22.2386 36.744 22.0641 37.2565C22.6575 38.0694 23.024 39.0945 23.024 40.1902C23.024 42.9118 20.8423 45.1209 18.1543 45.1209C16.9674 45.1209 15.8853 44.6968 15.0475 43.9898C14.1573 45.2446 12.7086 46.0752 11.0679 46.0752C9.1828 46.0752 7.5421 44.9795 6.7218 43.389C6.3902 43.4596 6.0585 43.495 5.7094 43.495C3.0215 43.495 0.822266 41.2859 0.822266 38.5643C0.822266 35.8427 3.00404 33.6336 5.7094 33.6336C5.884 33.6159 6.0585 33.6159 6.2331 33.6512Z" fill="#13BEF9"/>
</g>
<path d="M43.964 12.8898C44.4667 12.2312 45.1513 11.6765 46.018 11.2258C46.8847 10.7752 47.864 10.5498 48.956 10.5498C50.204 10.5498 51.3393 10.8618 52.362 11.4858C53.402 12.0925 54.2167 12.9505 54.806 14.0598C55.3953 15.1692 55.69 16.4432 55.69 17.8818C55.69 19.3205 55.3953 20.6118 54.806 21.7558C54.2167 22.8825 53.402 23.7665 52.362 24.4078C51.3393 25.0318 50.204 25.3438 48.956 25.3438C47.864 25.3438 46.8933 25.1272 46.044 24.6938C45.1947 24.2432 44.5013 23.6885 43.964 23.0298V31.9218H41V10.7838H43.964V12.8898ZM52.674 17.8818C52.674 16.8938 52.466 16.0445 52.05 15.3338C51.6513 14.6058 51.114 14.0598 50.438 13.6958C49.7793 13.3145 49.0687 13.1238 48.306 13.1238C47.5607 13.1238 46.85 13.3145 46.174 13.6958C45.5153 14.0772 44.978 14.6318 44.562 15.3598C44.1633 16.0878 43.964 16.9458 43.964 17.9338C43.964 18.9218 44.1633 19.7885 44.562 20.5338C44.978 21.2618 45.5153 21.8165 46.174 22.1978C46.85 22.5792 47.5607 22.7698 48.306 22.7698C49.0687 22.7698 49.7793 22.5792 50.438 22.1978C51.114 21.7992 51.6513 21.2272 52.05 20.4818C52.466 19.7365 52.674 18.8698 52.674 17.8818Z" fill="white"/>
<path d="M64.8351 25.3438C63.4831 25.3438 62.2611 25.0405 61.1691 24.4338C60.0771 23.8098 59.2191 22.9432 58.5951 21.8338C57.9711 20.7072 57.6591 19.4072 57.6591 17.9338C57.6591 16.4778 57.9798 15.1865 58.6211 14.0598C59.2624 12.9332 60.1378 12.0665 61.2471 11.4598C62.3564 10.8532 63.5958 10.5498 64.9651 10.5498C66.3344 10.5498 67.5738 10.8532 68.6831 11.4598C69.7924 12.0665 70.6678 12.9332 71.3091 14.0598C71.9504 15.1865 72.2711 16.4778 72.2711 17.9338C72.2711 19.3898 71.9418 20.6812 71.2831 21.8078C70.6244 22.9345 69.7231 23.8098 68.5791 24.4338C67.4524 25.0405 66.2044 25.3438 64.8351 25.3438ZM64.8351 22.7698C65.5978 22.7698 66.3084 22.5878 66.9671 22.2238C67.6431 21.8598 68.1891 21.3138 68.6051 20.5858C69.0211 19.8578 69.2291 18.9738 69.2291 17.9338C69.2291 16.8938 69.0298 16.0185 68.6311 15.3078C68.2324 14.5798 67.7038 14.0338 67.0451 13.6698C66.3864 13.3058 65.6758 13.1238 64.9131 13.1238C64.1504 13.1238 63.4398 13.3058 62.7811 13.6698C62.1398 14.0338 61.6284 14.5798 61.2471 15.3078C60.8658 16.0185 60.6751 16.8938 60.6751 17.9338C60.6751 19.4765 61.0651 20.6725 61.8451 21.5218C62.6424 22.3538 63.6391 22.7698 64.8351 22.7698Z" fill="white"/>
<path d="M78.1652 12.8638C78.5985 12.1358 79.1705 11.5725 79.8812 11.1738C80.6092 10.7578 81.4672 10.5498 82.4552 10.5498V13.6178H81.7012C80.5398 13.6178 79.6558 13.9125 79.0492 14.5018C78.4598 15.0912 78.1652 16.1138 78.1652 17.5698V25.1098H75.2012V10.7838H78.1652V12.8638Z" fill="white"/>
<path d="M88.6378 13.2018V21.1318C88.6378 21.6692 88.7591 22.0592 89.0018 22.3018C89.2618 22.5272 89.6951 22.6398 90.3018 22.6398H92.1218V25.1098H89.7818C88.4471 25.1098 87.4245 24.7978 86.7138 24.1738C86.0031 23.5498 85.6478 22.5358 85.6478 21.1318V13.2018H83.9578V10.7838H85.6478V7.2218H88.6378V10.7838H92.1218V13.2018H88.6378Z" fill="white"/>
<path d="M93.8655 17.8818C93.8655 16.4432 94.16 15.1692 94.75 14.0598C95.356 12.9505 96.171 12.0925 97.194 11.4858C98.234 10.8618 99.378 10.5498 100.626 10.5498C101.752 10.5498 102.732 10.7752 103.564 11.2258C104.413 11.6592 105.089 12.2052 105.592 12.8638V10.7838H108.582V25.1098H105.592V22.9778C105.089 23.6538 104.404 24.2172 103.538 24.6678C102.671 25.1185 101.683 25.3438 100.574 25.3438C99.343 25.3438 98.216 25.0318 97.194 24.4078C96.171 23.7665 95.356 22.8825 94.75 21.7558C94.16 20.6118 93.8655 19.3205 93.8655 17.8818ZM105.592 17.9338C105.592 16.9458 105.384 16.0878 104.968 15.3598C104.569 14.6318 104.04 14.0772 103.382 13.6958C102.723 13.3145 102.012 13.1238 101.25 13.1238C100.487 13.1238 99.776 13.3145 99.118 13.6958C98.459 14.0598 97.922 14.6058 97.506 15.3338C97.107 16.0445 96.908 16.8938 96.908 17.8818C96.908 18.8698 97.107 19.7365 97.506 20.4818C97.922 21.2272 98.459 21.7992 99.118 22.1978C99.794 22.5792 100.504 22.7698 101.25 22.7698C102.012 22.7698 102.723 22.5792 103.382 22.1978C104.04 21.8165 104.569 21.2618 104.968 20.5338C105.384 19.7885 105.592 18.9218 105.592 17.9338Z" fill="white"/>
<path d="M113.983 8.8858C113.445 8.8858 112.995 8.7038 112.631 8.3398C112.267 7.9758 112.085 7.5252 112.085 6.98784C112.085 6.45051 112.267 5.99984 112.631 5.63584C112.995 5.27184 113.445 5.08984 113.983 5.08984C114.503 5.08984 114.945 5.27184 115.309 5.63584C115.673 5.99984 115.855 6.45051 115.855 6.98784C115.855 7.5252 115.673 7.9758 115.309 8.3398C114.945 8.7038 114.503 8.8858 113.983 8.8858ZM115.439 10.7838V25.1098H112.475V10.7838H115.439Z" fill="white"/>
<path d="M126.558 10.5498C127.685 10.5498 128.69 10.7838 129.574 11.2518C130.475 11.7198 131.177 12.4132 131.68 13.3318C132.183 14.2505 132.434 15.3598 132.434 16.6598V25.1098H129.496V17.1018C129.496 15.8192 129.175 14.8398 128.534 14.1638C127.893 13.4705 127.017 13.1238 125.908 13.1238C124.799 13.1238 123.915 13.4705 123.256 14.1638C122.615 14.8398 122.294 15.8192 122.294 17.1018V25.1098H119.33V10.7838H122.294V12.4218C122.779 11.8325 123.395 11.3732 124.14 11.0438C124.903 10.7145 125.709 10.5498 126.558 10.5498Z" fill="white"/>
<path d="M149.345 17.5958C149.345 18.1332 149.31 18.6185 149.241 19.0518H138.295C138.382 20.1958 138.806 21.1145 139.569 21.8078C140.332 22.5012 141.268 22.8478 142.377 22.8478C143.972 22.8478 145.098 22.1805 145.757 20.8458H148.955C148.522 22.1632 147.733 23.2465 146.589 24.0958C145.462 24.9278 144.058 25.3438 142.377 25.3438C141.008 25.3438 139.777 25.0405 138.685 24.4338C137.61 23.8098 136.761 22.9432 136.137 21.8338C135.53 20.7072 135.227 19.4072 135.227 17.9338C135.227 16.4605 135.522 15.1692 136.111 14.0598C136.718 12.9332 137.558 12.0665 138.633 11.4598C139.725 10.8532 140.973 10.5498 142.377 10.5498C143.729 10.5498 144.934 10.8445 145.991 11.4338C147.048 12.0232 147.872 12.8552 148.461 13.9298C149.05 14.9872 149.345 16.2092 149.345 17.5958ZM146.251 16.6598C146.234 15.5678 145.844 14.6925 145.081 14.0338C144.318 13.3752 143.374 13.0458 142.247 13.0458C141.224 13.0458 140.349 13.3752 139.621 14.0338C138.893 14.6752 138.46 15.5505 138.321 16.6598H146.251Z" fill="white"/>
<path d="M155.226 12.8638C155.659 12.1358 156.231 11.5725 156.942 11.1738C157.67 10.7578 158.528 10.5498 159.516 10.5498V13.6178H158.762C157.6 13.6178 156.716 13.9125 156.11 14.5018C155.52 15.0912 155.226 16.1138 155.226 17.5698V25.1098H152.262V10.7838H155.226V12.8638Z" fill="white"/>
<path d="M163.436 25.2918C162.899 25.2918 162.448 25.1098 162.084 24.7458C161.72 24.3818 161.538 23.9313 161.538 23.3939C161.538 22.8566 161.72 22.4058 162.084 22.0418C162.448 21.6778 162.899 21.4958 163.436 21.4958C163.956 21.4958 164.398 21.6778 164.762 22.0418C165.126 22.4058 165.308 22.8566 165.308 23.3939C165.308 23.9313 165.126 24.3818 164.762 24.7458C164.398 25.1098 163.956 25.2918 163.436 25.2918Z" fill="white"/>
<path d="M170.02 8.8858C169.482 8.8858 169.032 8.7038 168.668 8.3398C168.304 7.9758 168.122 7.5252 168.122 6.98784C168.122 6.45051 168.304 5.99984 168.668 5.63584C169.032 5.27184 169.482 5.08984 170.02 5.08984C170.54 5.08984 170.982 5.27184 171.346 5.63584C171.71 5.99984 171.892 6.45051 171.892 6.98784C171.892 7.5252 171.71 7.9758 171.346 8.3398C170.982 8.7038 170.54 8.8858 170.02 8.8858ZM171.476 10.7838V25.1098H168.512V10.7838H171.476Z" fill="white"/>
<path d="M181.581 25.3438C180.229 25.3438 179.007 25.0405 177.915 24.4338C176.823 23.8098 175.965 22.9432 175.341 21.8338C174.717 20.7072 174.405 19.4072 174.405 17.9338C174.405 16.4778 174.726 15.1865 175.367 14.0598C176.009 12.9332 176.884 12.0665 177.993 11.4598C179.103 10.8532 180.342 10.5498 181.711 10.5498C183.081 10.5498 184.32 10.8532 185.429 11.4598C186.539 12.0665 187.414 12.9332 188.055 14.0598C188.697 15.1865 189.017 16.4778 189.017 17.9338C189.017 19.3898 188.688 20.6812 188.029 21.8078C187.371 22.9345 186.469 23.8098 185.325 24.4338C184.199 25.0405 182.951 25.3438 181.581 25.3438ZM181.581 22.7698C182.344 22.7698 183.055 22.5878 183.713 22.2238C184.389 21.8598 184.935 21.3138 185.351 20.5858C185.767 19.8578 185.975 18.9738 185.975 17.9338C185.975 16.8938 185.776 16.0185 185.377 15.3078C184.979 14.5798 184.45 14.0338 183.791 13.6698C183.133 13.3058 182.422 13.1238 181.659 13.1238C180.897 13.1238 180.186 13.3058 179.527 13.6698C178.886 14.0338 178.375 14.5798 177.993 15.3078C177.612 16.0185 177.421 16.8938 177.421 17.9338C177.421 19.4765 177.811 20.6725 178.591 21.5218C179.389 22.3538 180.385 22.7698 181.581 22.7698Z" fill="white"/>
<path d="M48.2754 35.2589C48.2754 34.6197 48.4227 34.0463 48.7172 33.5387C49.018 33.0311 49.4222 32.6363 49.9298 32.3543C50.4437 32.066 51.0045 31.9219 51.6124 31.9219C52.308 31.9219 52.9253 32.0942 53.4642 32.4389C54.0094 32.7773 54.4042 33.2598 54.6486 33.8865H53.3608C53.1916 33.5418 52.9566 33.2849 52.6558 33.1157C52.355 32.9465 52.0072 32.8619 51.6124 32.8619C51.18 32.8619 50.7946 32.959 50.4562 33.1533C50.1178 33.3475 49.8515 33.6264 49.6572 33.9899C49.4692 34.3533 49.3752 34.7763 49.3752 35.2589C49.3752 35.7414 49.4692 36.1644 49.6572 36.5279C49.8515 36.8913 50.1178 37.1733 50.4562 37.3739C50.7946 37.5681 51.18 37.6653 51.6124 37.6653C52.0072 37.6653 52.355 37.5807 52.6558 37.4115C52.9566 37.2423 53.1916 36.9853 53.3608 36.6407H54.6486C54.4042 37.2673 54.0094 37.7499 53.4642 38.0883C52.9253 38.4267 52.308 38.5959 51.6124 38.5959C50.9983 38.5959 50.4374 38.4549 49.9298 38.1729C49.4222 37.8846 49.018 37.4867 48.7172 36.9791C48.4227 36.4715 48.2754 35.8981 48.2754 35.2589Z" fill="#98A2B3"/>
<path d="M61.5147 38.6053C60.9068 38.6053 60.346 38.4643 59.8321 38.1823C59.3245 37.894 58.9203 37.4961 58.6195 36.9885C58.325 36.4746 58.1777 35.8981 58.1777 35.2589C58.1777 34.6197 58.325 34.0463 58.6195 33.5387C58.9203 33.0311 59.3245 32.6363 59.8321 32.3543C60.346 32.066 60.9068 31.9219 61.5147 31.9219C62.1288 31.9219 62.6897 32.066 63.1973 32.3543C63.7112 32.6363 64.1154 33.0311 64.4099 33.5387C64.7044 34.0463 64.8517 34.6197 64.8517 35.2589C64.8517 35.8981 64.7044 36.4746 64.4099 36.9885C64.1154 37.4961 63.7112 37.894 63.1973 38.1823C62.6897 38.4643 62.1288 38.6053 61.5147 38.6053ZM61.5147 37.6747C61.9471 37.6747 62.3325 37.5775 62.6709 37.3833C63.0093 37.1827 63.2725 36.9007 63.4605 36.5373C63.6548 36.1675 63.7519 35.7414 63.7519 35.2589C63.7519 34.7763 63.6548 34.3533 63.4605 33.9899C63.2725 33.6264 63.0093 33.3475 62.6709 33.1533C62.3325 32.959 61.9471 32.8619 61.5147 32.8619C61.0823 32.8619 60.6969 32.959 60.3585 33.1533C60.0201 33.3475 59.7538 33.6264 59.5595 33.9899C59.3715 34.3533 59.2775 34.7763 59.2775 35.2589C59.2775 35.7414 59.3715 36.1675 59.5595 36.5373C59.7538 36.9007 60.0201 37.1827 60.3585 37.3833C60.6969 37.5775 61.0823 37.6747 61.5147 37.6747Z" fill="#98A2B3"/>
<path d="M75.419 32.0065V38.5395H74.3474V34.0651L72.3546 38.5395H71.612L69.6098 34.0651V38.5395H68.5382V32.0065H69.6944L71.988 37.1295L74.2722 32.0065H75.419Z" fill="#98A2B3"/>
<path d="M86.3402 32.0065V38.5395H85.2687V34.0651L83.2758 38.5395H82.5332L80.531 34.0651V38.5395H79.4594V32.0065H80.6157L82.9092 37.1295L85.1935 32.0065H86.3402Z" fill="#98A2B3"/>
<path d="M91.4429 32.0065V36.1707C91.4429 36.6657 91.5714 37.0386 91.8283 37.2893C92.0915 37.5399 92.455 37.6653 92.9187 37.6653C93.3887 37.6653 93.7522 37.5399 94.009 37.2893C94.272 37.0386 94.404 36.6657 94.404 36.1707V32.0065H95.476V36.1519C95.476 36.6845 95.36 37.1357 95.128 37.5055C94.896 37.8752 94.586 38.1509 94.197 38.3327C93.8086 38.5144 93.3793 38.6053 92.9093 38.6053C92.4393 38.6053 92.01 38.5144 91.6215 38.3327C91.2392 38.1509 90.9353 37.8752 90.7097 37.5055C90.4841 37.1357 90.3713 36.6845 90.3713 36.1519V32.0065H91.4429Z" fill="#98A2B3"/>
<path d="M104.87 38.5395H103.799L100.574 33.6609V38.5395H99.5031V31.9971H100.574L103.799 36.8663V31.9971H104.87V38.5395Z" fill="#98A2B3"/>
<path d="M109.981 32.0065V38.5395H108.909V32.0065H109.981Z" fill="#98A2B3"/>
<path d="M118.24 32.0065V32.8807H116.501V38.5395H115.43V32.8807H113.681V32.0065H118.24Z" fill="#98A2B3"/>
<path d="M126.799 32.0065L124.637 36.1707V38.5395H123.565V36.1707L121.394 32.0065H122.588L124.101 35.2119L125.614 32.0065H126.799Z" fill="#98A2B3"/>
<path d="M136.427 32.8713V34.7889H138.683V35.6631H136.427V37.6653H138.965V38.5395H135.355V31.9971H138.965V32.8713H136.427Z" fill="#98A2B3"/>
<path d="M145.05 32.0065C145.746 32.0065 146.354 32.1412 146.874 32.4107C147.4 32.6739 147.804 33.0561 148.086 33.5575C148.375 34.0525 148.519 34.6322 148.519 35.2965C148.519 35.9607 148.375 36.5373 148.086 37.0261C147.804 37.5149 147.4 37.8909 146.874 38.1541C146.354 38.411 145.746 38.5395 145.05 38.5395H142.916V32.0065H145.05ZM145.05 37.6653C145.815 37.6653 146.401 37.4585 146.808 37.0449C147.215 36.6313 147.419 36.0485 147.419 35.2965C147.419 34.5382 147.215 33.946 146.808 33.5199C146.401 33.0937 145.815 32.8807 145.05 32.8807H143.988V37.6653H145.05Z" fill="#98A2B3"/>
<path d="M153.284 32.0065V38.5395H152.213V32.0065H153.284Z" fill="#98A2B3"/>
<path d="M161.544 32.0065V32.8807H159.805V38.5395H158.733V32.8807H156.985V32.0065H161.544Z" fill="#98A2B3"/>
<path d="M166.333 32.0065V38.5395H165.261V32.0065H166.333Z" fill="#98A2B3"/>
<path d="M173.352 38.6053C172.744 38.6053 172.183 38.4643 171.669 38.1823C171.161 37.894 170.757 37.4961 170.456 36.9885C170.162 36.4746 170.015 35.8981 170.015 35.2589C170.015 34.6197 170.162 34.0463 170.456 33.5387C170.757 33.0311 171.161 32.6363 171.669 32.3543C172.183 32.066 172.744 31.9219 173.352 31.9219C173.966 31.9219 174.527 32.066 175.034 32.3543C175.548 32.6363 175.952 33.0311 176.247 33.5387C176.541 34.0463 176.689 34.6197 176.689 35.2589C176.689 35.8981 176.541 36.4746 176.247 36.9885C175.952 37.4961 175.548 37.894 175.034 38.1823C174.527 38.4643 173.966 38.6053 173.352 38.6053ZM173.352 37.6747C173.784 37.6747 174.169 37.5775 174.508 37.3833C174.846 37.1827 175.109 36.9007 175.297 36.5373C175.492 36.1675 175.589 35.7414 175.589 35.2589C175.589 34.7763 175.492 34.3533 175.297 33.9899C175.109 33.6264 174.846 33.3475 174.508 33.1533C174.169 32.959 173.784 32.8619 173.352 32.8619C172.919 32.8619 172.534 32.959 172.195 33.1533C171.857 33.3475 171.591 33.6264 171.396 33.9899C171.208 34.3533 171.114 34.7763 171.114 35.2589C171.114 35.7414 171.208 36.1675 171.396 36.5373C171.591 36.9007 171.857 37.1827 172.195 37.3833C172.534 37.5775 172.919 37.6747 173.352 37.6747Z" fill="#98A2B3"/>
<path d="M185.742 38.5395H184.671L181.447 33.6609V38.5395H180.375V31.9971H181.447L184.671 36.8663V31.9971H185.742V38.5395Z" fill="#98A2B3"/>
</g>
<defs>
<filter id="filter0_dd_10456_446427" x="-3.01562" y="-2.22852" width="38.7092" height="52.3037" filterUnits="userSpaceOnUse" color-interpolation-filters="sRGB">
<feFlood flood-opacity="0" result="BackgroundImageFix"/>
<feColorMatrix in="SourceAlpha" type="matrix" values="0 0 0 0 0 0 0 0 0 0 0 0 0 0 0 0 0 0 127 0" result="hardAlpha"/>
<feOffset dy="1"/>
<feGaussianBlur stdDeviation="1"/>
<feColorMatrix type="matrix" values="0 0 0 0 0.0627451 0 0 0 0 0.0941176 0 0 0 0 0.156863 0 0 0 0.06 0"/>
<feBlend mode="normal" in2="BackgroundImageFix" result="effect1_dropShadow_10456_446427"/>
<feColorMatrix in="SourceAlpha" type="matrix" values="0 0 0 0 0 0 0 0 0 0 0 0 0 0 0 0 0 0 127 0" result="hardAlpha"/>
<feOffset dy="1"/>
<feGaussianBlur stdDeviation="1.5"/>
<feColorMatrix type="matrix" values="0 0 0 0 0.0627451 0 0 0 0 0.0941176 0 0 0 0 0.156863 0 0 0 0.1 0"/>
<feBlend mode="normal" in2="effect1_dropShadow_10456_446427" result="effect2_dropShadow_10456_446427"/>
<feBlend mode="normal" in="SourceGraphic" in2="effect2_dropShadow_10456_446427" result="shape"/>
</filter>
<clipPath id="clip0_10456_446427">
<rect width="190" height="46" fill="white"/>
</clipPath>
</defs>
</svg>
