<svg width="36" height="40" viewBox="0 0 36 40" fill="none" xmlns="http://www.w3.org/2000/svg">
<path d="M14.3817 5.28003C22.1592 5.28003 28.4649 11.5865 28.4649 19.365C28.4649 27.1435 22.1592 33.45 14.3817 33.45C6.60065 33.4535 0.294922 27.1435 0.294922 19.365C0.294922 11.5865 6.60065 5.28003 14.3817 5.28003Z" fill="#E0F2FE"/>
<path fill-rule="evenodd" clip-rule="evenodd" d="M15.5297 15.5683C14.8574 15.3761 14.1468 15.3553 13.4642 15.508C12.7816 15.6606 12.1493 15.9817 11.6262 16.4413C11.1031 16.9008 10.7063 17.4839 10.4728 18.136C10.3554 18.464 9.99118 18.6358 9.65933 18.5198C9.32747 18.4037 9.15365 18.0437 9.27108 17.7157C9.57638 16.8629 10.0953 16.1004 10.7793 15.4995C11.4634 14.8985 12.2903 14.4786 13.1829 14.279C14.0755 14.0794 15.0048 14.1065 15.8839 14.3579C16.7598 14.6083 17.5575 15.0731 18.2032 15.7092L19.5868 16.9943V15.3008C19.5868 14.9528 19.8722 14.6707 20.2242 14.6707C20.5762 14.6707 20.8616 14.9528 20.8616 15.3008V18.4509C20.8616 18.7988 20.5762 19.0809 20.2242 19.0809H17.0373C16.6852 19.0809 16.3999 18.7988 16.3999 18.4509C16.3999 18.1029 16.6852 17.8208 17.0373 17.8208H18.6151L17.3232 16.6209L17.3088 16.6072C16.8141 16.1179 16.202 15.7605 15.5297 15.5683ZM7.90137 20.5509C7.90137 20.203 8.18674 19.9209 8.53875 19.9209H11.7257C12.0777 19.9209 12.3631 20.203 12.3631 20.5509C12.3631 20.8989 12.0777 21.1809 11.7257 21.1809H10.1479L11.4398 22.3809L11.4541 22.3946C11.9489 22.8839 12.561 23.2413 13.2332 23.4335C13.9055 23.6257 14.6161 23.6465 15.2987 23.4938C15.9813 23.3411 16.6137 23.0201 17.1368 22.5605C17.6599 22.1009 18.0566 21.5179 18.2901 20.8658C18.4075 20.5377 18.7718 20.3659 19.1036 20.482C19.4355 20.5981 19.6093 20.9581 19.4919 21.2861C19.1866 22.1389 18.6677 22.9013 17.9836 23.5023C17.2996 24.1033 16.4727 24.5231 15.58 24.7228C14.6874 24.9224 13.7582 24.8953 12.879 24.6439C12.0032 24.3935 11.2055 23.9287 10.5598 23.2926L9.17614 22.0074V23.701C9.17614 24.049 8.89077 24.331 8.53875 24.331C8.18674 24.331 7.90137 24.049 7.90137 23.701V20.5509Z" fill="#0086C9"/>
</svg>
