<svg width="36" height="40" viewBox="0 0 36 40" fill="none" xmlns="http://www.w3.org/2000/svg">
<path d="M14.3817 5.28003C22.1592 5.28003 28.4649 11.5865 28.4649 19.365C28.4649 27.1435 22.1592 33.45 14.3817 33.45C6.60065 33.4535 0.294922 27.1435 0.294922 19.365C0.294922 11.5865 6.60065 5.28003 14.3817 5.28003Z" fill="#E0F2FE"/>
<path fill-rule="evenodd" clip-rule="evenodd" d="M14.4242 13.7577C14.5475 13.974 14.5308 14.2418 14.3815 14.4415C13.8988 15.087 13.6665 15.8823 13.7269 16.6828C13.7873 17.4832 14.1363 18.2357 14.7105 18.8033C15.2848 19.3709 16.046 19.7159 16.8559 19.7756C17.6657 19.8353 18.4703 19.6057 19.1234 19.1286C19.3254 18.981 19.5963 18.9644 19.8152 19.0863C20.0341 19.2083 20.1601 19.4459 20.1369 19.6932C20.0353 20.7805 19.6224 21.8167 18.9467 22.6806C18.271 23.5444 17.3604 24.2002 16.3213 24.5712C15.2823 24.9421 14.1579 25.0129 13.0797 24.7753C12.0014 24.5376 11.014 24.0014 10.2328 23.2293C9.45166 22.4571 8.90913 21.4811 8.66871 20.4153C8.42828 19.3495 8.49991 18.2381 8.87521 17.2111C9.25051 16.1841 9.91396 15.284 10.7879 14.6161C11.6619 13.9482 12.7102 13.5401 13.8103 13.4396C14.0604 13.4168 14.3008 13.5413 14.4242 13.7577ZM12.6775 14.989C12.2816 15.1435 11.9077 15.353 11.5677 15.6129C10.8852 16.1344 10.3672 16.8373 10.0742 17.6392C9.78113 18.4411 9.7252 19.3089 9.91293 20.1411C10.1007 20.9733 10.5243 21.7354 11.1342 22.3383C11.7442 22.9412 12.5152 23.3599 13.3571 23.5454C14.199 23.731 15.077 23.6757 15.8883 23.3861C16.6996 23.0964 17.4106 22.5844 17.9382 21.9098C18.2012 21.5737 18.4131 21.2041 18.5695 20.8128C17.9916 21.0012 17.3774 21.0776 16.7611 21.0321C15.6468 20.95 14.5993 20.4753 13.8091 19.6943C13.019 18.9133 12.5387 17.8779 12.4556 16.7765C12.4097 16.1672 12.4869 15.5602 12.6775 14.989Z" fill="#0086C9"/>
</svg>
