<svg width="36" height="40" viewBox="0 0 36 40" fill="none" xmlns="http://www.w3.org/2000/svg">
<path d="M14.3817 5.28003C22.1592 5.28003 28.4649 11.5865 28.4649 19.365C28.4649 27.1435 22.1592 33.45 14.3817 33.45C6.60065 33.4535 0.294922 27.1435 0.294922 19.365C0.294922 11.5865 6.60065 5.28003 14.3817 5.28003Z" fill="#E0F2FE"/>
<path fill-rule="evenodd" clip-rule="evenodd" d="M8.72192 19.1859C8.78197 19.2875 8.85875 19.4126 8.95184 19.555C9.21567 19.9588 9.60629 20.4957 10.1132 21.0301C11.1385 22.1111 12.5641 23.106 14.3234 23.106C16.0828 23.106 17.5084 22.1111 18.5337 21.0301C19.0406 20.4957 19.4312 19.9588 19.695 19.555C19.7881 19.4126 19.8649 19.2875 19.925 19.1859C19.8649 19.0843 19.7881 18.9592 19.695 18.8167C19.4312 18.4129 19.0406 17.8761 18.5337 17.3417C17.5084 16.2606 16.0828 15.2658 14.3234 15.2658C12.5641 15.2658 11.1385 16.2606 10.1132 17.3417C9.60629 17.8761 9.21567 18.4129 8.95184 18.8167C8.85875 18.9592 8.78197 19.0843 8.72192 19.1859ZM20.6531 19.1859C21.2231 18.9041 21.223 18.9039 21.2229 18.9037L21.2219 18.9018L21.2199 18.8977L21.2132 18.8848C21.2076 18.874 21.1997 18.859 21.1896 18.8401C21.1693 18.8023 21.14 18.7487 21.1018 18.6815C21.0254 18.5473 20.9131 18.3584 20.7659 18.1331C20.4723 17.6838 20.0358 17.0831 19.4637 16.4799C18.3313 15.2859 16.5921 14.0057 14.3234 14.0057C12.0548 14.0057 10.3156 15.2859 9.18316 16.4799C8.61112 17.0831 8.17458 17.6838 7.88098 18.1331C7.73378 18.3584 7.62146 18.5473 7.54507 18.6815C7.50685 18.7487 7.47754 18.8023 7.45729 18.8401C7.44716 18.859 7.43929 18.874 7.4337 18.8848L7.42701 18.8977L7.42494 18.9018L7.42423 18.9032C7.42412 18.9034 7.42374 18.9041 7.99383 19.1859L7.42374 18.9041C7.33402 19.0815 7.33402 19.2903 7.42374 19.4676L7.99383 19.1859C7.42374 19.4676 7.42362 19.4674 7.42374 19.4676L7.42423 19.4686L7.42494 19.47L7.42701 19.4741L7.4337 19.487C7.43929 19.4978 7.44716 19.5127 7.45729 19.5317C7.47754 19.5695 7.50685 19.6231 7.54507 19.6903C7.62146 19.8245 7.73378 20.0134 7.88098 20.2386C8.17458 20.688 8.61112 21.2887 9.18316 21.8919C10.3156 23.0858 12.0548 24.366 14.3234 24.366C16.5921 24.366 18.3313 23.0858 19.4637 21.8919C20.0358 21.2887 20.4723 20.688 20.7659 20.2386C20.9131 20.0134 21.0254 19.8245 21.1018 19.6903C21.14 19.6231 21.1693 19.5695 21.1896 19.5317C21.1997 19.5127 21.2076 19.4978 21.2132 19.487L21.2199 19.4741L21.2219 19.47L21.2227 19.4686C21.2228 19.4684 21.2231 19.4676 20.6531 19.1859ZM20.6531 19.1859L21.2231 19.4676C21.3129 19.2903 21.3126 19.0811 21.2229 18.9037L20.6531 19.1859ZM14.3234 18.1096C13.7221 18.1096 13.2346 18.5915 13.2346 19.1859C13.2346 19.7803 13.7221 20.2622 14.3234 20.2622C14.9248 20.2622 15.4123 19.7803 15.4123 19.1859C15.4123 18.5915 14.9248 18.1096 14.3234 18.1096ZM11.9598 19.1859C11.9598 17.8956 13.018 16.8496 14.3234 16.8496C15.6288 16.8496 16.6871 17.8956 16.6871 19.1859C16.6871 20.4762 15.6288 21.5222 14.3234 21.5222C13.018 21.5222 11.9598 20.4762 11.9598 19.1859Z" fill="#0086C9"/>
</svg>
