<svg width="36" height="40" viewBox="0 0 36 40" fill="none" xmlns="http://www.w3.org/2000/svg">
<path d="M14.3817 5.28003C22.1592 5.28003 28.4649 11.5865 28.4649 19.365C28.4649 27.1435 22.1592 33.45 14.3817 33.45C6.60065 33.4535 0.294922 27.1435 0.294922 19.365C0.294922 11.5865 6.60065 5.28003 14.3817 5.28003Z" fill="#E0F2FE"/>
<path fill-rule="evenodd" clip-rule="evenodd" d="M14.3225 11.6122C14.7096 11.6122 15.0235 11.9224 15.0235 12.3051V13.5561C15.0235 13.9388 14.7096 14.249 14.3225 14.249C13.9353 14.249 13.6215 13.9388 13.6215 13.5561V12.3051C13.6215 11.9224 13.9353 11.6122 14.3225 11.6122ZM8.90324 13.8293C9.17699 13.5587 9.62084 13.5587 9.8946 13.8293L10.7932 14.7176C11.067 14.9882 11.067 15.4269 10.7932 15.6975C10.5195 15.9681 10.0756 15.9681 9.80188 15.6975L8.90324 14.8092C8.62948 14.5386 8.62948 14.0999 8.90324 13.8293ZM19.7417 13.8293C20.0154 14.0999 20.0154 14.5386 19.7417 14.8092L18.843 15.6975C18.5693 15.9681 18.1254 15.9681 17.8517 15.6975C17.5779 15.4269 17.5779 14.9882 17.8517 14.7176L18.7503 13.8293C19.0241 13.5587 19.4679 13.5587 19.7417 13.8293ZM14.3225 16.7511C12.9621 16.7511 11.8592 17.8412 11.8592 19.1859C11.8592 20.5306 12.9621 21.6207 14.3225 21.6207C15.6829 21.6207 16.7857 20.5306 16.7857 19.1859C16.7857 17.8412 15.6829 16.7511 14.3225 16.7511ZM10.4572 19.1859C10.4572 17.0759 12.1878 15.3654 14.3225 15.3654C16.4572 15.3654 18.1877 17.0759 18.1877 19.1859C18.1877 21.2959 16.4572 23.0064 14.3225 23.0064C12.1878 23.0064 10.4572 21.2959 10.4572 19.1859ZM6.66016 19.1859C6.66016 18.8032 6.974 18.493 7.36115 18.493H8.62685C9.014 18.493 9.32784 18.8032 9.32784 19.1859C9.32784 19.5686 9.014 19.8788 8.62685 19.8788H7.36115C6.974 19.8788 6.66016 19.5686 6.66016 19.1859ZM19.3171 19.1859C19.3171 18.8032 19.6309 18.493 20.0181 18.493H21.2838C21.6709 18.493 21.9848 18.8032 21.9848 19.1859C21.9848 19.5686 21.6709 19.8788 21.2838 19.8788H20.0181C19.6309 19.8788 19.3171 19.5686 19.3171 19.1859ZM10.7932 22.6743C11.067 22.9449 11.067 23.3836 10.7932 23.6542L9.8946 24.5425C9.62084 24.8131 9.17699 24.8131 8.90324 24.5425C8.62948 24.2719 8.62948 23.8332 8.90324 23.5626L9.80188 22.6743C10.0756 22.4037 10.5195 22.4037 10.7932 22.6743ZM17.8517 22.6743C18.1254 22.4037 18.5693 22.4037 18.843 22.6743L19.7417 23.5626C20.0154 23.8332 20.0154 24.2719 19.7417 24.5425C19.4679 24.8131 19.0241 24.8131 18.7503 24.5425L17.8517 23.6542C17.5779 23.3836 17.5779 22.9449 17.8517 22.6743ZM14.3225 24.1228C14.7096 24.1228 15.0235 24.433 15.0235 24.8157V26.0667C15.0235 26.4494 14.7096 26.7596 14.3225 26.7596C13.9353 26.7596 13.6215 26.4494 13.6215 26.0667V24.8157C13.6215 24.433 13.9353 24.1228 14.3225 24.1228Z" fill="#0086C9"/>
</svg>
