<svg height="2500" viewBox=".16 0 571.71 800" width="1788" xmlns="http://www.w3.org/2000/svg"><g fill="#13bef9"><path d="m190.83 175.88h-12.2v63.2h12.2zm52.47 0h-12.2v63.2h12.2zm71.69-120.61-12.5-21.68-208.67 120.61 12.5 21.68z"/><path d="m313.77 55.27 12.51-21.68 208.67 120.61-12.51 21.68z"/><path d="m571.87 176.18v-25.03h-571.71v25.03z"/><path d="m345.5 529.77v-370.99h25.02v389.01c-6.71-7.64-15.26-13.13-25.02-18.02zm-42.71-6.41v-523.36h25.02v526.41c-7.02-3.36-24.1-3.05-25.02-3.05zm-237.04 52.21c-30.51-22.59-50.64-58.62-50.64-99.54 0-21.68 5.79-43.05 16.47-61.68h213.55c10.98 18.63 16.48 40 16.48 61.68 0 18.93-2.44 36.64-10.07 52.52-16.17-15.57-39.97-22.29-64.07-22.29-42.71 0-79.32 26.56-88.77 66.26-3.36-.31-5.49-.61-8.85-.61-8.24.3-16.17 1.53-24.1 3.66z" fill-rule="evenodd"/><path d="m170.69 267.18h-64.67v65.03h64.67zm-72.91 0h-64.67v65.03h64.67zm0 72.36h-64.67v65.04h64.67zm72.91 0h-64.67v65.04h64.67zm72.61 0h-64.67v65.04h64.67zm0-107.17h-64.67v65.03h64.67z"/><path d="m109.37 585.34c8.85-37.55 42.71-65.65 82.98-65.65 25.94 0 49.12 11.61 64.99 29.93 13.72-9.47 30.2-14.96 48.2-14.96 46.98 0 85.11 38.16 85.11 85.19 0 9.77-1.52 18.93-4.57 27.78 10.37 14.05 16.78 31.76 16.78 50.69 0 47.02-38.14 85.19-85.12 85.19-20.75 0-39.66-7.33-54.3-19.54-15.56 21.68-40.88 36.03-69.56 36.03-32.95 0-61.63-18.93-75.96-46.41-5.8 1.22-11.6 1.83-17.7 1.83-46.98 0-85.42-38.17-85.42-85.19s38.14-85.19 85.42-85.19c3.05-.31 6.1-.31 9.15.3z" fill-rule="evenodd"/></g></svg>